<svg width="140" height="91" viewBox="0 0 140 91" fill="none" xmlns="http://www.w3.org/2000/svg">
<path d="M122.5 52.504L122.4 52.4055L122.3 52.307C121.9 51.8145 121.9 50.8294 122 49.6472V49.4502H121.9L120.7 49.8443L119.4 50.2383L117.8 50.7309L116.4 51.1249L107.6 53.8832L106.3 54.2772H106.2L92.5 55.5579L78.8 56.74L75.2 57.0355C74.7 59.3998 73.7 60.6804 72.4 61.2715H72.5L74.3 60.976H74.4L106.1 57.9221L106.6 57.7251L107.9 57.2326L116.4 54.2772L117.7 53.7847L120.4 52.7996L120.6 52.7011H120.7L121.7 52.504H122.5ZM123.2 45.9038C123.1 45.9038 123.1 45.9038 123.2 45.9038L122.5 46.0023H122.4L121.9 46.1008L119.2 46.6919L118.8 46.7904L117.9 46.9874L117.3 47.0859L108.2 49.2532L106.8 49.5487L106.4 49.6472H106.3L78.3 51.913L76.7 52.307L76.2 52.4055C76 52.9966 75.9 53.5877 75.7 54.1787L75.4 55.9519C75.4 56.1489 75.4 56.2475 75.3 56.4445V56.6415C76.5 56.543 77.6 56.4445 78.8 56.346L92.5 55.0653L97.1 54.6713L106.2 53.8832H106.4L107.7 53.4892L116.5 50.8294L117.9 50.4353L119.3 50.0413L120.6 49.6472L121.8 49.2532H122C122 49.1547 122 49.0562 122.1 48.8591C122.4 47.7755 122.7 46.7904 123.2 45.9038ZM59.2 63.6358C60.8 63.3402 62.4 63.1432 64 62.8477C65.1 62.6507 66.2 62.4536 67.2 62.2566H67C66.1 62.3551 65.2 62.0596 64.5 61.4685C64.3 61.2715 64.1 60.976 63.9 60.6804C63.9 60.5819 63.8 60.4834 63.8 60.3849C63.7 59.9909 63.7 59.5968 63.6 59.2028V58.4147L62.4 58.5132C62.3 59.0058 62.2 59.4983 62 59.8924C61.6 61.0745 61 61.8626 60.4 62.5522C60.1 62.8477 59.7 63.1432 59.4 63.3402C59.3 63.5373 59.2 63.5373 59.2 63.6358ZM51.7 59.4983V59.9909H51.9C51.7 59.7938 51.7 59.5968 51.7 59.4983ZM14.1 27.4823C14.9 27.6793 15.7 27.9748 16.7 28.3689C16.9 28.4674 17.1 28.4674 17.3 28.5659C20.5 29.6495 24.8 31.1272 29.3 32.9989C29.9 33.1959 30.4 33.4915 31 33.6885C31.6 33.8855 32.1 34.181 32.7 34.3781C35.9 35.7572 39 37.2349 42 38.811C43.6 39.6976 45.2 40.5842 46.6 41.4708C47.3 41.9634 48 42.3574 48.7 42.85C49.2 43.1455 49.6 43.441 50 43.8351L51.8 45.3128C52.2 45.6083 52.5 46.0023 52.9 46.2979C54.8 48.0711 56.1 49.9428 56.6 51.8145C57.4 51.6174 58.3 51.5189 59.1 51.5189H59.5C59.6 51.5189 62.1 51.3219 63.2 51.5189C63.4 51.5189 63.5 51.6174 63.6 51.6174C63.7 51.6174 63.8 51.716 63.8 51.8145C64.1 52.11 64.2 52.504 64.1 52.7996L65.3 52.6026C65.1 51.4204 64.7 50.3368 64.1 49.3517C63.4 48.1696 62.5 47.0859 61.5 46.1008C61 45.6083 60.5 45.1157 60 44.7217C59.6 44.3276 59.1 43.9336 58.7 43.6381C58.5 43.441 58.3 43.244 58.1 43.1455C57.7 42.7515 57.2 42.4559 56.8 42.1604C56.2 41.7664 55.6 41.3723 55.1 40.9783C52.7 39.4021 50.3 38.023 47.8 36.7423C45.3 35.4617 42.7 34.181 40.1 33.0974C42.7 34.181 45.3 35.2646 47.9 36.5453C50.4 37.8259 52.9 39.2051 55.3 40.6827L57.1 41.8649C57.7 42.2589 58.3 42.653 58.8 43.1455C59.9 44.0321 61 44.9187 62 46.0023C62.5 46.4949 63 47.0859 63.4 47.5785L64.6 49.3517C64.8 49.6472 64.9 49.9428 65 50.1398C65 50.1398 65 50.2383 65.1 50.2383C65.3 50.5338 65.3 50.8294 65.4 51.2234C65.5 51.4204 65.5 51.6174 65.5 51.716C65.5 51.913 65.5 52.11 65.6 52.2085V52.6026C65.7 52.4055 65.8 52.307 66 52.2085L66.4 51.8145C68.3 50.1398 70.8 49.9428 72.1 49.9428H74.7C75.5 49.9428 76.2 49.9428 76.3 50.1398C76.5 50.2383 76.6 50.4353 76.7 50.6323C76.8 50.8294 76.8 50.9279 76.8 51.1249C76.8 51.2234 76.8 51.3219 76.7 51.5189L78.2 51.3219C78.1 51.1249 78.1 50.9279 78 50.7309C77.8 50.1398 77.5 49.6472 77.2 49.0562C76.7 48.2681 76 47.48 75.3 46.6919C73.9 45.2142 72.3 43.9336 70.6 42.85C68.9 41.6679 67.2 40.5842 65.4 39.5991C64.4 39.0081 63.4 38.417 62.4 37.9244C61.6 37.5304 60.9 37.1364 60.1 36.7423C56.5 34.8706 52.7 33.1959 48.9 31.6197C45.1 30.0436 41.3 28.5659 37.4 27.1868C41.3 28.4674 45.1 29.9451 48.9 31.4227C52.7 32.9004 56.5 34.5751 60.2 36.4468C63.9 38.22 67.5 40.2887 70.8 42.5545C72.5 43.7366 74 45.1157 75.4 46.5934C76.1 47.3815 76.7 48.1696 77.2 49.0562C77.6 49.7457 77.9 50.5338 78.1 51.3219H78.2L106 49.0562H106.1C105.8 48.1696 105.4 47.3815 104.8 46.6919C104.1 45.8053 103.3 44.9187 102.4 44.2291C100.6 42.7515 98.7 41.4708 96.7 40.2887C94.7 39.1066 92.7 38.023 90.6 37.0378C88.5 36.0527 86.4 35.0676 84.2 34.181C79.9 32.4078 75.5 30.8317 71.1 29.354C67.8 28.2704 64.5 27.1868 61.1 26.2017C60 25.9061 58.9 25.6106 57.8 25.2165C60.1 25.8076 62.4 26.4972 64.7 27.1868C66.8 27.7778 68.9 28.4674 70.9 29.157H71C71.1 29.157 71.1 29.2555 71.2 29.2555C75.6 30.6346 80 32.3093 84.4 33.984L89.2 36.0527C89.7 36.2498 90.3 36.5453 90.8 36.7423C92.9 37.7274 95 38.811 97 39.9932C99 41.1753 100.9 42.5545 102.6 44.0321L103.2 44.6232C103.8 45.2142 104.4 45.8053 104.9 46.4949C105.3 47.0859 105.7 47.7755 105.9 48.4651C106 48.6621 106 48.8591 106.1 49.0562L107 48.8591L108.5 48.5636L117.1 46.4949L117.8 46.2979H118L118.5 46.1994L118.9 46.1008L119.5 46.0023L122.2 45.4113C122 44.9187 121.7 44.4262 121.4 43.9336C121.2 43.5396 120.9 43.244 120.7 42.9485C120.3 42.4559 120 42.0619 119.6 41.6679C119 41.0768 118.3 40.4857 117.6 39.8947C116.9 39.3036 116.2 38.811 115.4 38.3185C113.9 37.3334 112.3 36.3483 110.7 35.5602C109.1 34.7721 107.4 33.984 105.7 33.2944C102.3 31.9153 98.9 30.8317 95.4 29.8466C92.5 28.96 89.5 28.2704 86.6 27.5808C89.6 28.1719 92.5 28.8614 95.5 29.6495C97.3 30.1421 99 30.6346 100.8 31.2257C101.7 31.5212 102.5 31.8168 103.4 32.1123C104.3 32.4078 105.1 32.7034 106 33.0974C106.9 33.3929 107.7 33.787 108.5 34.0825C110.2 34.8706 111.8 35.6587 113.4 36.5453C114.2 37.0378 115 37.4319 115.7 37.9244C116.5 38.417 117.2 39.0081 117.9 39.5991C118.2 39.8947 118.6 40.1902 118.9 40.4857C119.2 40.7813 119.6 41.0768 119.9 41.4708C120.3 41.8649 120.7 42.3574 121 42.85C121.2 43.1455 121.5 43.5396 121.7 43.9336C122 44.4262 122.2 44.9187 122.4 45.4113L122.8 45.3128L123.1 45.2142L123.5 45.1157H123.8L124.3 45.0172C124.5 44.8202 124.6 44.7217 124.7 44.5247C124.8 44.4262 124.9 44.3276 125 44.3276C125.1 44.2291 125.1 44.1306 125.2 44.1306L125.3 44.0321L125.4 43.9336C125.5 43.8351 125.6 43.7366 125.7 43.7366C125.8 43.6381 125.9 43.5396 126.1 43.5396L126.4 43.3425C127.1 43.047 127.8 42.85 128.6 42.7515H128.7C129 42.7515 129.2 42.653 129.5 42.653C131 42.5545 131.6 42.7515 131.9 42.9485C131.8 42.85 131.8 42.7515 131.7 42.7515L131.4 42.3574L131.1 42.0619L130.8 41.7664L130.5 41.4708C130.3 41.2738 130 41.0768 129.8 40.8798C129.1 40.2887 128.4 39.7961 127.6 39.3036C125.5 38.023 123.3 36.8408 121.1 35.8557C120.5 35.5602 120 35.3632 119.4 35.0676C118.3 34.5751 117.1 34.0825 116 33.6885L114.2 33.0974C111.9 32.3093 109.5 31.5212 107.2 30.8317L107.5 30.9302C108.1 31.1272 108.6 31.2257 109.2 31.4227C110.9 31.9153 112.6 32.4078 114.3 32.9989C115.5 33.3929 116.6 33.787 117.8 34.181C119 34.5751 120.1 35.0676 121.2 35.5602C123.5 36.4468 125.7 37.6289 127.8 38.9095C128.8 39.5991 129.8 40.3872 130.7 41.1753C131.2 41.6679 131.6 42.2589 132 42.85C132.1 42.9485 132.1 43.1455 132.2 43.244C132.3 43.3425 132.3 43.441 132.4 43.6381L133 43.047C133.2 42.85 133.4 42.7515 133.6 42.653C134.4 42.1604 135.4 41.7664 136.3 41.6679H136.4L137 41.5693C135.4 40.3872 133.8 39.2051 132 38.22C130.9 37.5304 129.7 36.8408 128.4 36.2498C121.7 32.9004 114.4 30.6346 107.5 29.157C107.6 29.354 107.7 29.4525 107.7 29.6495C107.6 29.4525 107.4 29.2555 107.2 29.0585C105.4 28.6644 103.6 28.3689 101.9 27.9748C96.6 26.9897 91.2 26.3002 85.8 25.8076C85.6 25.8076 85.5 25.8076 85.3 25.7091H84.3C84 25.7091 83.8 25.6106 83.6 25.6106H83.3C80.4 25.2165 75.8 24.1329 75.3 24.0344H66.9C66.5 24.0344 66 24.0344 65.5 24.1329H64.7C63.2 24.2314 61.5 24.2314 59.8 24.3299H59.6C59.1 24.3299 58.6 24.3299 58 24.4285H56.9C56.3 24.4285 55.8 24.527 55.2 24.527C53.9 24.6255 52.6 24.6255 51.2 24.724C50.2 24.8225 49.1 24.8225 48 24.921C47.3 25.0195 46.5 25.0195 45.8 25.118C44.7 25.2165 43.6 25.2165 42.4 25.3151C41.7 25.3151 41 25.4136 40.3 25.4136C39.8 25.4136 39.4 25.5121 38.9 25.5121C38.4 25.5121 38 25.6106 37.5 25.6106C37.2 25.6106 36.9 25.7091 36.6 25.7091C36.2 25.7091 35.8 25.8076 35.4 25.8076C34.7 25.5121 34.3 25.5121 33.9 25.5121C33.1 25.6106 32.4 25.6106 31.6 25.7091C30.2 25.8076 28.9 25.9061 27.5 26.1031C26.4 26.2017 25.2 26.3002 24.1 26.3987C23.7 26.3987 23.3 26.4972 22.9 26.4972C22.1 26.5957 21.3 26.6942 20.6 26.6942C18.4 26.9897 16.2 27.2853 14.1 27.4823ZM132 42.7515C132 42.85 132 42.85 132 42.7515V43.1455H132.1V43.047C132.1 42.9485 132 42.85 132 42.7515ZM139.5 41.4708C139.7 41.8649 139.6 42.4559 139.2 42.653C139 42.85 138.9 42.9485 138.8 43.1455C137.7 44.4262 137 46.0023 136.7 47.677C136.7 47.7755 136.7 47.874 136.6 47.9725C136.4 48.9577 136.3 49.6472 135.8 50.1398C135.7 50.2383 135.6 50.3368 135.5 50.3368V50.4353C136.6 50.6323 138.4 51.1249 139.1 52.504C139.6 53.4892 139.4 54.7698 138.5 56.1489C136.8 58.7102 135 60.4834 133.1 61.567C132.9 65.3105 132 68.5613 130.4 70.5315C129.8 71.3196 129 71.9107 128.1 72.3047H128L127.4 72.5017C125 73.0928 122.5 73.4868 120 73.4868C118.7 73.4868 117.5 73.3883 116.2 73.2898L115.6 73.1913H115.5C113.8 72.6988 112.4 71.7137 111.4 70.3345C108.8 71.4181 106.7 72.3047 106.6 72.3047H106.4C101.1 73.0928 74.7 77.0332 72.2 75.9496C69.1 74.5705 66 74.9645 58.5 76.9347C56.4 77.6243 54.1 77.9198 51.9 78.0184C50.4 78.0184 49 77.6243 47.8 76.9347C47.8 78.7079 47.6 80.4811 47.3 82.1558C46.6 85.5052 45.2 87.7709 43.3 88.756L42.8 88.9531C39.4 90.2337 35.8 90.8248 32.2 90.8248H29.5C28.5 90.6277 27.5 90.1352 26.5 89.4456C25.5 88.6575 24.6 87.5739 23.6 86.2933C22.6 84.9141 21.8 83.4364 21.2 81.9588C14.3 78.1169 8.7 72.9943 4.7 66.7881C4.2 65.9015 3.7 65.0149 3.4 64.1283C3.2 63.7343 3 63.2417 2.8 62.8477C2.7 62.3551 2.5 61.9611 2.3 61.4685C1.7 59.6953 1.1 57.8236 0.7 55.8534C0.3 54.1787 0.1 52.4055 0 50.6323V47.1845C0 46.1994 0.1 45.2142 0.2 44.2291C0.4 42.2589 0.7 40.3872 1.2 38.5155C1.3 38.023 1.5 37.6289 1.6 37.1364C1.7 36.6438 1.8 36.1512 2 35.7572C2.3 34.8706 2.6 33.8855 3 32.9989C3.9 30.8317 4.9 28.7629 6.2 26.7927C6.4 26.3987 6.7 26.0046 6.9 25.6106C7.5 24.724 8.1 23.8374 8.8 22.9508C9.5 22.0642 10.2 21.2761 10.9 20.3895C11.4 19.897 11.8 19.3059 12.3 18.8133C13.8 17.3357 15.3 15.858 16.9 14.5774C19.7 12.3116 22.8 10.2429 26 8.56821L26.7 8.27268C27.4 7.87863 28.1 7.5831 28.8 7.18906C35.1 4.23373 41.9 2.26352 48.8 1.37692C56.6 0.391809 64.4 0.785852 72.1 2.36203C79.8 3.9382 87.1 6.99204 93.6 11.1295C96.6 13.4938 99.4 16.1535 101.8 19.1089C103 20.5865 104.1 22.1627 105.1 23.7389C105.7 24.724 106.2 25.7091 106.7 26.6942C117.8 29.0585 130.3 33.2944 139.3 40.9783C139.4 41.2738 139.4 41.3723 139.5 41.4708ZM137.9 42.1604C137.4 42.0619 136.9 42.1604 136.4 42.1604H136.3C135.8 42.2589 135.3 42.3574 134.8 42.5545L134.9 42.653C135.1 42.85 135.3 43.1455 135.4 43.3425V43.441C135.4 43.441 135.4 43.5396 135.5 43.6381C135.5 43.7366 135.5 43.7366 135.6 43.8351C135.6 43.9336 135.7 44.0321 135.7 44.1306C135.7 44.3276 135.8 44.5247 135.8 44.6232C135.8 45.1157 135.8 45.6083 135.6 46.0023C135.5 46.1994 135.5 46.4949 135.4 46.6919V46.7904C135 47.5785 134.5 48.3666 133.9 48.7606C133.3 49.2532 132.6 49.5487 131.9 49.5487H131.5V49.8443C132.5 49.9428 133.5 49.7457 134.4 49.3517C134.6 49.2532 134.7 49.1547 134.9 49.0562C135.1 48.6621 135.3 48.1696 135.3 47.677C135.3 47.48 135.4 47.3815 135.4 47.1845C135.4 46.9874 135.5 46.8889 135.5 46.7904C135.7 45.7068 136.2 44.6232 136.8 43.6381C137.1 43.244 137.5 42.7515 137.9 42.1604ZM137.9 53.3906C137.9 53.2921 137.8 53.1936 137.8 53.1936C137.7 53.0951 137.6 52.9966 137.5 52.7996C136.8 52.0115 135.1 51.716 134.4 51.716L131.7 52.11L130.4 52.307L123.6 53.4892L121.9 53.7847L120.9 53.9817L120.7 54.0802L117.7 55.1638L116.4 55.6564L107.9 58.6117L106.7 59.0058L106.4 59.1043H106.2L74.5 62.1581H74.3C74.2 62.1581 74.1 62.1581 73.9 62.2566H73.7C70.2 62.8477 56.7 65.409 51.1 66.0985C50.7 66.0985 50.4 66.1971 50 66.1971H48.9C48.4 66.1971 47.9 66.197 47.4 66.0985C47.2 66.0985 47 66 46.8 66C46.6 65.9015 46.4 65.9015 46.2 65.803L46.1 65.7045C45.4 65.5075 45 65.2119 44.6 65.0149C44.2 64.9164 43.9 64.7194 43.6 64.5224C43.2 65.0149 43 65.606 42.8 66.0985C43.4 66.3941 44.3 66.7881 45.3 67.2807L46.8 67.9702C48.3 68.6598 49.9 69.2509 51.6 69.7434C51.8 69.7434 51.9 69.7434 52.1 69.8419C54.8 70.1375 59.1 69.5464 63.8 68.6598C64.1 68.5613 64.5 68.5613 64.8 68.4628C65.2 68.3643 65.5 68.3643 65.9 68.2658C66.6 68.1673 67.3 67.9702 68 67.8717C68.3 67.7732 68.7 67.6747 69.1 67.6747C70.1 67.4777 71.2 67.2807 72.2 67.0836L73.7 66.7881C75.4 66.4926 77 66.197 78.4 66C78.6 66 78.8 65.9015 79 65.9015C79.4 65.803 79.8 65.803 80.1 65.803C81.9 65.606 84.4 65.409 87.2 65.0149C90.5 64.6209 94.2 64.2268 97.4 63.9313C97.9 63.9313 98.4 63.8328 98.9 63.7343C99.2 63.7343 99.5 63.6358 99.8 63.6358C100 63.6358 100.1 63.6358 100.3 63.5373C100.7 63.5373 101.2 63.4387 101.6 63.4387H102C102.4 63.4387 102.8 63.3402 103.1 63.3402H103.5C103.9 63.3402 104.3 63.2417 104.7 63.2417H105C105.8 63.1432 106.3 63.0447 106.3 63.0447L107.5 62.6507L108.7 61.9611C110.8 61.37 113.9 60.4834 116.9 59.5968L118.2 59.2028L121.4 58.3162L122.7 57.9221C123.7 57.6266 124.6 57.4296 125.3 57.2326C126.4 56.937 128.7 56.346 131.2 55.6564C131.6 55.5579 132.1 55.4594 132.5 55.2623C132.6 55.2623 132.8 55.1638 132.9 55.1638C133.2 55.0653 133.5 54.9668 133.9 54.8683C135.3 54.3758 136.6 53.8832 137.9 53.3906ZM137.9 53.7847C136.1 54.4743 134.3 55.0653 132.5 55.5579L131.5 55.9519L131.3 56.0504C129.3 56.6415 127.4 57.1341 126.2 57.4296C125.9 57.5281 125.6 57.5281 125.4 57.6266C125.2 57.6266 125.1 57.7251 124.9 57.7251C124.8 57.7251 124.7 57.7251 124.6 57.8236C124.1 57.9221 123.5 58.1192 122.8 58.3162L121.5 58.7102H121.4C121.2 58.8087 120.9 58.8087 120.6 58.9073C119.8 59.1043 119 59.3013 118.2 59.5968L116.9 59.9909C116.5 60.0894 116.2 60.1879 115.8 60.2864L114.6 60.5819C113.9 60.779 113.1 60.976 112.4 61.173C111.9 61.37 111.3 61.4685 110.8 61.6656C110 61.8626 109.2 62.1581 108.6 62.3551L107.3 62.7492L106.1 63.1432H105.4C102.9 63.4388 94.1 64.4239 86.9 65.2119C86.2 65.3105 85.5 65.409 84.8 65.409C84.5 65.409 84.2 65.5075 83.9 65.5075C82.3 65.7045 80.9 65.803 79.8 65.9015C79.1 66 78.3 66.0985 77.5 66.1971C77.1 66.2956 76.6 66.3941 76.1 66.3941C75.8 66.4926 75.4 66.4926 75 66.5911C73.1 66.9851 70.9 67.3792 68.8 67.7732H68.6C67.2 68.0688 65.8 68.3643 64.4 68.5613C62.5 68.9554 60.7 69.2509 59 69.5464C58.6 69.6449 58.1 69.6449 57.7 69.7434C56 69.9405 54.5 70.1375 53.2 70.1375H52.2C51.9 70.1375 51.5 70.039 51.2 70.039C50.8 69.9405 50.4 69.8419 50 69.6449C48.8 69.2509 47.7 68.8568 46.6 68.3643L45.2 67.8717C44.1 67.3792 43.1 66.8866 42.5 66.5911C42.4 67.0836 42.3 67.6747 42.2 68.1673C42.1 69.1524 42.2 71.1226 42.2 72.2062C42.5 72.6003 44.1 73.4868 45.1 73.9794L46.2 74.5705C46.5 74.7675 46.8 74.866 47 75.063L47.4 75.3586L47.5 75.4571C48.3 75.9496 49.1 76.4422 50.1 76.6392C50.3 76.6392 50.5 76.7377 50.7 76.7377C51.4 76.8362 52.2 76.8362 53.2 76.7377C53.3 76.7377 53.4 76.7377 53.6 76.6392H53.9C55 76.4422 56.3 76.2452 57.9 75.7526C60.2 75.1615 62.1 74.669 63.7 74.3735C63.8 74.3735 63.9 74.3735 64 74.2749C64.4 74.1764 64.7 74.1764 65.1 74.0779C65.5 73.9794 65.8 73.9794 66.2 73.9794C66.4 73.9794 66.5 73.9794 66.7 73.8809C69 73.6839 70.8 73.9794 72.6 74.7675C72.7 74.7675 72.7 74.866 72.8 74.866C74 75.063 78.2 74.7675 83.4 74.1764L85.5 73.8809C86.2 73.7824 87 73.6839 87.8 73.5854C88.6 73.4869 89.3 73.3883 90.1 73.2898C91.3 73.0928 92.5 72.9943 93.7 72.7973C94.5 72.6988 95.3 72.6003 96 72.5017C96.8 72.4032 97.6 72.3047 98.3 72.2062C99.1 72.1077 99.8 72.0092 100.6 71.9107C102.5 71.6151 104.3 71.4181 105.9 71.1226C106.3 70.9256 108.1 70.1375 110.3 69.2509L111.5 68.7583C113.9 67.7732 116.7 66.6896 118.7 65.9015L119.4 65.606C119.6 65.5075 119.7 65.409 119.9 65.3105C120.1 65.2119 120.2 65.1134 120.4 64.9164C120.6 64.7194 120.8 64.5224 121.1 64.3253C121.5 64.0298 122 63.7343 122.5 63.5373C122.9 63.4387 123.2 63.3402 123.6 63.2417C124.7 63.0447 127.8 61.9611 129.7 61.2715L130.8 60.8775L131.3 60.6804C131.8 60.4834 132.2 60.2864 132.6 59.9909C133 59.6953 133.4 59.3998 133.7 59.1043L133.8 59.0058C135 58.0207 136.1 56.8385 136.9 55.4594C137.6 54.9668 137.9 54.3758 137.9 53.7847ZM135 46.7904C135.4 45.9038 135.4 44.9187 135.2 44.0321C135.2 43.9336 135.1 43.8351 135.1 43.7366C135 43.5396 134.9 43.441 134.8 43.244C134.8 43.1455 134.7 43.1455 134.7 43.047C134.6 42.9485 134.6 42.85 134.5 42.85C134.1 43.1455 133.7 43.441 133.4 43.8351C133.3 43.9336 133.2 44.0321 133.1 44.2291C133 44.3276 133 44.3276 133 44.4262C132.9 44.6232 132.7 44.9187 132.6 45.2142C132.5 45.3128 132.5 45.5098 132.4 45.6083C132.3 45.9038 132.2 46.1008 132.1 46.3964C132 46.7904 131.9 47.1845 131.8 47.677V47.7755C131.7 48.2681 131.6 48.8591 131.6 49.4502C132.7 49.6472 134 48.9577 134.7 47.677C134.8 47.48 134.9 47.3815 135 47.1845C134.9 46.8889 135 46.7904 135 46.7904ZM131.6 62.1581L130.5 62.5522C130 62.7492 129.4 62.9462 128.8 63.1432C128.7 63.2417 128.5 63.2417 128.3 63.3402C126.7 63.9313 125 64.4239 124.2 64.6209C123.7 64.7194 123.1 64.9164 122.6 65.2119C122.4 66.2956 122.2 67.2807 121.8 68.2658C121.7 68.4628 121.6 68.7583 121.5 68.9554C121.4 69.1524 121.3 69.4479 121.2 69.6449C121.1 69.9405 120.9 70.236 120.7 70.433C120.5 70.7285 120.3 70.9256 120.1 71.2211C119.8 71.5166 119.5 71.9107 119.2 72.1077C120.7 72.1077 122.3 72.1077 123.8 71.8122C124.9 71.7137 125.9 71.5166 126.9 71.2211L127.3 71.1226C127.8 70.9256 128.3 70.63 128.7 70.236L129.1 69.8419C129.9 68.8568 130.5 67.4777 130.9 65.9015C131.1 65.1134 131.3 64.3253 131.3 63.4387C131.5 62.9462 131.5 62.5522 131.6 62.1581ZM131.2 44.5247C131.1 44.6232 131 44.8202 130.9 44.9187L130.6 45.3128C130.3 45.9038 130 46.3964 129.8 47.0859V47.283C129.7 47.3815 129.7 47.5785 129.7 47.677V47.7755L130 47.677H130.5C130.4 46.6919 130.7 45.6083 131.2 44.5247ZM130.5 51.0264C130.5 51.0264 130.4 50.9279 130.4 50.8294C130.1 50.2383 130.1 49.6472 130.1 48.9577V48.3666C130.1 48.1696 130.1 48.0711 130.2 47.874V47.7755H129.9L129.5 47.874V47.9725C129.4 48.2681 129.3 48.5636 129.3 48.9577C129.2 49.2532 129.1 49.6472 129.1 49.9428C129 50.4353 128.9 50.8294 128.7 51.2234H128.8L130.1 51.0264H130.5ZM130.4 43.3425H130.1C129.6 43.3425 129.1 43.3425 128.7 43.441H128.6C128.2 43.441 127.9 43.5396 127.5 43.6381C127.6 43.7366 127.6 43.8351 127.7 43.8351C127.9 44.0321 128 44.2291 128.1 44.4262L128.2 44.6232C128.2 44.7217 128.3 44.8202 128.3 44.9187C128.5 45.6083 128.5 46.3964 128.3 47.0859C128.3 47.1845 128.2 47.3815 128.2 47.48C128.2 47.5785 128.1 47.677 128.1 47.7755V48.1696L128 48.3666V48.4651C127.8 48.8591 127.6 49.1547 127.4 49.4502C126.6 50.4353 125.5 51.1249 124.4 51.1249C124.1 51.1249 123.8 51.0264 123.5 51.0264C123.4 51.0264 123.4 50.9279 123.3 50.9279C123.3 51.2234 123.3 51.4204 123.4 51.716C123.8 52.11 126.8 51.3219 127.5 50.9279V50.8294C127.6 50.6323 127.6 50.2383 127.7 49.9428C127.8 49.5487 127.9 49.0562 128 48.4651V48.0711C128 47.9725 128.1 47.874 128.1 47.7755L128.2 47.48C128.2 47.3815 128.3 47.1845 128.3 47.0859C128.4 46.7904 128.5 46.3964 128.7 46.1008C128.7 46.1008 128.8 46.0023 128.8 45.9038C128.9 45.8053 128.9 45.7068 129 45.6083V45.5098C129.1 45.4113 129.2 45.2142 129.2 45.1157C129.4 44.7217 129.7 44.3276 129.9 44.0321C130 43.9336 130.1 43.8351 130.1 43.7366L130.4 43.3425ZM128 46.5934C128.1 46.1008 128 45.5098 127.9 45.0172C127.9 44.8202 127.8 44.7217 127.7 44.5247C127.6 44.2291 127.4 44.0321 127.2 43.8351L127 43.7366C126.8 43.8351 126.7 43.9336 126.5 43.9336C126.3 44.0321 126.2 44.1306 126.1 44.2291C125.7 44.5247 125.4 44.9187 125.1 45.2142L124.9 45.4113C124.7 45.6083 124.6 45.9038 124.4 46.1994L123.8 47.3815C123.6 47.7755 123.5 48.1696 123.4 48.6621V48.8591C123.3 49.2532 123.2 49.7457 123.2 50.1398C123.3 50.2383 123.4 50.2383 123.5 50.3368C123.7 50.4353 123.9 50.4353 124.1 50.4353C125.3 50.5338 126.6 49.6472 127.3 48.1696C127.3 48.0711 127.4 48.0711 127.4 47.9725C127.4 47.9725 127.5 47.7755 127.5 47.677C127.8 47.48 127.9 47.0859 128 46.5934ZM120.9 66.6896L121 66.2956C120.9 66.3941 120.8 66.3941 120.7 66.4926C120.5 66.5911 120.3 66.6896 120 66.7881L119.4 66.9851C117.4 67.6747 114.8 68.7583 112.4 69.7434C112.5 69.8419 112.6 69.9405 112.7 70.1375L113 70.433C113.7 71.1226 114.6 71.6151 115.5 71.8122C115.7 71.8122 115.9 71.9107 116.1 71.9107H116.5C117.3 71.8122 117.9 71.4181 118.5 70.9256C118.7 70.7285 118.8 70.63 119 70.3345C119.2 70.039 119.5 69.6449 119.7 69.3494C119.9 69.0539 120.1 68.6598 120.2 68.2658C120.4 67.8717 120.5 67.4777 120.6 67.0836C120.8 66.9851 120.8 66.8866 120.9 66.6896ZM105.8 26.8912C105.5 26.5957 105.3 26.3002 105 26.0046C104.5 25.4136 103.9 24.8225 103.4 24.2314L102.6 23.4433C99.2 20.094 95.3 17.3357 91 14.9714C84.9 11.031 78.2 8.27268 71 6.79501C63.9 5.31735 56.5 5.02182 49.2 5.90842C48 6.10544 46.9 6.20395 45.7 6.40097C44.6 6.59799 43.4 6.89353 42.3 7.09055C48.9 6.99204 55.8 7.09055 62.1 7.5831C62.3 7.5831 62.4 7.68161 62.6 7.78012L75.5 22.1627C76.5 22.3597 80.6 23.3448 83.2 23.6404C83.8 23.7389 84.6 23.8374 85.7 23.9359C92.5 24.6255 99.2 25.5121 105.8 26.8912ZM75.3 50.8294H71.7C72 51.0264 72.2 51.2234 72.5 51.4204L73.1 52.307C73.1 52.4055 73.2 52.504 73.2 52.6026V52.7011C73.5 53.9817 73.4 55.3609 72.9 56.543C72.9 56.6415 72.8 56.74 72.7 56.8385C72.7 56.8385 72.7 56.937 72.6 57.0355C72.6 57.0355 72.5 57.1341 72.5 57.2326L72.4 57.3311C72.3 57.5281 72.1 57.8236 72 58.0207C71.8 58.2177 71.7 58.4147 71.5 58.6117C70.4 59.7938 69.1 60.3849 67.8 60.3849C67.3 60.3849 66.8 60.2864 66.4 60.0894C65.7 59.6953 65.1 59.1043 64.9 58.3162C64.9 59.3998 65.1 60.1879 65.4 60.4834C65.9 60.976 67.2 60.976 68.8 60.779C69.3 60.779 69.9 60.6804 70.4 60.5819C71.2 60.3849 71.9 60.1879 72.5 59.5968C72.7 59.3998 72.9 59.2028 73 59.0058C73.2 58.8087 73.3 58.5132 73.5 58.1192C73.6 57.8236 73.8 57.4296 73.9 57.0355V56.8385C73.9 56.74 73.9 56.74 74 56.6415C74.1 56.346 74.1 56.0504 74.1 55.6564C74.2 54.5728 74.4 53.4892 74.8 52.4055L75.1 51.5189C75.2 51.4204 75.2 51.2234 75.2 51.1249V51.0264C75.3 51.0264 75.3 50.9279 75.3 50.8294ZM73.7 22.0642L71.3 19.3059L61.8 8.76523C58.7 8.56821 55.5 8.4697 52.2 8.37119H43.8C41.7 8.37119 39.6 8.37119 37.6 8.4697C34.5 9.45481 31.5 10.7354 28.6 12.2131C27.8 12.6072 27 13.0997 26.2 13.4938C23.9 14.8729 21.6 16.3506 19.6 18.1238L16.6 20.7836C15 22.3597 13.5 23.9359 12.2 25.7091C12 25.9061 11.8 26.2017 11.6 26.4972C13.6 26.3002 15.7 26.0046 17.7 25.8076L23.7 25.2165C26.7 24.921 29.6 24.6255 32.4 24.4285C40.9 23.6404 48.6 23.1478 54.6 22.8523C60 22.5567 65.2 22.3597 69.3 22.2612H72C72.6 22.0642 73.2 22.0642 73.7 22.0642ZM72.8 55.2623C73 54.4743 72.9 53.6862 72.7 52.8981V52.7011C72.5 52.2085 72.3 51.8145 71.9 51.5189C71.7 51.4204 71.6 51.3219 71.4 51.2234C71.3 51.1249 71.2 51.1249 71 51.0264C70.9 51.0264 70.7 50.9279 70.6 50.9279C69.4 51.0264 68.3 51.4204 67.4 52.11C67.2 52.2085 67.1 52.4055 66.9 52.504C66.6 52.7996 66.3 53.1936 66.1 53.4892C66 53.5877 66 53.6862 65.9 53.7847C65.8 53.8832 65.7 54.0802 65.7 54.2772C65.6 54.4743 65.6 54.5728 65.5 54.7698C65.5 54.8683 65.4 54.9668 65.4 55.1638C65.4 55.2623 65.3 55.2623 65.3 55.3609C65.3 55.4594 65.3 55.4594 65.2 55.5579C65.1 56.1489 65 56.74 65.1 57.2326C65.1 57.4296 65.2 57.6266 65.2 57.8236C65.2 57.8236 65.3 57.9221 65.3 58.0207C65.4 58.2177 65.4 58.3162 65.5 58.5132C65.8 58.9072 66.1 59.3013 66.6 59.4983C68.2 60.2864 70.5 59.3013 71.9 57.2326C72 57.1341 72 57.0355 72.1 56.8385L72.4 56.2475C72.5 56.1489 72.5 56.0504 72.5 55.9519C72.6 55.7549 72.6 55.5579 72.7 55.3609C72.8 55.3609 72.8 55.3609 72.8 55.2623ZM64.5 53.7847L63.6 53.8832C63.1 55.1638 62.8 56.543 62.6 57.8236C62.6 58.0207 62.6 58.2177 62.5 58.3162L63.6 58.1192C63.6 57.7251 63.6 57.2326 63.7 56.8385C63.7 56.74 63.7 56.6415 63.8 56.4445C63.8 55.6564 64.1 54.6713 64.5 53.7847ZM62.6 52.504H61.9C61.4 52.504 60.7 52.504 59.8 52.6026H58.8C58.9 52.7011 59 52.7996 59.1 52.7996L59.4 53.0951C59.7 53.4892 60 53.8832 60.1 54.2772C60.6 55.7549 60.5 57.3311 59.7 58.7102C59.7 58.8087 59.6 58.9073 59.6 58.9073L59.7 59.1043C59.6 59.2028 59.6 59.3998 59.5 59.4983C59.2 59.9909 58.8 60.3849 58.5 60.779C57.5 61.7641 56.2 62.3551 55 62.3551C54.6 62.3551 54.3 62.3551 53.9 62.1581C53.8 62.1581 53.6 62.0596 53.5 61.9611C53.1 61.7641 52.8 61.4685 52.6 61.2715C52.4 61.0745 52.3 60.8775 52.2 60.6804C52.1 60.4834 52 60.1879 51.9 59.9909H51.7C51.6 60.779 51.8 61.6656 52.2 62.2566C52.9 63.0447 54.4 63.0447 55.9 62.9462C57.1 62.9462 58.4 62.7492 59.3 61.8626L59.6 61.567C59.8 61.37 60 61.173 60.1 60.8775C60.5 60.2864 60.8 59.5968 61 58.7102V58.5132C61.1 58.2177 61.1 57.9221 61.2 57.6266C61.4 56.4445 61.7 55.1638 62 53.9817L62.1 53.5877C62.1 53.4892 62.2 53.3906 62.2 53.2921C62.3 53.0951 62.3 52.8981 62.4 52.6026V52.504C62.6 52.6026 62.6 52.6026 62.6 52.504ZM60.1 56.8385C60.2 56.1489 60.2 55.4594 60 54.8683C60 54.7698 59.9 54.5728 59.9 54.4743C59.7 53.9817 59.4 53.5877 59.1 53.2921C59 53.1936 58.8 53.0951 58.6 52.8981C58.4 52.7996 58.3 52.7996 58.1 52.7011C56.9 52.7996 55.8 53.1936 54.9 53.7847C54.3 54.1787 53.7 54.6713 53.3 55.2623C53 55.7549 52.7 56.2475 52.5 56.74C52.1 57.7251 52.1 58.9073 52.4 59.8924V59.9909C52.6 60.779 53.1 61.37 53.8 61.7641C54.1 61.9611 54.5 62.0596 54.8 62.0596H55.7C57.1 61.8626 58.5 60.779 59.5 59.1043L59.6 59.0058V58.9073C59.8 58.6117 59.9 58.2177 60 57.9221C60 57.5281 60 57.2326 60.1 56.8385ZM55 52.2085C55.1 52.11 55.2 52.11 55.4 52.0115C52.5 40.7813 15.7 29.2555 11.3 27.9748C5.2 36.6438 10.4 52.307 11.3 53.5877C11.6 53.7847 11.9 54.0802 12.1 54.3758C12.2 54.4743 12.2 54.5728 12.3 54.6713L12.7 55.0653L14.5 56.1489L16.3 57.2326C15.6 55.5579 14.9 52.7011 15.2 50.5338C15.2 50.3368 15.3 50.0413 15.3 49.8443L15.6 48.9577C15.7 48.6621 16 48.3666 16.4 48.0711C16.9 47.7755 17.5 47.48 18.4 47.5785C18.6 47.5785 18.8 47.5785 19 47.677C21.2 48.2681 23.4 49.1547 25.3 50.4353C26 50.9279 26.7 51.5189 27.2 52.2085C27.6 52.6026 28 53.0951 28.3 53.4892C28.8 54.1787 29.3 54.8683 29.8 55.6564C29.9 55.7549 29.9 55.8534 30 55.9519C30.2 56.346 30.5 56.74 30.7 57.1341C30.8 57.3311 31 57.6266 31.1 57.8236C31.5 58.6117 31.9 59.3013 32.2 59.9909C32.4 60.2864 32.5 60.6804 32.7 60.976C32.8 61.2715 33 61.6656 33.1 61.9611C33.2 62.1581 33.3 62.3551 33.4 62.6507C33.5 62.8477 33.5 62.9462 33.6 63.1432C34.3 64.7194 34.8 66 35.1 66.9851C35.3 67.4777 35.5 67.9702 35.6 68.1673C36.2 68.7583 36.7 69.3494 37.2 70.039C37.6 70.63 38 71.1226 38.5 71.6152C38.6 71.6152 38.7 71.7137 38.7 71.8122C38.8 71.9107 39 72.0092 39.2 72.0092C39.7 72.2062 40.2 72.3047 40.7 72.2062H40.9C40.9 71.0241 40.8 69.1524 40.9 68.1673C41.1 65.3105 42.4 63.8328 42.8 63.3402C42.8 63.3402 42.9 63.3402 42.9 63.2417L43.6 62.3551L44.5 61.0745L48.7 55.2623C48.8 55.1638 48.8 55.0653 48.9 54.9668C49 54.8683 49.1 54.7698 49.2 54.7698C46.4 53.2921 43.6 51.716 40.8 50.3368C37.8 48.7606 34.7 47.283 31.6 45.9038C30.1 45.2142 28.5 44.5247 26.9 43.8351C25.3 43.1455 23.8 42.4559 22.2 41.8649C19 40.5842 15.8 39.4021 12.6 38.3185C15.9 39.3036 19.1 40.4857 22.3 41.6679C25.5 42.85 28.7 44.2291 31.8 45.6083C34.9 46.9874 38 48.3666 41 50.0413C43.8 51.5189 46.6 53.0951 49.3 54.7698C50.1 54.3758 50.9 54.1787 51.8 54.0802L52.4 53.9817C53.2 53.1936 54 52.6026 55 52.2085ZM54.8 64.3253C53.8 64.3253 52.8 64.2268 52 63.7343C51.7 63.5373 51.5 63.3402 51.3 63.1432C51.2 63.0447 51.2 62.9462 51.1 62.8477C50.6 62.0596 50.3 61.0745 50.4 60.0894H49.1C48.7 60.0894 48.2 60.0894 47.8 59.9909H47.6H47.7C48.1 59.9909 48.6 60.0894 49 60.0894H50.4V58.9073C50.6 57.7251 50.9 56.543 51.5 55.4594C51.1 55.4594 50.6 55.5579 50.2 55.7549C50.1 55.8534 49.9 55.8534 49.8 55.9519L47 59.7938L45 62.4536L44.2 63.4387C44.4 63.5373 44.9 63.7343 45.5 64.0298L46.6 64.4239C47.6 64.7194 48.6 64.8179 49.6 64.7194H49.7C50 64.7194 50.2 64.7194 50.5 64.6209C50.6 64.6209 50.7 64.6209 50.9 64.5224H51.3C52.3 64.7194 53.5 64.5224 54.8 64.3253ZM45.8 81.9588C46.2 80.0871 46.4 78.1169 46.3 76.1466C45.9 75.9496 45.5 75.6541 45 75.4571C44.9 75.3586 44.7 75.26 44.5 75.1615C44.3 75.063 44 74.9645 43.8 74.7675C43.6 74.669 43.3 74.472 43.1 74.3735C42.6 74.0779 42.1 73.7824 41.7 73.4868C41.4 73.4868 41.1 73.5854 40.8 73.5854C40.5 73.5854 40.1 73.5854 39.8 73.4868C39 73.3883 38.3 72.9943 37.7 72.5017L36.2 70.7285C36.1 70.5315 35.9 70.3345 35.8 70.1375C36.8 75.1615 36.9 79.9886 36.1 83.8305C36.1 84.0275 36 84.2245 36 84.323C35.9 84.8156 35.7 85.3082 35.5 85.8992C35.1 87.2784 34.3 88.559 33.2 89.6426C34.7 89.5441 36.2 89.4456 37.6 89.1501L39.1 88.8545C40.1 88.6575 41.1 88.2635 42.1 87.8694L42.5 87.6724H42.6C42.8 87.5739 42.9 87.4754 43.1 87.3769C43.2 87.2784 43.3 87.1799 43.4 87.1799C44.3 86.0962 45.2 84.323 45.8 81.9588ZM34.8 82.7469C35.4 78.6094 35.3 74.3735 34.4 70.236C33.9 67.9702 33.3 65.7045 32.4 63.5373C32 62.5522 31.6 61.6656 31.1 60.5819C30.8 60.0894 30.5 59.4983 30.2 59.0058C29.9 58.5132 29.7 58.2177 29.4 57.8236L29.1 57.4296C27.3 55.0653 25.4 53.6862 23.8 53.6862H23.2C23.1 53.6862 23 53.6862 22.9 53.7847C22.7 53.8832 22.4 53.9817 22.2 54.0802C20.8 54.8683 19.7 56.8385 19.1 59.6953C19 59.9909 19 60.2864 19 60.5819C18.9 61.2715 18.8 61.9611 18.7 62.7492C18.6 64.6209 18.6 66.3941 18.7 68.2658C18.7 68.5613 18.7 68.8568 18.8 69.2509C18.8 69.5464 18.9 69.8419 18.9 70.236C19 71.2211 19.2 72.1077 19.4 73.0928C19.5 73.6839 19.7 74.2749 19.8 74.866C20 75.5556 20.1 76.1466 20.3 76.8362C20.4 77.3288 20.6 77.8213 20.8 78.3139C21 78.9049 21.2 79.3975 21.4 79.8901L22 81.3677C22.1 81.6632 22.2 81.8603 22.3 82.1558C22.7 82.8454 23 83.535 23.4 84.2245C23.7 84.6186 23.9 85.1111 24.2 85.4067C25.9 87.7709 27.6 89.2486 29.2 89.4456H29.7C29.9 89.4456 30.1 89.4456 30.2 89.3471C31.5 89.0516 32.7 87.8694 33.5 85.8992C33.7 85.4067 33.9 84.9141 34 84.4216C34 84.2245 34.1 84.126 34.1 83.929C34.1 83.732 34.2 83.6335 34.2 83.4364C34.7 83.2394 34.7 83.0424 34.8 82.7469ZM26.5 53.1936C26.4 52.9966 26.2 52.8981 26.1 52.7011C25.9 52.504 25.6 52.2085 25.3 52.0115C25.1 51.8145 24.8 51.5189 24.5 51.3219C24.3 51.2234 24 51.0264 23.8 50.9279C22.6 50.2383 21.4 49.7457 20.2 49.2532C19.7 49.0562 19.2 48.8591 18.7 48.7606C18.6 48.7606 18.5 48.7606 18.3 48.6621C17.8 48.5636 17.4 48.6621 17.2 48.8591C17.1 48.8591 17.1 48.9577 17.1 48.9577C17 49.0562 16.9 49.1547 16.8 49.3517C15.6 51.4204 17.2 56.8385 17.9 57.4296L18 57.5281C18.1 57.6266 18.1 57.7251 18.2 57.8236C18.2 57.9221 18.3 58.0207 18.4 58.1192C19.4 54.8683 21 52.7996 23.2 52.4055C24.2 52.2085 25.3 52.4055 26.3 52.8981C26.3 53.0951 26.4 53.1936 26.5 53.1936ZM15.3 75.6541C17 77.6243 18.8 79.5945 20.8 81.3677C19.7 78.7079 18.8 76.0481 18.3 73.2898C18.2 72.9943 18.2 72.6003 18.1 72.3047C17.5 68.9554 17.3 65.5075 17.6 62.1581L13.1 59.3013C13 59.2028 12.9 59.1043 12.9 59.0058L12.7 58.5132C11.3 57.6266 8.2 55.7549 4.9 53.6862C5.4 56.6415 6.2 59.3998 7.4 62.1581C7.7 63.0447 8.1 63.9313 8.6 64.8179C8.9 65.606 9.3 66.3941 9.7 67.0836C11.2 70.1375 13.1 72.9943 15.3 75.6541ZM13.9 58.3162L17.7 60.779C17.6 60.3849 17.5 59.9909 17.3 59.5968C17.2 59.2028 17 58.8087 16.9 58.5132C16.6 58.2177 16.4 57.8236 16.2 57.4296L15.7 57.1341V57.0355L14.4 56.2475L12.6 55.1638C13.1 56.2475 13.5 57.2326 13.9 58.3162ZM12.3 57.8236C11.9 56.74 11.3 55.6564 10.6 54.6713C10.5 54.6713 10.3 54.5728 10.1 54.1787C10 54.0802 9.9 53.8832 9.8 53.6862C8.3 52.7996 6.7 51.913 5.2 50.9279L4.3 50.4353C4.5 51.3219 4.6 52.2085 4.7 53.0951C5 53.2921 5.3 53.4892 5.7 53.6862C6.4 54.0802 7.1 54.5728 7.7 54.9668C8.7 55.5579 9.7 56.1489 10.6 56.74C11.1 57.1341 11.7 57.5281 12.3 57.8236ZM5.5 50.6323L9.6 53.0951C9.5 52.9966 9.5 52.7996 9.4 52.7011C9.3 52.504 9.3 52.4055 9.2 52.2085C9.1 51.8145 8.9 51.4204 8.8 50.9279C8.2 48.9577 5.9 40.5842 7.6 33.1959C7.4 33.6885 7.1 34.181 6.9 34.6736C6.9 34.9691 6.8 35.1661 6.7 35.3632C6.5 35.9542 6.3 36.5453 6.1 37.2349C5.9 37.6289 5.9 38.023 5.7 38.5155C5.6 39.0081 5.5 39.3036 5.4 39.7961C5.1 41.0768 4.9 42.3574 4.7 43.6381C4.6 44.0321 4.6 44.5247 4.6 44.9187C4.4 46.6919 4.4 48.3666 4.5 50.0413L4.6 50.1398L5.5 50.6323Z" fill="white"/>
<path d="M138 42.1605C137.5 42.6531 137.1 43.1456 136.8 43.7367C136.2 44.7218 135.8 45.8054 135.5 46.889C135.5 47.0861 135.4 47.1846 135.4 47.2831C135.4 47.4801 135.3 47.5786 135.3 47.7756C135.3 47.6771 135.4 47.4801 135.4 47.2831C135.4 47.0861 135.5 46.9876 135.5 46.889C135.6 46.692 135.6 46.3965 135.7 46.101C135.9 45.2144 136.3 44.4263 136.8 43.6382C137.1 43.1456 137.5 42.6531 138 42.1605C137.9 42.1605 137.9 42.1605 138 42.1605ZM137.9 53.6863V53.7848C136.2 54.4744 134.4 55.164 132.5 55.6565L131.4 55.952L132.4 55.558C134.3 55.0654 136.1 54.4744 137.9 53.6863ZM136.8 40.8799C135.2 39.6978 133.6 38.6141 131.8 37.5305C133.5 38.6141 135.2 39.6978 136.8 40.8799ZM134.5 51.6176C135.2 51.6176 136.8 51.9131 137.6 52.7012C136.8 52.0116 135.2 51.7161 134.5 51.6176ZM136.1 40.9784C135.2 41.0769 134.2 41.3724 133.4 41.9635C133.2 42.062 133 42.259 132.8 42.3575C133 42.1605 133.2 42.062 133.4 41.865C134.1 41.3724 135.1 41.0769 136.1 40.9784ZM135.6 43.8352C135.6 43.9337 135.7 44.0322 135.7 44.1307C135.6 44.0322 135.6 43.9337 135.6 43.8352Z" fill="white"/>
<path d="M135.2 44.032C135.5 44.9186 135.4 45.9037 135 46.7903C135 46.8888 134.9 46.9873 134.9 46.9873C134.9 46.8888 135 46.7903 135 46.6918C135.3 45.8052 135.4 44.9186 135.2 44.032C135.1 43.9335 135.1 43.7365 135 43.638C134.9 43.4409 134.8 43.3424 134.7 43.2439C134.8 43.3424 134.9 43.5394 135 43.7365C135.1 43.7365 135.1 43.835 135.2 44.032ZM134.9 42.6528C135.1 42.8499 135.3 43.1454 135.4 43.3424C135.3 43.1454 135.1 42.9484 134.9 42.6528ZM134.9 42.5543C134.9 42.6528 134.9 42.6528 134.9 42.5543V42.5543ZM134 59.2027C133.6 59.4982 133.3 59.7937 132.9 60.0893C132.5 60.3848 132 60.5818 131.6 60.7788L131.1 60.9759L130 61.3699C128.1 62.0595 125 63.1431 123.9 63.3401C123.5 63.4386 123.1 63.5371 122.8 63.6357C122.3 63.8327 121.8 64.0297 121.4 64.4237C121.1 64.6208 120.9 64.8178 120.7 65.0148C120.5 65.1133 120.4 65.3103 120.2 65.4088C120 65.5074 119.9 65.6059 119.7 65.7044L119 65.9999C116.9 66.788 114.2 67.8716 111.8 68.8567L110.6 69.3493C108.3 70.2359 106.6 71.024 106.2 71.221C104.5 71.418 102.7 71.7135 100.9 72.0091C102.8 71.7135 104.6 71.418 106.2 71.221C106.6 71.024 108.4 70.3344 110.6 69.3493L111.8 68.8567C114.2 67.8716 117 66.788 119 65.9999L119.7 65.7044C119.9 65.6059 120.1 65.5074 120.2 65.4088C120.4 65.3103 120.5 65.2118 120.7 65.0148C120.9 64.8178 121.1 64.6208 121.4 64.4237C121.8 64.1282 122.3 63.8327 122.8 63.6357C123.2 63.5371 123.5 63.4386 123.9 63.3401C125 63.1431 128.1 62.0595 130 61.3699L131.2 60.9759C131.4 60.8773 131.5 60.8773 131.7 60.7788C132.1 60.5818 132.6 60.3848 133 60.0893C133.3 59.7937 133.7 59.4982 134 59.2027ZM132 42.7514C132.1 42.8499 132.1 42.9484 132.2 43.0469L132 42.7514C132 42.8499 132 42.8499 132 42.7514ZM131.5 49.2531C131.5 48.7605 131.6 48.1694 131.7 47.6769C131.6 48.1694 131.5 48.662 131.5 49.2531ZM130.4 62.552L131.5 62.158C131.5 62.552 131.4 62.9461 131.4 63.3401C131.5 62.9461 131.5 62.552 131.5 62.158L130.4 62.552C129.9 62.7491 129.3 62.9461 128.7 63.1431C129.4 62.9461 129.9 62.7491 130.4 62.552ZM131.1 44.6231C130.7 45.6082 130.4 46.6918 130.2 47.7754H130.1C130.4 46.6918 130.7 45.6082 131.1 44.6231C131 44.7216 130.9 44.9186 130.9 45.0171C131 44.8201 131.1 44.7216 131.1 44.6231ZM130.6 51.0263C130.5 51.0263 130.4 50.9278 130.4 50.9278C130.1 50.3367 130.1 49.7456 130.1 49.056C130.1 48.859 130.1 48.662 130.2 48.465C130.2 48.268 130.2 48.1694 130.3 47.9724C130.3 48.1694 130.2 48.268 130.2 48.465V49.056C130.1 49.6471 130.2 50.3367 130.5 50.9278L130.6 51.0263ZM130.5 43.3424C129.9 43.3424 129.3 43.3424 128.7 43.4409H128.6C128.2 43.4409 127.9 43.5394 127.6 43.638C127.9 43.5394 128.3 43.4409 128.7 43.4409H128.8C129.3 43.3424 129.7 43.3424 130.2 43.3424H130.5ZM129.8 47.0858C129.8 47.1843 129.8 47.1843 129.8 47.0858V47.0858ZM128.2 35.6586C129.4 36.2496 130.6 36.9392 131.8 37.6288C130.6 36.8407 129.4 36.2496 128.2 35.6586ZM129.8 47.2828C129.8 47.3814 129.8 47.3814 129.8 47.2828V47.2828ZM128.2 47.6769V47.5784C128.2 47.6769 128.1 47.7754 128.1 47.8739L128.2 47.6769ZM127.4 38.6139C128.2 39.1064 128.9 39.599 129.6 40.1901C128.9 39.6975 128.1 39.1064 127.4 38.6139C125.3 37.3333 123.1 36.1511 120.9 35.166C120.3 34.8705 119.8 34.6735 119.2 34.3779C119.8 34.575 120.3 34.8705 120.9 35.166C123.1 36.2496 125.3 37.3333 127.4 38.6139ZM127.9 45.1156C128 45.6082 128.1 46.1007 128 46.6918C128 46.1007 128 45.6082 127.9 45.1156C127.8 45.0171 127.8 44.8201 127.7 44.6231C127.6 44.3275 127.4 44.1305 127.2 43.9335L127.1 43.835C126.9 43.9335 126.8 44.032 126.6 44.032C126.8 43.9335 126.9 43.835 127.1 43.835L127.3 43.9335C127.5 44.1305 127.7 44.426 127.8 44.6231C127.8 44.8201 127.8 44.9186 127.9 45.1156ZM127.7 49.8441C127.7 50.1397 127.6 50.5337 127.5 50.6322C127.6 50.4352 127.7 50.1397 127.7 49.8441Z" fill="white"/>
<path d="M124.2 64.5225C125 64.3255 126.7 63.8329 128.3 63.2418C126.6 63.8329 124.9 64.424 124.2 64.5225ZM124.3 51.0265C125.4 51.0265 126.4 50.4354 127.3 49.3518C126.5 50.4354 125.4 51.0265 124.3 51.0265C124 51.0265 123.7 51.0265 123.4 50.928C123.3 50.928 123.3 50.928 123.2 50.8295C123.3 50.8295 123.3 50.928 123.4 50.928C123.7 51.0265 124 51.0265 124.3 51.0265Z" fill="white"/>
<path d="M125.4 59.1043C125.6 59.3013 125.6 59.6954 124.8 61.0745C124.7 61.2716 124.6 61.4686 124.4 61.6656C124 62.1582 123.4 62.6507 122.8 62.9462C122.4 63.1433 122 63.3403 121.7 63.5373L121.5 63.6358L121.2 63.7343L119.8 64.3254L118.6 64.8179C116.3 65.7045 113.5 66.7882 111.1 67.6748L109.8 68.1673L106.3 69.448H106.2C106 69.448 87.7998 72.2063 81.6998 72.8958H81.5998C80.7998 72.9943 80.0998 73.0929 79.2998 73.0929C78.6998 73.1914 78.0998 72.9944 77.5998 72.6003C77.1998 72.1078 77.1998 71.4182 77.5998 70.1375C77.6998 69.9405 77.7998 69.645 77.8998 69.448C78.8998 67.9703 81.1998 67.8718 81.3998 67.8718C83.8998 67.5763 105.9 65.409 106.1 65.409C106.2 65.409 106.9 65.1135 108.1 64.7194L109.4 64.3254C111.6 63.5373 114.6 62.6507 117.4 61.6656L118.7 61.2716L121.6 60.2864L122.9 59.7939L123.9 59.3999C124 59.3999 124.1 59.3013 124.3 59.2028C124.7 59.0058 125.2 58.8088 125.4 59.1043ZM125.1 59.3999C125 59.3999 124.9 59.4984 124.8 59.4984C124.7 59.4984 124.6 59.5969 124.5 59.5969H124.4C124.3 59.5969 124.2 59.6954 124.2 59.6954H124.1L123 60.0894L121.7 60.582C121.3 60.6805 120.9 60.8775 120.5 61.0745C120 61.2716 119.5 61.3701 119 61.5671L117.8 61.9611C117.1 62.1582 116.4 62.4537 115.7 62.6507C115 62.8477 114.3 63.1433 113.6 63.3403C112.6 63.6358 111.6 64.0299 110.7 64.3254L109.8 64.6209L108.5 65.015C108 65.1135 107.6 65.3105 107.3 65.409C107.1 65.5075 106.9 65.5075 106.8 65.606C106.6 65.7045 106.5 65.7045 106.4 65.7045C106 65.7045 81.9998 68.1673 81.6998 68.1673C81.6998 68.1673 81.0998 68.1673 80.4998 68.3643C80.2998 68.4628 80.0998 68.4628 79.8998 68.5614C79.1998 68.8569 78.4998 69.3494 78.1998 70.1375C77.8998 71.2212 77.7998 71.9107 78.0998 72.2063C78.5998 72.6988 79.8998 72.6003 81.6998 72.4033C82.3998 72.3048 83.2998 72.2063 84.2998 72.1078C84.5998 72.1078 84.9998 72.0092 85.3998 71.9107C85.7998 71.8122 86.2998 71.8122 86.7998 71.7137C90.9998 71.1226 96.1998 70.4331 100.2 69.842C100.4 69.842 100.7 69.7435 100.9 69.7435C101.2 69.7435 101.6 69.645 101.9 69.5465C102.2 69.5465 102.5 69.448 102.8 69.448C103.1 69.3494 103.4 69.3494 103.7 69.3494C104 69.3494 104.2 69.2509 104.5 69.2509C104.9 69.2509 105.2 69.1524 105.4 69.1524C105.8 69.1524 106 69.0539 106.1 69.0539H106.2C106.3 69.0539 106.4 69.0539 106.5 68.9554C106.9 68.7584 107.6 68.5614 108.4 68.2658C108.7 68.1673 109 68.0688 109.4 67.8718C109.5 67.8718 109.5 67.8718 109.6 67.7733L110.8 67.2807C113.2 66.3941 116 65.3105 118.3 64.4239L119.5 63.9313C120.3 63.6358 121 63.3403 121.5 63.1433C121.7 63.0448 122 62.9462 122.2 62.8477C122.4 62.7492 122.6 62.5522 122.9 62.4537C123.1 62.3552 123.2 62.2567 123.3 62.1582C123.4 62.0596 123.6 61.9611 123.7 61.7641C123.8 61.6656 123.9 61.4686 124.1 61.3701C124.2 61.2716 124.3 61.0745 124.4 60.976C124.7 60.385 124.9 59.8924 125.1 59.3999Z" fill="white"/>
<path d="M125.1 59.3997C125 59.3997 124.9 59.4982 124.8 59.4982C124.8 59.3997 124.9 59.3997 125.1 59.3997ZM107.3 28.4673C114.2 30.0435 121.6 32.2107 128.2 35.5601C121.6 32.3092 114.2 30.0435 107.3 28.4673ZM123.7 61.6654C123.8 61.5669 123.9 61.3699 124.1 61.2714C124 61.3699 123.9 61.5669 123.7 61.6654ZM123.1 45.9037L122.5 46.0022H122.4L121.9 46.1007L119.2 46.6918L118.7 46.7903L119.1 46.6918L121.8 46.1007L122.3 46.0022H122.4L123.1 45.9037ZM122.9 62.355C122.7 62.4535 122.5 62.6506 122.2 62.7491C122.4 62.552 122.7 62.4535 122.9 62.355ZM122.7 57.922L121.4 58.3161L118.2 59.2027L116.9 59.5967C113.9 60.4833 110.7 61.3699 108.7 61.961C110.8 61.3699 113.9 60.4833 117 59.4982L118.3 59.1042L121.5 58.2176L122.7 57.922ZM122.5 52.4054L121.7 52.6024L120.7 52.7995H120.6L120.4 52.898L117.7 53.8831L116.4 54.3756L107.9 57.331L116.5 54.2771L117.8 53.7846L120.5 52.7995L120.7 52.701H120.8L121.8 52.5039L122.5 52.4054ZM122 49.5486C121.9 50.6322 121.9 51.7158 122.3 52.2084C121.9 51.7158 121.8 50.7307 122 49.5486ZM121.2 63.6357L119.7 64.3252L118.5 64.8178C116.2 65.7044 113.4 66.788 111 67.6746L109.7 68.1672L106.2 69.4478C106 69.4478 87.8 72.2061 81.7 72.8957H81.6C80.8 72.9942 80.1 73.0927 79.3 73.0927C78.7 73.1912 78.1 72.9942 77.6 72.6001C77.2 72.1076 77.2 71.418 77.6 70.1374V70.0389C77.2 71.221 77.2 72.0091 77.6 72.5016C78.1 72.8957 78.7 73.0927 79.3 72.9942C80.1 72.9942 80.8 72.8957 81.6 72.7972H81.7C87.8 72.1076 106 69.3493 106.2 69.3493H106.3L109.8 68.0686L111.1 67.5761C113.4 66.6895 116.3 65.6059 118.6 64.7193L119.8 64.2267L121.2 63.6357ZM120.3 61.1729C120.7 60.9759 121.2 60.8774 121.5 60.6803C121.1 60.8774 120.7 60.9759 120.3 61.1729ZM115.7 33.0973C116.9 33.4913 118 33.9839 119.1 34.4764C118 33.9839 116.9 33.5898 115.7 33.0973ZM115.5 62.7491C116.2 62.552 116.9 62.2565 117.6 62.0595C116.8 62.2565 116.2 62.552 115.5 62.7491ZM112.8 70.0389L113.1 70.3344C113 70.3344 112.9 70.2359 112.8 70.0389ZM110.5 64.4237C111.4 64.1282 112.4 63.8327 113.4 63.4386C112.3 63.7342 111.4 64.1282 110.5 64.4237Z" fill="white"/>
<path d="M109.4 67.7732C109.1 67.8717 108.7 68.0687 108.4 68.1673C108.7 67.9702 109 67.8717 109.4 67.7732ZM107.5 28.9599C107.5 29.0584 107.5 29.0584 107.5 28.9599C107.4 28.7629 107.2 28.5659 107 28.3689C107.2 28.6644 107.4 28.8614 107.5 28.9599ZM106.5 68.8568C106.4 68.9553 106.3 68.9553 106.2 68.9553C106.3 68.9553 106.4 68.8568 106.5 68.8568ZM106.2 65.7045C106 65.7045 99.8998 66.2955 93.7998 66.9851C87.6998 67.5762 81.5998 68.1673 81.4998 68.1673C81.7998 68.1673 105.8 65.7045 106.2 65.7045ZM104.9 46.0023C104.4 45.3127 103.8 44.7217 103.2 44.1306C103.8 44.6232 104.4 45.3127 104.9 46.0023ZM104.6 62.9462C104.2 62.9462 103.8 63.0447 103.4 63.0447C103.8 62.9462 104.2 62.9462 104.6 62.9462ZM103 63.0447C102.7 63.0447 102.3 63.1432 101.9 63.1432C102.2 63.1432 102.6 63.1432 103 63.0447ZM101.4 63.2417C101 63.2417 100.6 63.3402 100.1 63.3402C100.6 63.3402 101 63.3402 101.4 63.2417ZM90.0998 73.1913C89.2998 73.2898 88.5998 73.3883 87.7998 73.4868C88.4998 73.3883 89.2998 73.2898 90.0998 73.1913ZM86.3998 27.0882V27.1867C86.3998 27.1867 86.3998 27.2853 86.2998 27.2853C85.6998 27.8763 79.6998 27.8763 77.8998 27.8763H77.3998C77.2998 27.8763 65.2998 25.6106 63.4998 24.724C63.3998 24.6255 63.2998 24.6255 63.2998 24.5269C63.2998 24.4284 63.2998 24.3299 63.3998 24.2314C63.8998 23.7389 69.1998 23.5418 71.4998 23.6404H72.3998C72.9998 23.7389 76.4998 24.4284 79.7998 25.0195C80.9998 25.2165 81.8998 25.4135 82.6998 25.6106C82.8998 25.7091 83.1998 25.7091 83.3998 25.8076C85.2998 26.2016 85.9998 26.4972 86.2998 26.5957H86.3998V27.0882ZM77.3998 27.4823C78.7998 27.4823 84.4998 27.3838 85.7998 27.0882C83.9998 26.4972 73.5998 24.5269 72.1998 24.3299C69.4998 24.1329 66.6998 24.2314 63.9998 24.6255C65.3998 25.0195 69.8998 26.1031 73.2998 26.7927C73.7998 26.8912 74.2998 26.9897 74.6998 27.0882C75.2998 27.1867 75.7998 27.2853 76.1998 27.3838H76.4998C76.6998 27.3838 76.7998 27.4823 76.9998 27.4823H77.3998Z" fill="white"/>
<path d="M86.3004 26.8912C86.0004 26.6942 85.2004 26.4972 83.4004 26.1032C85.3004 26.4972 86.0004 26.7927 86.3004 26.8912ZM84.4004 33.393C80.1004 31.6198 75.7004 30.0436 71.2004 28.6644C71.1004 28.6644 71.1004 28.6644 71.0004 28.5659C71.1004 28.5659 71.1004 28.5659 71.2004 28.6644C75.6004 30.0436 80.0004 31.6198 84.4004 33.393ZM87.0004 65.3105C86.3004 65.409 85.6004 65.5075 84.9004 65.5075C85.6004 65.409 86.3004 65.409 87.0004 65.3105ZM79.9004 65.606C79.5004 65.606 79.1004 65.7045 78.8004 65.7045C79.2004 65.606 79.6004 65.606 79.9004 65.606ZM79.9004 66C81.0004 65.9015 82.4004 65.7045 84.0004 65.606C82.4004 65.803 81.0004 65.9015 79.9004 66ZM79.7004 25.2166C80.9004 25.4136 81.8004 25.6106 82.6004 25.8076C81.8004 25.7091 80.9004 25.5121 79.7004 25.2166ZM78.1004 50.8294C77.9004 50.0413 77.6004 49.2532 77.2004 48.5636C76.7004 47.677 76.1004 46.8889 75.4004 46.1009C74.0004 44.6232 72.5004 43.244 70.8004 42.0619C67.4004 39.6976 63.9004 37.7274 60.2004 35.9542C56.5004 34.181 52.7004 32.5064 48.9004 30.9302C45.1004 29.4525 41.3004 27.9749 37.4004 26.6942C38.4004 26.9898 39.5004 27.3838 40.5004 27.7778C43.4004 28.7629 46.2004 29.8466 49.0004 30.9302C52.8004 32.4078 56.6004 34.0825 60.3004 35.9542C64.0004 37.7274 67.6004 39.7962 70.9004 42.0619C72.6004 43.244 74.1004 44.6232 75.5004 46.1009C76.2004 46.8889 76.8004 47.677 77.3004 48.5636C77.7004 49.2532 77.9004 50.0413 78.1004 50.8294Z" fill="white"/>
<path d="M77.8002 50.2383C77.6002 49.6472 77.3002 49.1547 77.0002 48.6621C76.5002 47.8741 75.8002 47.086 75.1002 46.2979C73.7002 44.9187 72.1002 43.5396 70.4002 42.456C68.8002 41.2738 67.0002 40.1902 65.2002 39.2051L62.2002 37.4319C63.2002 38.023 64.2002 38.5155 65.2002 39.1066C67.0002 40.0917 68.7002 41.1753 70.4002 42.3574C72.1002 43.5396 73.6002 44.8202 75.1002 46.1994C75.8002 46.8889 76.4002 47.677 77.0002 48.5636C77.4002 49.1547 77.6002 49.6472 77.8002 50.2383ZM76.6002 27.3838C76.8002 27.3838 76.9002 27.4823 77.1002 27.4823C77.0002 27.3838 76.8002 27.3838 76.6002 27.3838ZM76.6002 50.6324V51.0264C76.5002 50.9279 76.6002 50.8294 76.6002 50.6324ZM75.1002 66.7881C75.5002 66.6896 75.8002 66.6896 76.2002 66.5911C75.9002 66.5911 75.5002 66.6896 75.1002 66.7881ZM73.4002 66.5911L71.9002 66.8866C72.5002 66.7881 73.0002 66.6896 73.4002 66.5911ZM72.2002 57.0356C72.1002 57.2326 72.1002 57.3311 72.0002 57.4296C70.7002 59.4983 68.4002 60.582 66.7002 59.6954C68.3002 60.4834 70.7002 59.4983 72.0002 57.4296L72.2002 57.0356ZM71.5002 23.8374C69.2002 23.7389 63.9002 23.9359 63.4002 24.4285C63.7002 24.1329 66.0002 23.9359 68.1002 23.8374H68.5002C69.5002 23.7389 70.5002 23.7389 71.5002 23.8374Z" fill="white"/>
<path d="M68.8002 60.7788C69.3002 60.7788 69.9002 60.6803 70.4002 60.5818C69.9002 60.6803 69.4002 60.7788 68.8002 60.7788C67.2002 60.9759 65.9002 60.9759 65.4002 60.4833C65.0002 60.1878 64.9002 59.3997 64.9002 58.3161C64.9002 59.4982 65.1002 60.1878 65.4002 60.4833C66.0002 61.0744 67.3002 60.9759 68.8002 60.7788ZM67.8002 67.7731C67.1002 67.9701 66.4002 68.0687 65.7002 68.1672C66.4002 68.0687 67.1002 67.8716 67.8002 67.7731ZM66.0002 53.5876L65.8002 53.8831C65.7002 53.9816 65.6002 54.1786 65.6002 54.3756C65.7002 54.1786 65.7002 54.0801 65.8002 53.8831C65.9002 53.7846 66.0002 53.6861 66.0002 53.5876ZM65.9002 29.4524C65.9002 29.5509 65.9002 29.6494 65.8002 29.6494C65.8002 29.6494 65.7002 29.7479 65.6002 29.7479C64.1002 30.339 56.4002 30.733 55.3002 30.733H55.2002C54.8002 30.733 50.7002 29.6494 47.3002 28.6643C39.9002 26.5956 39.8002 26.3001 39.7002 26.103C39.7002 26.0045 39.7002 25.906 39.8002 25.906H39.9002C41.1002 25.4135 50.8002 25.512 52.1002 25.709C52.6002 25.8075 56.1002 26.5956 59.3002 27.3837C65.9002 28.9598 65.9002 29.1569 65.9002 29.4524ZM65.4002 29.3539C63.7002 28.5658 53.3002 26.103 52.2002 25.906C48.3002 25.709 44.5002 25.709 40.6002 26.0045C41.4002 26.3001 43.3002 26.8911 45.5002 27.5807C48.3002 28.3688 51.6002 29.2554 53.5002 29.7479C54.2002 29.945 54.7002 30.0435 55.1002 30.142H55.3002C56.6002 30.339 64.0002 29.8464 65.4002 29.3539ZM65.3002 58.0205C65.3002 58.1191 65.3002 58.1191 65.4002 58.2176C65.3002 58.1191 65.3002 58.0205 65.3002 58.0205C65.2002 57.8235 65.2002 57.6265 65.2002 57.4295C65.2002 57.528 65.2002 57.8235 65.3002 58.0205ZM65.3002 55.4593C65.3002 55.5578 65.3002 55.6563 65.2002 55.6563C65.1002 56.2474 65.0002 56.8384 65.1002 57.331C65.0002 56.7399 65.0002 56.1488 65.2002 55.6563C65.2002 55.5578 65.2002 55.4593 65.3002 55.4593ZM65.2002 52.0114C65.2002 51.8144 65.1002 51.7159 65.1002 51.5188C65.2002 51.6173 65.2002 51.8144 65.2002 52.0114ZM64.6002 68.3642C64.3002 68.4627 63.9002 68.4627 63.6002 68.5612C63.9002 68.5612 64.2002 68.4627 64.6002 68.3642ZM65.1002 74.0778C64.8002 74.1763 64.4002 74.1763 64.0002 74.2748C64.4002 74.1763 64.7002 74.0778 65.1002 74.0778ZM64.4002 53.7846C64.0002 54.6712 63.8002 55.5578 63.7002 56.5429C63.8002 55.6563 64.1002 54.6712 64.4002 53.7846ZM64.2002 48.9575C64.4002 49.2531 64.5002 49.4501 64.6002 49.7456C64.5002 49.5486 64.4002 49.2531 64.2002 48.9575ZM63.6002 59.2027C63.6002 59.5967 63.7002 59.9908 63.8002 60.2863C63.7002 59.9908 63.7002 59.5967 63.6002 59.2027ZM63.4002 51.4203C63.3002 51.4203 63.2002 51.3218 63.0002 51.3218C63.2002 51.3218 63.4002 51.3218 63.4002 51.4203ZM54.6002 22.7537C60.0002 22.4581 65.2002 22.2611 69.3002 22.1626C65.2002 22.2611 60.0002 22.5566 54.6002 22.7537ZM63.3002 24.3298C63.2002 24.4283 63.2002 24.5269 63.2002 24.6254C63.3002 24.5269 63.3002 24.4283 63.3002 24.3298ZM61.9002 52.5039C61.4002 52.5039 60.7002 52.5039 59.8002 52.6024C60.6002 52.5039 61.3002 52.5039 61.9002 52.5039ZM62.6002 52.6024C62.5002 52.898 62.5002 53.095 62.4002 53.3905C62.4002 53.489 62.3002 53.5876 62.3002 53.6861L62.4002 53.292C62.4002 53.095 62.5002 52.898 62.6002 52.6024ZM61.7002 45.6082C62.2002 46.1007 62.7002 46.6918 63.1002 47.1844C62.6002 46.6918 62.2002 46.1007 61.7002 45.6082Z" fill="white"/>
<path d="M55.3998 30.6345C56.3998 30.6345 64.0998 30.2405 65.6998 29.6494C64.2998 30.339 56.3998 30.733 55.3998 30.6345C54.8998 30.6345 50.8998 29.5509 47.3998 28.5658C43.6998 27.4822 41.7998 26.8911 40.7998 26.5956C39.7998 26.2015 39.7998 26.103 39.7998 26.103C39.7998 26.0045 39.7998 25.906 39.8998 25.906C39.7998 26.0045 39.7998 26.103 39.7998 26.103C39.7998 26.3 39.9998 26.4971 47.3998 28.6643C50.8998 29.5509 54.8998 30.6345 55.3998 30.6345ZM59.1998 63.6357C60.7998 63.3401 62.3998 63.1431 63.9998 62.8476C62.3998 63.0446 60.7998 63.3401 59.1998 63.6357ZM59.9998 54.8682C60.1998 55.5578 60.1998 56.1488 60.0998 56.8384C60.1998 56.1488 60.0998 55.4593 59.9998 54.8682ZM59.7998 57.8235C59.8998 57.528 59.9998 57.2325 59.9998 56.8384C59.9998 57.2325 59.9998 57.528 59.7998 57.8235ZM59.7998 59.0056C59.7998 58.9071 59.8998 58.8086 59.8998 58.8086C59.8998 58.8086 59.8998 58.9071 59.7998 59.0056ZM59.7998 54.3756C59.5998 53.9816 59.2998 53.5876 58.9998 53.1935C58.8998 53.095 58.6998 52.9965 58.4998 52.898C58.2998 52.7995 58.1998 52.7995 57.9998 52.701C56.7998 52.7995 55.6998 53.1935 54.7998 53.7846C55.7998 53.1935 56.8998 52.7995 57.9998 52.701C58.1998 52.701 58.2998 52.7995 58.4998 52.898C58.6998 52.9965 58.7998 53.095 58.9998 53.292C59.3998 53.489 59.6998 53.8831 59.7998 54.3756ZM59.2998 59.0056V59.1042C58.3998 60.6803 56.8998 61.764 55.4998 62.0595C56.8998 61.8625 58.2998 60.7788 59.1998 59.1042L59.2998 59.0056Z" fill="white"/>
<path d="M55.8997 63.0448C54.3997 63.1433 52.8997 63.1433 52.1997 62.3552C51.6997 61.6657 51.4997 60.8776 51.6997 60.0895C51.5997 60.8776 51.7997 61.6657 52.1997 62.3552C52.8997 63.0448 54.3997 63.0448 55.8997 63.0448ZM58.4997 60.7791C58.8997 60.385 59.1997 59.991 59.4997 59.4984C59.1997 59.991 58.8997 60.4835 58.4997 60.7791ZM57.8997 69.9406C58.2997 69.8421 58.6997 69.8421 59.1997 69.7436C58.6997 69.8421 58.2997 69.9406 57.8997 69.9406Z" fill="white"/>
<path d="M58.4998 60.779C57.4998 61.7641 56.1998 62.3551 54.9998 62.3551C54.5998 62.3551 54.2998 62.3551 53.8998 62.1581C54.1998 62.2566 54.5998 62.3551 54.9998 62.3551C56.1998 62.4537 57.3998 61.8626 58.4998 60.779ZM55.3998 52.0115C55.2998 52.11 55.1998 52.11 54.9998 52.2085C55.0998 52.11 55.1998 52.0115 55.3998 52.0115C52.5998 40.7813 15.6998 29.354 11.2998 27.9749C15.6998 29.2555 52.4998 40.7813 55.3998 52.0115ZM54.5998 64.3254H54.7998C53.4998 64.5224 52.3998 64.7194 51.3998 64.8179C52.2998 64.7194 53.3998 64.5224 54.5998 64.3254ZM54.8998 52.2085C53.9998 52.6026 53.1998 53.2921 52.4998 53.9817C53.1998 53.1936 53.9998 52.6026 54.8998 52.2085Z" fill="white"/>
<path d="M51.8 45.2142C52.2 45.5098 52.5 45.9038 52.9 46.1993C52.6 45.8053 52.2 45.5098 51.8 45.2142ZM51.3 70.236C51.6 70.236 52 70.3345 52.3 70.3345C52 70.3345 51.7 70.236 51.3 70.236ZM51.6 59.8924V59.4983C51.7 59.5968 51.7 59.7938 51.6 59.8924ZM51.3 70.236C50.9 70.1375 50.5 70.039 50.1 69.842C50.5 69.9405 50.9 70.039 51.3 70.236ZM50.3 60.1879C50.2 61.173 50.4 62.1581 51 62.9462C50.4 62.0596 50.2 61.0745 50.3 60.1879ZM50.3 60.0894H49C48.6 60.0894 48.1 60.0894 47.7 59.9909H47.6C47.5 59.9909 47.3 59.9909 47.2 59.8924C47.4 59.8924 47.6 59.9909 47.9 59.9909C48.3 60.0894 48.8 60.0894 49.2 60.0894H50.3ZM48.7 42.7515C49.2 43.047 49.6 43.3425 50 43.7366C49.6 43.441 49.2 43.1455 48.7 42.7515ZM49.3 54.8683C49.2 54.9668 49.1 54.9668 49 55.0653C49.1 54.9668 49.2 54.8683 49.3 54.8683ZM46.7 68.4628C47.8 68.9554 49 69.3494 50.1 69.7434C49 69.4479 47.8 68.9554 46.7 68.4628L45.2 67.8717C44.1 67.3792 43.1 66.9851 42.5 66.5911C43.2 66.8866 44.1 67.3792 45.2 67.8717L46.7 68.4628ZM46.6 41.3723C47.3 41.8649 48 42.2589 48.7 42.7515C48.1 42.3574 47.4 41.8649 46.6 41.3723Z" fill="white"/>
<path d="M47.1002 59.8922C47.3002 59.8922 47.4002 59.9907 47.5002 59.9907C47.4002 59.9907 47.2002 59.9908 47.1002 59.8922ZM46.2002 65.8029C46.4002 65.9014 46.6002 65.9014 46.8002 65.9999C46.6002 65.9999 46.4002 65.9014 46.2002 65.8029L46.0002 65.7044C45.3002 65.5074 44.9002 65.2118 44.5002 65.0148C44.1002 64.9163 43.8002 64.7193 43.5002 64.5222C43.8002 64.7193 44.2002 64.9163 44.5002 65.0148C44.9002 65.2118 45.4002 65.4088 46.0002 65.7044L46.2002 65.8029ZM45.0002 75.4569C44.9002 75.3584 44.7002 75.2599 44.6002 75.2599C44.4002 75.1614 44.1002 74.9644 43.8002 74.8659C44.0002 74.9644 44.3002 75.1614 44.5002 75.2599C44.7002 75.2599 44.8002 75.3584 45.0002 75.4569ZM40.7002 72.2061C40.2002 72.2061 39.6002 72.1076 39.2002 72.0091C39.7002 72.2061 40.2002 72.3046 40.7002 72.2061ZM38.7002 71.7135C38.8002 71.812 39.0002 71.9106 39.2002 71.9106C39.0002 71.9106 38.9002 71.812 38.7002 71.7135ZM32.7002 34.3779C35.9002 35.7571 39.0002 37.2347 42.0002 38.8109C39.0002 37.1362 35.8002 35.6586 32.7002 34.3779ZM35.9002 83.7319C35.9002 83.9289 35.8002 84.1259 35.8002 84.2244C35.7002 84.717 35.5002 85.2095 35.3002 85.8006C34.9002 87.1797 34.1002 88.4604 33.0002 89.544C34.1002 88.4604 34.8002 87.1797 35.3002 85.8006C35.5002 85.308 35.6002 84.8155 35.8002 84.2244C35.8002 84.0274 35.9002 83.9289 35.9002 83.7319ZM35.6002 68.1672C36.2002 68.7582 36.7002 69.3493 37.2002 70.0389C36.7002 69.3493 36.2002 68.6597 35.6002 68.1672C35.5002 67.9701 35.3002 67.4776 35.1002 66.985C34.7002 66.0984 34.2002 64.7193 33.6002 63.1431C34.3002 64.6208 34.8002 65.9999 35.1002 66.985C35.4002 67.4776 35.5002 67.9701 35.6002 68.1672Z" fill="white"/>
<path d="M34.4 84.52C34.2 85.0125 34.1 85.5051 33.9 85.9976C34.1 85.5051 34.3 85.0125 34.4 84.52ZM32.7 60.9759C32.9 61.2714 33 61.6654 33.1 61.961C33 61.6654 32.9 61.3699 32.7 60.9759ZM32.8 74.3733C32.9 75.7525 32.8 77.1316 32.7 78.5108C32.6 79.2004 32.4 79.9885 32.2 80.678C31.9 81.6631 31.4 82.4512 30.9 82.9438C30.7 83.1408 30.5 83.2393 30.3 83.4363C30.2 83.5348 30 83.6334 29.9 83.6334C29.7 83.6334 29.5 83.6334 29.4 83.7319C29.2 83.7319 29.1 83.8304 28.9 83.8304C28.3 83.8304 27.6 83.6334 27 83.1408C26.8 83.0423 26.6 82.8453 26.5 82.7468C26.4 82.6482 26.3 82.5497 26.2 82.5497C24.3 80.7765 22.5 77.1316 21.6 72.7972C20.7 68.5612 20.9 64.6208 22 62.2565C22.3 61.5669 22.7 60.9759 23.1 60.5818C23.5 60.1878 24 59.8922 24.6 59.7937C25 59.6952 25.5 59.7937 26 59.8922C26.5 59.9908 26.9 60.2863 27.4 60.5818C27.7 60.7788 28 61.0744 28.3 61.3699C28.4 61.5669 28.6 61.6654 28.7 61.8625C28.8 61.961 28.9 62.158 29 62.2565L29.1 62.355C29.3 62.6506 29.5 62.8476 29.6 63.1431C29.6 63.1431 29.7 63.2416 29.7 63.3401C29.8 63.4386 29.8 63.5371 29.9 63.7342C30.4 64.5223 30.8 65.4089 31.1 66.2955L31.7 68.0686C32 68.9552 32.2 69.8418 32.4 70.8269C32.5 71.221 32.6 71.615 32.6 72.1076V72.2061C32.7 72.7972 32.8 73.5853 32.8 74.3733ZM32.4 77.6242C32.6 75.3584 32.4 72.9942 32 70.7284C31.6 68.5612 30.9 66.4925 29.9 64.6208C29.5 63.8327 29.1 63.1431 28.6 62.4535C27.5 60.9759 26.2 60.0893 25.1 60.0893H24.6C24.4 60.0893 24.1 60.1878 23.9 60.3848C23.5 60.5818 23.1 60.9759 22.8 61.5669C21.5 63.7342 21.1 67.9701 22 72.6987C23.3 79.1019 26.6 83.8304 29.3 83.3378C29.5 83.3378 29.6 83.2393 29.8 83.1408C29.9 83.0423 30.1 83.0423 30.2 82.9438C30.3 82.9438 30.3 82.8453 30.4 82.8453C30.7 82.6482 31 82.2542 31.2 81.8602C31.5 81.3676 31.8 80.7765 32 80.087C32.2 79.2989 32.3 78.4123 32.4 77.6242Z" fill="white"/>
<path d="M32.3 70.6301C32.4 71.0241 32.5 71.4181 32.5 71.9107C32.5 71.5166 32.4 71.0241 32.3 70.6301C32.1 69.7435 31.9 68.8568 31.6 67.8717C31.8 68.4628 32 69.0539 32.1 69.6449C32.2 70.039 32.3 70.3345 32.3 70.6301ZM31.9 70.7286C32.4 72.9943 32.5 75.3586 32.3 77.6243C32.2 78.4124 32.1 79.299 31.9 80.0871C31.7 80.7767 31.4 81.3677 31.1 81.8603C31.4 81.3677 31.6 80.7767 31.8 80.0871C32 79.299 32.2 78.5109 32.2 77.6243C32.5 75.3586 32.4 72.9943 31.9 70.7286C31.4 68.6598 30.7 66.5911 29.8 64.6209C29.4 63.8328 29 63.1432 28.5 62.4536C27.4 60.976 26.1 60.0894 25 60.0894H25.1C26.3 60.0894 27.5 60.976 28.6 62.4536C29.1 63.1432 29.5 63.8328 29.9 64.6209C30.8 66.4926 31.5 68.5613 31.9 70.7286ZM31 66.1971L31.6 67.9703C31.5 67.3792 31.2 66.7881 31 66.1971ZM30.7 57.0355C30.8 57.2326 31 57.5281 31.1 57.7251C30.9 57.5281 30.8 57.3311 30.7 57.0355C30.5 56.6415 30.2 56.2475 30 55.8534C30.2 56.2475 30.4 56.6415 30.7 57.0355ZM30.8 82.9439C30.6 83.1409 30.4 83.2394 30.2 83.4365C30.5 83.2394 30.7 83.0424 30.8 82.9439ZM29.8 63.6358C29.7 63.5373 29.7 63.4388 29.6 63.2417C29.7 63.4388 29.8 63.5373 29.8 63.6358ZM29.3 32.9004C29.9 33.0974 30.4 33.3929 31 33.59C30.4 33.3929 29.8 33.1959 29.3 32.9004Z" fill="white"/>
<path d="M30.2998 83.3379C30.1998 83.4365 29.9998 83.535 29.8998 83.535C29.9998 83.535 30.0998 83.4365 30.2998 83.3379ZM28.9998 62.2566C29.1998 62.5522 29.3998 62.7492 29.4998 63.0447C29.2998 62.8477 29.1998 62.5522 28.9998 62.2566ZM27.1998 52.2085C27.5998 52.6026 27.9998 53.0951 28.2998 53.4892C27.9998 52.9966 27.5998 52.6026 27.1998 52.2085ZM24.7998 60.0894H24.5998C24.3998 60.0894 24.0998 60.1879 23.8998 60.3849C24.0998 60.1879 24.3998 60.1879 24.5998 60.0894C24.6998 60.0894 24.6998 59.9909 24.7998 60.0894ZM26.1998 53.0951C25.2998 52.6026 24.1998 52.5041 23.0998 52.6026C20.8998 52.9966 19.2998 55.0653 18.2998 58.3162C19.2998 55.0653 20.8998 53.0951 23.0998 52.6026C24.0998 52.4055 25.1998 52.6026 26.1998 53.0951ZM22.7998 26.5957C21.9998 26.6942 21.1998 26.7927 20.4998 26.7927C21.2998 26.6942 22.0998 26.6942 22.7998 26.5957Z" fill="white"/>
<path d="M22.9996 53.9816C22.7996 54.0801 22.4996 54.1786 22.2996 54.2771C22.5996 54.0801 22.7996 53.9816 22.9996 53.9816ZM22.3996 54.2771C20.9996 55.0652 19.8996 57.0354 19.2996 59.8923C19.1996 60.1878 19.1996 60.4833 19.0996 60.7789C18.9996 61.4684 18.8996 62.158 18.7996 62.9461C18.6996 64.8178 18.6996 66.591 18.7996 68.4627C18.5996 66.6895 18.5996 64.8178 18.7996 62.9461C18.8996 62.158 18.9996 61.4684 19.0996 60.7789C19.0996 60.4833 19.1996 60.1878 19.1996 59.8923C19.8996 57.0354 20.9996 55.0652 22.3996 54.2771ZM26.1996 13.4937C23.8996 14.8728 21.6996 16.3505 19.5996 18.1237L16.5996 20.7835C17.5996 19.8969 18.4996 19.0103 19.5996 18.1237C21.6996 16.449 23.8996 14.8728 26.1996 13.4937ZM18.8996 69.2508C18.8996 69.5463 18.9996 69.8419 18.9996 70.2359C18.9996 69.9404 18.9996 69.6448 18.8996 69.2508ZM9.29961 52.2084C9.39961 52.4054 9.39961 52.5039 9.49961 52.701C9.39961 52.5039 9.29961 52.4054 9.29961 52.2084ZM7.69961 54.9667C8.69961 55.5578 9.59961 56.1489 10.5996 56.7399C9.59961 56.2474 8.69961 55.6563 7.69961 54.9667ZM4.69961 53.095C4.99961 53.292 5.29961 53.4891 5.69961 53.6861C5.29961 53.5876 4.99961 53.3905 4.69961 53.095C4.69961 53.1935 4.69961 53.1935 4.69961 53.095ZM4.79961 53.6861C5.29961 56.5429 6.09961 59.3997 7.29961 62.0595C6.09961 59.3997 5.29961 56.6414 4.79961 53.6861Z" fill="white"/>
</svg>
