<svg width="227" height="77" viewBox="0 0 227 77" fill="none" xmlns="http://www.w3.org/2000/svg">
<path d="M95.8852 40.7275L95.8305 40.6728C95.8045 40.6434 95.781 40.612 95.76 40.579C95.4626 39.9199 95.3857 39.1826 95.541 38.4765V38.2577H95.4393L94.4848 38.5625L93.4912 38.8751L92.2707 39.2581L91.1989 39.602L84.2751 41.7904L83.2424 42.1108H83.1641L72.4146 43.0878L61.7042 44.0491C60.7732 44.1351 59.8422 44.2132 58.9112 44.307C58.8404 45.0041 58.6049 45.6745 58.224 46.2628C57.8432 46.8512 57.3279 47.3408 56.7206 47.6912L58.1601 47.4255H58.2071L82.9842 45.0261L83.3519 44.8932L84.3455 44.5415L91.0346 42.1968L92.0673 41.8295L94.2032 41.0479L94.3596 40.9932H94.4457L95.228 40.8525L95.8852 40.7275ZM96.4016 35.491L95.8852 35.5769H95.8226L95.4314 35.6707L93.3035 36.1709L92.9514 36.2569L92.2394 36.4288L91.77 36.5461L84.6115 38.2577L83.5084 38.5234L83.2267 38.5938H83.1407L61.2348 40.4305L60.0065 40.5868L59.6075 40.6337C59.4637 41.0962 59.3436 41.5658 59.2476 42.0405C59.1473 42.5153 59.0741 42.9954 59.0285 43.4786C59.0248 43.6152 59.009 43.7511 58.9816 43.885V44.0179C59.8813 43.9163 60.781 43.8303 61.6885 43.7678L72.3911 42.7595L75.9587 42.4391L83.0859 41.8217H83.2111L84.2438 41.5012L91.1676 39.3675L92.2551 39.0393L93.366 38.6954L94.3675 38.3906L95.3063 38.0936H95.5253C95.5333 37.9987 95.549 37.9046 95.5723 37.8122C95.7504 37.0068 96.029 36.227 96.4016 35.491ZM46.3309 49.5592C47.5827 49.356 48.8736 49.1293 50.1175 48.9105L52.6602 48.4181H52.4176C51.7185 48.475 51.0248 48.2562 50.4852 47.8085C50.301 47.6265 50.1524 47.4118 50.0471 47.1754L49.9532 46.9018C49.8713 46.6321 49.8188 46.3544 49.7967 46.0734C49.7842 45.8782 49.7842 45.6824 49.7967 45.4872L48.8892 45.6044C48.8121 45.9858 48.7102 46.3618 48.5841 46.7299C48.3303 47.5107 47.8992 48.2222 47.3245 48.8089C47.0859 49.0367 46.8236 49.2384 46.5422 49.4107L46.3309 49.5201V49.5592ZM40.4554 46.3C40.4477 46.3937 40.4477 46.4878 40.4554 46.5814C40.4631 46.6095 40.4631 46.6392 40.4554 46.6674H40.5728C40.5102 46.5423 40.4789 46.4173 40.4554 46.2922V46.3ZM11.0468 20.9382L13.0652 21.6025L13.5346 21.7588C16.0773 22.6185 19.4023 23.7987 22.9229 25.2368L24.2529 25.7526L25.5907 26.3232C28.0629 27.3861 30.5508 28.5585 32.8822 29.809C34.1497 30.4889 35.3701 31.1923 36.5124 31.9192C37.0835 32.2865 37.639 32.6461 38.1631 33.0212C38.5152 33.2713 38.8594 33.5136 39.188 33.7637C39.6809 34.1467 40.1503 34.5453 40.5884 34.9048C40.8857 35.1627 41.1596 35.4206 41.4256 35.6864C42.7481 36.8594 43.736 38.3614 44.289 40.0397C44.9298 39.9045 45.5822 39.8312 46.237 39.8208H46.5265C47.4773 39.7562 48.4313 39.7562 49.3821 39.8208C49.4806 39.8314 49.5762 39.8606 49.6637 39.9068C49.7254 39.9451 49.7808 39.9925 49.828 40.0475C49.9244 40.1508 49.9946 40.2757 50.0328 40.4117C50.0709 40.5476 50.0758 40.6908 50.0471 40.8291L51.025 40.704C50.8857 39.7786 50.5611 38.8908 50.0706 38.0936C49.5072 37.1563 48.8262 36.2948 48.0443 35.53C47.6531 35.1393 47.2619 34.7485 46.8473 34.3968C46.4326 34.0451 46.1666 33.795 45.8146 33.5058C45.6503 33.3651 45.4781 33.2244 45.3139 33.0994C44.9774 32.8258 44.641 32.5679 44.2968 32.3178C43.9526 32.0677 43.3971 31.6691 42.9433 31.3643C41.0964 30.139 39.1875 29.0094 37.2243 27.9801C35.2656 26.932 33.2607 25.9723 31.2158 25.1039C33.2734 25.9324 35.3075 26.8625 37.2947 27.8629C39.2816 28.8649 41.2141 29.9711 43.0841 31.1767C43.5536 31.4737 44.023 31.7863 44.4767 32.1068C44.9305 32.4272 45.3764 32.7633 45.8067 33.1072C46.6748 33.8023 47.5003 34.5487 48.279 35.3425C48.6685 35.7433 49.0318 36.1688 49.3664 36.6164C49.6971 37.0623 49.9977 37.5297 50.2662 38.0154C50.3835 38.2264 50.4696 38.4531 50.5713 38.6719L50.6182 38.7735C50.7248 39.0285 50.8162 39.2894 50.892 39.5551C50.9373 39.6897 50.9688 39.8284 50.9859 39.9693C50.9991 40.1059 51.02 40.2416 51.0485 40.3758V40.7196L51.338 40.3758C51.4397 40.2663 51.5414 40.1647 51.6509 40.0631C52.9074 39.0629 54.4726 38.5297 56.079 38.5547H58.2071C58.6383 38.5139 59.0734 38.5536 59.4901 38.6719C59.6218 38.7617 59.7292 38.8825 59.8031 39.0236C59.8677 39.1495 59.9025 39.2886 59.9048 39.4301C59.9199 39.5232 59.9199 39.6183 59.9048 39.7114L61.0783 39.5629C61.0783 39.4066 60.9922 39.2581 60.9453 39.1096C60.7932 38.6573 60.5884 38.2245 60.3351 37.82C59.9101 37.1532 59.42 36.5301 58.872 35.9599C57.755 34.7856 56.5261 33.7229 55.2028 32.7867C53.9041 31.8593 52.5611 30.9969 51.1737 30.1997C50.3913 29.7308 49.609 29.2775 48.8266 28.8476C48.2399 28.5037 47.6453 28.1833 47.0429 27.8707C44.1873 26.417 41.2613 25.0805 38.2883 23.83C35.3154 22.5795 32.2955 21.368 29.26 20.2817C32.3033 21.2821 35.2919 22.431 38.257 23.6424C41.2221 24.8538 44.1794 26.1669 47.0663 27.5971C49.9683 28.9988 52.7521 30.6323 55.3906 32.4819C56.6941 33.4217 57.9022 34.4872 58.9972 35.6629C59.5381 36.2587 60.0129 36.9112 60.4133 37.609C60.7348 38.1728 60.9621 38.7853 61.0861 39.4222H61.1409L82.9294 37.6012C82.697 36.9135 82.3477 36.2711 81.8967 35.702C81.3513 34.988 80.7325 34.3331 80.0504 33.7481C78.6701 32.5732 77.1853 31.5267 75.6144 30.6218C74.0497 29.6995 72.485 28.8555 70.8186 28.0661C69.1522 27.2767 67.5171 26.5029 65.8428 25.8073C62.4865 24.4005 59.0676 23.1266 55.6175 21.9386C53.0279 21.0554 50.4461 20.2113 47.7939 19.4376C46.9255 19.1797 46.0493 18.9296 45.173 18.656C46.9803 19.1406 48.7797 19.6642 50.5791 20.2191C52.2116 20.7402 53.8389 21.2612 55.461 21.7823H55.5158L55.6722 21.837C59.1407 22.9624 62.5726 24.2208 65.968 25.6119C67.2354 26.133 68.4924 26.6749 69.7389 27.2376L70.9907 27.816C72.6337 28.5975 74.2531 29.4494 75.8178 30.3873C77.411 31.3013 78.9122 32.3665 80.3007 33.5683C80.465 33.7168 80.6293 33.8731 80.7858 34.0372C81.2554 34.5051 81.6871 35.0095 82.0767 35.5457C82.4117 36.0262 82.6752 36.5527 82.859 37.1088C82.9142 37.2519 82.9612 37.3981 82.9998 37.5465L83.7353 37.3745L84.8853 37.101L91.5823 35.5379L92.1612 35.3972H92.2786L92.6697 35.3112L92.9905 35.233L93.4364 35.1236L95.5332 34.6156C95.3486 34.212 95.1341 33.8228 94.8916 33.4511C94.7117 33.1697 94.5161 32.8883 94.3127 32.6695C94.1093 32.4507 93.7337 31.9817 93.4208 31.6613C92.9296 31.1573 92.407 30.6848 91.8561 30.2466C91.3111 29.8012 90.7417 29.3863 90.1506 29.004C88.9701 28.1974 87.7364 27.4715 86.4579 26.8312C85.1983 26.1903 83.8839 25.5885 82.5461 25.057C79.9043 23.9893 77.2064 23.0657 74.4644 22.2903C72.1799 21.6181 69.8719 21.0268 67.5405 20.5161C69.8876 20.9773 72.1877 21.5322 74.4878 22.1652C75.8648 22.5404 77.2417 22.9468 78.603 23.4001C79.2758 23.6268 79.9565 23.8612 80.6293 24.1035C81.3021 24.3458 81.975 24.5959 82.64 24.8851C83.305 25.1743 83.97 25.4087 84.6271 25.6667C85.9349 26.2495 87.2118 26.899 88.4529 27.6128C89.0709 27.9723 89.6811 28.3474 90.2757 28.7382C90.8682 29.1418 91.4401 29.5748 91.9891 30.0356C92.2551 30.2701 92.5211 30.5046 92.7714 30.7547C93.0218 31.0048 93.2878 31.2549 93.5538 31.5362C93.867 31.8808 94.1596 32.2436 94.43 32.6226C94.6263 32.8959 94.8065 33.1804 94.9699 33.4745C95.1946 33.8558 95.3857 34.2559 95.541 34.6703H95.627L95.9322 34.6234H96.159L96.4485 34.5765H96.6832L97.1057 34.514C97.223 34.389 97.3326 34.2639 97.4499 34.1467L97.6533 33.9669C97.7048 33.9063 97.7625 33.8513 97.8255 33.8028L97.8959 33.7481L97.9819 33.6855C98.0674 33.6186 98.1562 33.556 98.2479 33.498C98.3382 33.435 98.4323 33.3776 98.5296 33.326L98.7408 33.2088C99.2822 32.9593 99.8611 32.8008 100.454 32.7398H100.509L101.096 32.6695C102.254 32.5601 102.739 32.7164 102.966 32.8962C102.929 32.8394 102.89 32.7846 102.848 32.732L102.637 32.4507L102.488 32.0052L102.246 31.7473L101.98 31.505L101.44 31.036C100.896 30.5767 100.318 30.1587 99.7109 29.7855C98.0762 28.7658 96.3747 27.8571 94.6178 27.0657C94.1797 26.8625 93.7337 26.6671 93.2878 26.4795C92.4037 26.0965 91.5119 25.737 90.6043 25.3931L89.1883 24.8695C87.3654 24.2129 85.5347 23.5877 83.7118 23.0406L83.9152 23.1031L85.2452 23.4783C86.5909 23.8691 87.9287 24.2911 89.2587 24.7444C90.1662 25.0492 91.0737 25.3775 91.9813 25.7214C92.8888 26.0653 93.7807 26.4326 94.6726 26.8156C96.4679 27.5565 98.1933 28.4563 99.8283 29.5042C100.638 30.044 101.395 30.6589 102.089 31.3408C102.481 31.7404 102.824 32.1836 103.114 32.6617L103.278 32.9587C103.325 33.0525 103.365 33.1463 103.404 33.2479C103.555 33.0716 103.717 32.9046 103.889 32.7477C104.024 32.6202 104.171 32.5052 104.327 32.4038C104.961 31.9666 105.696 31.6977 106.463 31.6222H106.51L106.971 31.5675C105.724 30.6005 104.418 29.7129 103.059 28.9102C102.15 28.3614 101.223 27.8401 100.282 27.347C95.0764 24.7979 89.577 22.8975 83.9074 21.6885L84.0873 22.0871C83.9778 21.9386 83.8526 21.7901 83.7353 21.6181C82.3479 21.3211 80.9579 21.045 79.5653 20.7897C75.3928 20.0237 71.1915 19.4584 66.9616 19.0937H66.9694L66.6174 19.0546L66.1871 19.0155L65.8037 18.9764L65.2248 18.9139H64.9901C62.7369 18.6326 59.0989 17.7416 58.7312 17.6556H55.1402L53.7007 17.6947H53.3721L52.2299 17.7338L51.158 17.7728H50.5322C49.3508 17.8197 48.0599 17.8822 46.6751 17.9526H46.4952L45.2669 18.0151L44.555 18.0542H44.3907L43.0372 18.1324L39.9078 18.3199L37.4199 18.4762L35.6127 18.7185L32.9761 18.9061L31.3567 19.0233L30.2692 19.1093L29.1582 19.1953L28.4228 19.2578L27.4918 19.336L26.553 19.4141L24.7458 19.5704C23.6896 19.6642 22.6178 19.758 21.5459 19.8674L18.8781 20.1253L17.9002 20.2191L16.0773 20.4145C14.403 20.5474 12.721 20.735 11.0468 20.9382ZM103.271 33.0368C103.274 33.0601 103.274 33.0839 103.271 33.1072V33.0368C103.309 33.1363 103.325 33.2431 103.318 33.3495V33.3026C103.372 33.1932 103.333 33.115 103.271 33.0368ZM109.17 32.0052C109.249 32.1722 109.267 32.362 109.22 32.5409C109.173 32.7198 109.063 32.8762 108.911 32.9821L108.567 33.3651C107.717 34.3862 107.157 35.6173 106.948 36.929C106.94 37.0162 106.924 37.1025 106.901 37.187C106.862 37.8031 106.629 38.3912 106.236 38.8673C106.158 38.9366 106.074 38.9994 105.985 39.0549V39.1096C106.862 39.2659 108.246 39.6723 108.81 40.7431C109.232 41.5247 109.06 42.5407 108.325 43.6662C107.288 45.4375 105.818 46.9166 104.053 47.9648C103.928 50.9347 103.192 53.4357 101.941 54.9989C101.468 55.62 100.835 56.1009 100.11 56.3901H100.071L99.6327 56.5151C97.7385 57.0328 95.7836 57.2957 93.8198 57.2967C92.8289 57.2983 91.8388 57.2409 90.8547 57.1247L90.4009 57.0622H90.2914C89.003 56.6902 87.8764 55.8978 87.0916 54.8113L83.3597 56.3744H83.2267C79.1037 57.0075 58.4105 60.1416 56.4389 59.2506C53.9902 58.1486 51.604 58.469 45.6816 60.0322C44.0091 60.5382 42.2796 60.8322 40.5337 60.9075C39.3946 60.9763 38.2604 60.71 37.2713 60.1416C37.2649 61.5409 37.1207 62.9362 36.841 64.3073C36.262 66.9803 35.1745 68.7857 33.7115 69.5126H33.6724L33.2656 69.6845C30.6119 70.687 27.794 71.1854 24.957 71.1539H22.8994C22.0341 70.9838 21.2264 70.5965 20.5524 70.0284C19.6832 69.303 18.9242 68.4553 18.2992 67.5118C17.567 66.3923 16.941 65.207 16.4293 63.9713C11.2574 61.1191 6.87756 57.0257 3.6848 52.0602C3.2947 51.3969 2.96228 50.7013 2.69121 49.9812C2.53474 49.6373 2.40174 49.2778 2.26091 48.9261C2.12009 48.5744 1.97927 48.2071 1.85409 47.8554C1.33854 46.4143 0.925471 44.9387 0.617971 43.4395C0.339266 42.0834 0.153677 40.7098 0.0625 39.3285V36.6946C0.0625 35.913 0.125088 35.1314 0.1955 34.3499C0.342162 32.8162 0.603679 31.2957 0.977854 29.8012C1.06391 29.426 1.18127 29.0665 1.28297 28.6991C1.38468 28.3318 1.47856 27.9176 1.60374 27.5971C1.86191 26.8781 2.08097 26.1434 2.38609 25.44C3.0748 23.7357 3.8989 22.0891 4.85051 20.5161C5.03827 20.2113 5.22604 19.9065 5.42162 19.6095C5.89104 18.8853 6.38392 18.1819 6.90027 17.4993C7.42445 16.8115 7.9721 16.1394 8.54322 15.475C8.9031 15.0608 9.27081 14.6544 9.65416 14.248C10.7594 13.0661 11.9323 11.9491 13.1669 10.9029C15.3759 9.08472 17.7548 7.48295 20.2707 6.11966L20.7871 5.84611C21.3269 5.56475 21.8745 5.2912 22.43 5.01765C27.3674 2.66603 32.65 1.11977 38.0771 0.437669C44.1604 -0.332336 50.3299 -0.0787245 56.3294 1.18797C62.3232 2.44938 68.0281 4.81917 73.15 8.17519C75.527 10.0523 77.6867 12.1888 79.5888 14.545C80.523 15.7106 81.3852 16.9322 82.1705 18.2027C82.6243 18.9843 83.0468 19.7658 83.4458 20.5474C92.1064 22.431 101.925 25.7761 108.982 31.841C109.054 31.8834 109.118 31.9391 109.17 32.0052ZM107.926 32.5445H107.965C107.554 32.53 107.143 32.5509 106.736 32.607H106.682C106.287 32.6524 105.901 32.7497 105.532 32.8962L105.594 32.9587C105.757 33.1293 105.891 33.3245 105.993 33.537V33.5996L106.04 33.7246C106.062 33.7781 106.08 33.8329 106.095 33.8887C106.095 33.9669 106.134 34.0451 106.15 34.1232C106.183 34.2645 106.204 34.4083 106.212 34.5531C106.236 34.9296 106.196 35.3073 106.095 35.6707C106.054 35.8664 105.994 36.0575 105.915 36.2413V36.2803C105.658 36.894 105.249 37.432 104.726 37.8435C104.285 38.2119 103.735 38.4236 103.161 38.4453H102.856V38.711C103.64 38.7585 104.424 38.6248 105.148 38.3202C105.284 38.2572 105.41 38.1757 105.524 38.0779C105.713 37.7358 105.828 37.3576 105.86 36.9681C105.872 36.8354 105.898 36.7043 105.938 36.5773C105.938 36.4523 105.985 36.3585 106.009 36.2413C106.197 35.3504 106.533 34.4972 107.002 33.7168C107.256 33.3009 107.549 32.9109 107.879 32.5523L107.926 32.4976V32.5445ZM107.926 41.3996C107.904 41.3377 107.878 41.2776 107.847 41.2198C107.789 41.115 107.718 41.0179 107.636 40.9307C106.945 40.3914 106.103 40.0825 105.227 40.0475L103.13 40.3836L102.097 40.5711L96.8162 41.5247L95.494 41.7591L94.7117 41.8998L94.5005 41.978L92.1534 42.8142L91.1207 43.1816L84.502 45.5263L83.5162 45.878L83.2971 45.9561H83.172L58.3635 48.4181H58.1758L57.8628 48.4728H57.722C55.0072 48.9808 44.422 50.9504 40.033 51.4896C39.7513 51.4896 39.4775 51.5522 39.1958 51.5678C38.9142 51.5834 38.6404 51.5678 38.3587 51.5678C37.9627 51.6031 37.5639 51.5953 37.1695 51.5443C37.0053 51.5443 36.841 51.4818 36.6767 51.4427L36.2151 51.2942H36.1055C35.5892 51.0989 35.2137 50.9269 34.8929 50.7862C34.6232 50.6657 34.3618 50.5273 34.1105 50.372C33.8302 50.761 33.6112 51.1906 33.4612 51.646C33.8915 51.857 34.5956 52.1852 35.3936 52.5526L36.5593 53.0606C37.7679 53.6374 39.0244 54.1082 40.3146 54.4674L40.6901 54.5221C42.7712 54.78 46.1666 54.2564 49.8046 53.5452L50.5869 53.381L51.4162 53.2169C51.9717 53.0997 52.5272 52.9902 53.0826 52.8652L53.9197 52.6933L56.3294 52.1931L57.4951 51.9586C58.8329 51.7007 60.0847 51.474 61.2035 51.3099C61.3599 51.3099 61.5242 51.263 61.6729 51.2474L62.5882 51.1458C63.9808 51.0051 65.9445 50.794 68.1116 50.5518L76.0838 49.6608L77.2417 49.5279L77.9693 49.4419H78.3527L79.3619 49.3247H79.6983L80.5745 49.2231H80.8718L81.8107 49.1137H82.0297L83.0859 48.9964L84.0638 48.6916L85.0574 48.3946C86.6926 47.8944 89.1335 47.1832 91.5119 46.4876L92.5054 46.1984L95.0324 45.4638L96.0417 45.1824L98.0523 44.6353C98.9129 44.4243 100.728 43.9553 102.692 43.3692C103.028 43.2754 103.365 43.1738 103.677 43.0643L104.014 42.9627C104.264 42.8846 104.515 42.8142 104.796 42.7283C105.852 42.2515 106.901 41.8607 107.965 41.4231L107.926 41.3996ZM107.926 41.7513H107.887C107.89 41.7228 107.89 41.6939 107.887 41.6653C106.509 42.2529 105.099 42.7592 103.662 43.1816L102.879 43.502L102.715 43.5489C101.15 44.01 99.6953 44.4086 98.733 44.6587L98.1227 44.8151L97.7394 44.9167L97.4656 44.987C97.0587 45.0886 96.5893 45.2215 96.0652 45.37L95.0716 45.6513L94.477 45.8233L92.5837 46.3704L91.5901 46.6596L90.7451 46.9097L89.822 47.1754L88.1399 47.6756L86.896 48.0429L85.1513 48.5588L84.1577 48.8558L83.1641 49.1996H82.5774C80.598 49.4263 73.7055 50.2157 68.1273 50.8331L66.5 51.0754L65.7724 51.1536L62.5648 51.4896C62.0015 51.5443 61.3834 51.6303 60.7262 51.7319L59.6622 51.9039L58.8251 52.0524C57.3073 52.3337 55.6488 52.6698 53.9354 53.0137H53.8102C52.7227 53.2404 51.6353 53.467 50.5556 53.678C49.0848 53.9672 47.6453 54.2408 46.2996 54.4596L45.306 54.6081C44.1297 54.782 42.9432 54.8786 41.7541 54.8973H40.9718C40.698 54.8973 40.4398 54.8504 40.1894 54.8113L39.2663 54.5221C38.3509 54.2095 37.459 53.8578 36.5828 53.467L35.4249 52.9668C34.5643 52.5838 33.7976 52.1852 33.2891 51.9586C33.1795 52.3732 33.1088 52.797 33.0778 53.2247C33.0152 54.0063 33.0778 55.5694 33.0778 56.4291C33.7633 56.973 34.512 57.4322 35.3075 57.7969L36.1368 58.258L36.8018 58.641L37.1226 58.8442L37.193 58.8911C37.8148 59.3266 38.5127 59.6421 39.2506 59.8212L39.6887 59.8993C40.3412 59.9727 40.9999 59.9727 41.6524 59.8993L41.9497 59.8602H42.2001C43.2558 59.696 44.3008 59.4689 45.3295 59.1803C47.1133 58.7035 48.5997 58.3362 49.8672 58.0783H50.0862C50.3757 58.0235 50.6495 57.9688 50.9155 57.9298L51.7448 57.8125H52.1438C53.7165 57.6127 55.3139 57.8507 56.7597 58.5003C56.8162 58.527 56.8772 58.5429 56.9396 58.5472C57.8706 58.7191 61.1252 58.4456 65.2482 57.9688C65.7881 57.9063 66.3435 57.8438 66.9068 57.7656L68.6828 57.5468C69.2695 57.4764 69.8719 57.3983 70.4665 57.3123L73.2595 56.945C73.8698 56.859 74.48 56.7809 75.0824 56.6871C75.6927 56.6089 76.2951 56.5229 76.8975 56.4291C77.4921 56.3432 78.0867 56.265 78.6656 56.1712L82.9294 55.4522C83.2346 55.3115 84.635 54.6706 86.4031 53.9672L87.3732 53.5608C89.2665 52.7792 91.4023 51.9039 93.0374 51.3021L93.6007 51.0989C93.7398 51.0458 93.8713 50.9748 93.9919 50.8878C94.1171 50.8019 94.2423 50.6924 94.3831 50.5752C94.5239 50.458 94.7273 50.2938 94.9307 50.1454C95.272 49.8974 95.6459 49.6975 96.0417 49.5514C96.324 49.4469 96.6145 49.3658 96.9101 49.3091C97.755 49.1293 100.219 48.3008 101.69 47.7459L102.59 47.4411L102.958 47.3004C103.316 47.1462 103.661 46.9632 103.99 46.7533C104.296 46.5345 104.585 46.3079 104.867 46.0734L104.976 45.9796C105.929 45.1744 106.75 44.225 107.409 43.166C107.713 42.7586 107.904 42.279 107.965 41.7748L107.926 41.7513ZM105.649 36.1631C105.935 35.4685 105.981 34.6988 105.782 33.9747C105.782 33.8887 105.719 33.795 105.68 33.709C105.622 33.5769 105.545 33.4533 105.453 33.3417C105.421 33.2964 105.384 33.2545 105.344 33.2166C105.298 33.154 105.242 33.0987 105.18 33.0525C104.846 33.266 104.548 33.5297 104.296 33.834C104.206 33.9248 104.122 34.0214 104.045 34.1232L103.936 34.2717C103.818 34.4638 103.711 34.6621 103.615 34.8657L103.474 35.1783C103.386 35.3846 103.31 35.596 103.247 35.8114C103.147 36.1329 103.073 36.4623 103.028 36.7962C103.032 36.8273 103.032 36.8588 103.028 36.89C102.95 37.3211 102.903 37.7573 102.887 38.1952C103.389 38.2311 103.891 38.1174 104.328 37.8683C104.766 37.6192 105.119 37.2461 105.344 36.7962C105.422 36.6711 105.493 36.5461 105.563 36.4054C105.599 36.3345 105.63 36.2614 105.657 36.1866L105.649 36.1631ZM102.958 48.4181L102.081 48.7229L100.775 49.184L100.407 49.3091C99.1242 49.7467 97.7942 50.1844 97.1761 50.3095C96.7457 50.388 96.3308 50.5359 95.9478 50.7472C95.8211 51.5688 95.6194 52.3772 95.3454 53.1622C95.275 53.3498 95.2046 53.5373 95.1263 53.7171C95.0481 53.8969 94.962 54.0766 94.876 54.2564C94.7741 54.4807 94.6565 54.6974 94.5239 54.9051C94.3895 55.1214 94.2433 55.3302 94.0858 55.5303C93.8717 55.8159 93.6278 56.0779 93.3582 56.3119C94.5614 56.3421 95.765 56.2741 96.957 56.1087C97.7868 56.0007 98.6078 55.8336 99.4136 55.6085L99.7422 55.5069C100.154 55.3393 100.526 55.0892 100.838 54.7722C100.939 54.6754 101.033 54.5709 101.119 54.4596C101.803 53.5268 102.285 52.4622 102.535 51.3333C102.697 50.7014 102.815 50.059 102.887 49.4107C102.903 49.0668 102.934 48.7542 102.958 48.4181ZM102.668 34.4515C102.606 34.5453 102.535 34.6469 102.48 34.7485L102.277 35.0924C102.016 35.5302 101.801 35.9938 101.636 36.4757C101.641 36.4962 101.641 36.5178 101.636 36.5383V36.6164C101.596 36.718 101.565 36.8196 101.534 36.9212C101.53 36.9524 101.53 36.9838 101.534 37.015L101.769 36.9759H102.089C102.17 36.1151 102.365 35.2689 102.668 34.4593V34.4515ZM102.144 39.5551H102.199C102.145 39.522 102.097 39.4797 102.058 39.4301C101.854 38.9743 101.784 38.4704 101.855 37.9763V37.5074C101.86 37.3895 101.873 37.272 101.894 37.1557V37.0463H101.62L101.338 37.1088V37.1713C101.26 37.4371 101.197 37.6793 101.15 37.9529C101.104 38.2264 101.025 38.5234 100.978 38.7345C100.933 39.0982 100.835 39.4535 100.689 39.7896H100.767L101.8 39.6411L102.191 39.5707L102.144 39.5551ZM102.089 33.4901H101.823C101.448 33.49 101.074 33.5214 100.705 33.5839H100.642C100.354 33.6183 100.069 33.6731 99.7892 33.7481L99.9222 33.92C100.048 34.0722 100.153 34.2404 100.235 34.4202L100.306 34.6078C100.339 34.6974 100.368 34.7887 100.392 34.8813C100.532 35.4485 100.532 36.0414 100.392 36.6086L100.321 36.9134C100.321 36.9134 100.274 37.0619 100.243 37.1401L100.204 37.2339V37.2808L100.149 37.4058C100.153 37.4264 100.153 37.4477 100.149 37.4683C100.019 37.747 99.8559 38.0093 99.664 38.2499C99.3971 38.6301 99.0471 38.9445 98.6404 39.1693C98.2337 39.3941 97.7811 39.5234 97.3169 39.5473C97.0881 39.5412 96.8615 39.5017 96.6441 39.4301C96.5815 39.4301 96.5346 39.3754 96.4798 39.3441C96.4663 39.5448 96.5012 39.7458 96.5815 39.9303C96.9023 40.2663 99.2259 39.6411 99.8126 39.2894V39.2347C99.8789 39.0009 99.9312 38.7634 99.9691 38.5234C100.032 38.1874 100.11 37.7888 100.227 37.3433V36.9994C100.252 36.9302 100.273 36.8597 100.29 36.7884L100.352 36.5852C100.352 36.4836 100.423 36.3819 100.462 36.2803C100.553 36.0148 100.658 35.7539 100.775 35.4988L100.83 35.3815C100.83 35.2956 100.916 35.2096 100.955 35.1158C100.959 35.0899 100.959 35.0635 100.955 35.0377C101.017 34.9282 101.072 34.811 101.143 34.6938C101.315 34.389 101.51 34.092 101.714 33.8028C101.773 33.7122 101.838 33.626 101.909 33.5449L102.089 33.4901ZM100.141 36.1006C100.19 35.6928 100.163 35.2796 100.063 34.8813C100.032 34.7521 99.9871 34.6263 99.93 34.5062C99.8354 34.298 99.7058 34.1077 99.5466 33.9435L99.4293 33.834C99.3003 33.8887 99.1749 33.9513 99.0537 34.0216C98.9343 34.0898 98.8194 34.1655 98.7095 34.2483C98.3962 34.5082 98.1151 34.8047 97.8724 35.1314L97.755 35.2878C97.6248 35.482 97.5047 35.6829 97.3952 35.8896C97.2262 36.198 97.0823 36.5195 96.9649 36.8509C96.8473 37.1799 96.7532 37.5168 96.6832 37.8591C96.6988 37.918 96.6988 37.98 96.6832 38.0389C96.6128 38.3739 96.5657 38.7134 96.5424 39.0549C96.6272 39.1044 96.7162 39.1463 96.8084 39.18C96.9614 39.2355 97.1228 39.2646 97.2856 39.2659C97.8257 39.2275 98.3444 39.0398 98.7838 38.7237C99.2232 38.4076 99.5658 37.9757 99.7735 37.4761C99.7735 37.4292 99.8205 37.3902 99.8361 37.3433C99.8518 37.2964 99.9065 37.187 99.9378 37.1088C100.049 36.783 100.118 36.4441 100.141 36.1006ZM94.5943 52.0289L94.6804 51.685L94.477 51.8179C94.3145 51.9199 94.1414 52.0038 93.9606 52.068L93.5069 52.2321C91.9421 52.8105 89.9002 53.639 88.0304 54.4127C88.1086 54.5143 88.1869 54.6081 88.2729 54.7019C88.3535 54.8005 88.4425 54.8921 88.5389 54.9754C89.091 55.5019 89.7619 55.8879 90.4948 56.1009C90.6358 56.1349 90.7801 56.1533 90.9251 56.1556H91.285C91.8759 56.066 92.4234 55.7925 92.8497 55.374C92.9959 55.2431 93.1271 55.0963 93.2409 54.9364C93.4342 54.6904 93.6068 54.429 93.7572 54.1548C93.9131 53.881 94.0491 53.5962 94.164 53.3029C94.2924 53.0043 94.4047 52.699 94.5005 52.3884L94.5943 52.0289ZM82.8199 20.3989L82.2097 19.6877C81.795 19.2187 81.3725 18.7576 80.9344 18.3043C80.7154 18.0776 80.4963 17.851 80.2694 17.64C77.5762 14.9946 74.5206 12.7447 71.1941 10.9576C66.4275 7.84393 61.1209 5.64656 55.547 4.47837C49.9676 3.29579 44.2296 3.05276 38.57 3.75933C37.6703 3.87656 36.7627 4.01725 35.8708 4.18919C34.979 4.36114 34.0871 4.54871 33.203 4.76755C38.3587 4.72066 43.7413 4.76755 48.6623 5.12707C48.7975 5.13676 48.9237 5.19839 49.0144 5.29902L59.1302 16.7333C59.9126 16.9131 63.1359 17.6869 65.1465 17.9291C65.6081 17.9917 66.2731 18.0542 67.1024 18.1402C72.3793 18.6026 77.6265 19.3566 82.8199 20.3989ZM58.9581 39.3988H57.7142C57.5969 39.391 57.4793 39.391 57.3621 39.3988C57.305 39.3908 57.2471 39.3908 57.19 39.3988H56.0947C56.319 39.5189 56.5203 39.6776 56.6893 39.8677C56.8776 40.0777 57.0333 40.3148 57.1509 40.5711L57.2448 40.8291V40.9072C57.5148 41.9107 57.4292 42.9766 57.0022 43.9241C57.0022 44.01 56.924 44.0882 56.877 44.1742C56.8621 44.2172 56.8438 44.259 56.8223 44.2992C56.8045 44.3399 56.7836 44.3791 56.7597 44.4165C56.7621 44.4372 56.7621 44.4582 56.7597 44.479C56.6541 44.6644 56.5392 44.8444 56.4155 45.0183C56.2903 45.1824 56.1573 45.3465 56.0243 45.495C55.6683 45.9161 55.2301 46.2602 54.7364 46.5061C54.2427 46.752 53.7039 46.8947 53.153 46.9253C52.6363 46.9394 52.1287 46.7865 51.7059 46.4894C51.2831 46.1923 50.9674 45.7668 50.806 45.2762C50.7225 45.8895 50.8733 46.5118 51.2285 47.0191C51.6509 47.4333 52.6289 47.3708 53.8728 47.2457C54.293 47.2125 54.711 47.1551 55.1246 47.0738C55.7321 46.9728 56.3034 46.7171 56.7832 46.3313C56.9464 46.1885 57.091 46.0257 57.2135 45.8467C57.3635 45.6375 57.4895 45.412 57.589 45.1746C57.7073 44.8966 57.8015 44.6089 57.8706 44.3149C57.8637 44.2656 57.8637 44.2156 57.8706 44.1664C57.8741 44.1195 57.8741 44.0725 57.8706 44.0257C57.9176 43.7912 57.9567 43.5177 57.988 43.2441C58.075 42.3599 58.2453 41.4859 58.4965 40.6337C58.5748 40.3601 58.653 40.1335 58.7156 39.9068C58.7782 39.6802 58.786 39.6802 58.8173 39.5786C58.8486 39.477 58.8173 39.5317 58.8173 39.5082C58.8659 39.4739 58.9129 39.4374 58.9581 39.3988ZM57.6672 16.6005L55.7583 14.4512L48.3885 6.0884C45.971 5.93209 43.4362 5.83048 40.8779 5.78359H34.3453C32.7023 5.78359 31.0672 5.78359 29.479 5.84611C27.0525 6.64615 24.6973 7.64744 22.4378 8.83952C21.8119 9.16778 21.2017 9.51167 20.5915 9.87119C18.7648 10.9448 17.0252 12.16 15.3888 13.5055C14.6065 14.1776 13.8241 14.8732 13.0418 15.6157C11.7927 16.8322 10.6343 18.1383 9.57592 19.5235C9.41945 19.7189 9.27081 19.93 9.12216 20.1332L13.8945 19.5704L18.5886 19.078C20.9357 18.8436 23.1967 18.6326 25.4108 18.4372C32.0764 17.8588 38.0771 17.4602 42.7556 17.1554C46.949 16.9444 51.0485 16.7568 54.2796 16.6552H57.6594L57.6672 16.6005ZM57.0022 42.9471C57.121 42.3332 57.1023 41.7006 56.9475 41.0948C56.9542 41.0718 56.9542 41.0474 56.9475 41.0245V40.9619C56.8196 40.6005 56.6015 40.2777 56.3138 40.0241C56.1948 39.9197 56.0635 39.8304 55.9226 39.7583C55.8289 39.7126 55.7322 39.6734 55.6331 39.6411C55.5354 39.6029 55.4326 39.5793 55.328 39.5707C54.4208 39.6413 53.5487 39.9514 52.801 40.4695C52.6636 40.5703 52.5329 40.68 52.4098 40.7978C52.1781 41.0411 51.9662 41.3024 51.7761 41.5794L51.6274 41.8373C51.5622 41.9532 51.5047 42.0733 51.4553 42.1968C51.4006 42.314 51.3536 42.4313 51.3067 42.5641L51.2128 42.8533C51.1889 42.9081 51.1731 42.966 51.1659 43.0253L51.1189 43.205C51.0161 43.6508 50.9949 44.1116 51.0563 44.565C51.0744 44.732 51.1085 44.8968 51.158 45.0573C51.182 45.1108 51.2029 45.1656 51.2206 45.2215V45.2606C51.2653 45.3836 51.323 45.5015 51.3927 45.6123C51.6005 45.9512 51.9021 46.2226 52.2612 46.3938C53.5364 47.0425 55.3906 46.2219 56.3763 44.565C56.4389 44.4712 56.4937 44.3774 56.5485 44.2836C56.6428 44.1198 56.7264 43.9501 56.7988 43.7756C56.8374 43.6889 56.8714 43.6002 56.9005 43.5098C56.9604 43.3476 57.0049 43.1801 57.0335 43.0096C57.0277 42.9868 57.017 42.9655 57.0022 42.9471ZM50.4852 41.7748L49.8202 41.8607C49.4559 42.8742 49.1938 43.9215 49.0379 44.987C49.0291 45.1266 49.0081 45.2652 48.9753 45.4012L49.8359 45.2762C49.8388 44.9262 49.8597 44.5767 49.8984 44.2289C49.9038 44.1342 49.9169 44.0401 49.9376 43.9475C50.014 43.2032 50.1985 42.4739 50.4852 41.7826V41.7748ZM49.0379 40.7275H48.5059C48.1069 40.7275 47.5514 40.7275 46.8942 40.7822H46.0962C46.1909 40.8357 46.28 40.8985 46.3622 40.9697C46.453 41.0396 46.5369 41.1182 46.6126 41.2042C46.8767 41.479 47.0794 41.8066 47.2071 42.1655C47.5864 43.3349 47.4909 44.6063 46.9412 45.706L46.8394 45.9014L46.7847 46.0187C46.7299 46.1203 46.6752 46.2219 46.6126 46.3157C46.3898 46.6843 46.1274 47.0276 45.8302 47.3395C45.1037 48.122 44.0968 48.5856 43.0294 48.6291C42.7472 48.635 42.4663 48.59 42.2001 48.4962C42.0867 48.4621 41.9767 48.4176 41.8715 48.3634C41.598 48.2131 41.352 48.0175 41.1439 47.785C41.0186 47.6376 40.9085 47.4778 40.8153 47.3083C40.7107 47.1263 40.6292 46.932 40.5728 46.7299H40.4241C40.3207 47.3688 40.4724 48.0227 40.8466 48.5509C41.4021 49.1762 42.6069 49.1371 43.7648 49.1059C44.7303 49.1545 45.6817 48.858 46.4483 48.2696L46.6673 48.0664C46.8315 47.8984 46.9758 47.7122 47.0976 47.5115C47.4212 46.9842 47.6515 46.4052 47.7783 45.7998V45.6201C47.8307 45.3933 47.8699 45.1636 47.8956 44.9323C48.0357 43.9624 48.2555 43.0056 48.5528 42.0718L48.6467 41.7904L48.7406 41.5247C48.7953 41.3527 48.8501 41.1808 48.897 41.0166C48.9007 40.9907 48.9007 40.9644 48.897 40.9385C48.904 40.9129 48.904 40.8859 48.897 40.8603C48.9309 40.8576 48.963 40.8439 48.9884 40.8214C49.0138 40.7988 49.0312 40.7686 49.0379 40.7353V40.7275ZM47.0429 44.1585C47.1125 43.6363 47.0806 43.1056 46.949 42.5954C46.949 42.4782 46.8864 42.3688 46.8473 42.2515C46.7062 41.8807 46.4685 41.5542 46.1588 41.3058C46.0395 41.2034 45.9112 41.1118 45.7754 41.0323C45.6483 40.9747 45.5176 40.9251 45.3843 40.8838C44.4859 40.9629 43.6182 41.2491 42.8494 41.7201C42.3654 42.0241 41.9455 42.4197 41.6133 42.8846C41.3471 43.2513 41.1288 43.6505 40.964 44.0726C40.6677 44.8823 40.6267 45.7633 40.8466 46.597V46.6752C41.0213 47.2638 41.4202 47.7605 41.9576 48.0586C42.201 48.1845 42.4668 48.2615 42.7399 48.2852C42.971 48.3163 43.2052 48.3163 43.4362 48.2852C44.0682 48.1327 44.659 47.8437 45.1672 47.4387C45.6754 47.0336 46.0887 46.5222 46.3779 45.9405L46.4404 45.8545L46.4796 45.7686C46.6178 45.5201 46.7305 45.2582 46.816 44.987C46.904 44.7337 46.9644 44.4717 46.9959 44.2054C47.0133 44.1947 47.0291 44.1815 47.0429 44.1664V44.1585ZM43.0294 40.4852L43.3267 40.3601C41.1439 31.4346 12.2829 22.3294 8.85616 21.2743C4.10727 28.1599 8.12857 40.5868 8.85616 41.595C9.08799 41.7779 9.28877 41.9969 9.45075 42.2437C9.50551 42.3297 9.55245 42.4156 9.5994 42.5016L9.94363 42.7205L11.3206 43.6036L12.7053 44.5102C12.0138 42.8257 11.7245 41.0034 11.8604 39.1878C11.8604 39.0002 11.923 38.8204 11.9621 38.6485C12.0256 38.4053 12.1148 38.1695 12.2281 37.9451C12.3752 37.663 12.5806 37.4153 12.8305 37.2182C13.2861 36.9012 13.8468 36.7724 14.3952 36.8587C14.5486 36.8702 14.7006 36.8963 14.849 36.9369C16.5917 37.4063 18.2534 38.1362 19.7778 39.1018C20.321 39.5233 20.831 39.9858 21.3034 40.4852C21.6164 40.8134 21.9136 41.1573 22.1953 41.509C22.6178 42.0451 22.9996 42.6121 23.3375 43.205C23.3845 43.2754 23.4236 43.3457 23.4627 43.4161C23.6505 43.7287 23.8382 44.0491 24.0182 44.3696C24.1199 44.5571 24.2294 44.7447 24.3233 44.9323C24.6441 45.5185 24.9414 46.1046 25.223 46.683C25.356 46.9487 25.489 47.2223 25.6064 47.4646C25.7237 47.7069 25.8411 47.9804 25.9584 48.2461C26.0758 48.5119 26.1071 48.5822 26.1697 48.7542C26.2322 48.9261 26.2714 48.9964 26.3183 49.1215C26.8347 50.3407 27.2337 51.4037 27.5153 52.1462C27.6718 52.5604 27.8126 52.9277 27.883 53.0919C28.3514 53.5736 28.7683 54.1027 29.1269 54.6706C29.4243 55.129 29.7677 55.5558 30.1518 55.9446L30.3318 56.0618C30.4502 56.1392 30.576 56.2047 30.7073 56.2572C31.088 56.4159 31.5007 56.4828 31.9121 56.4526H32.0764C32.0764 55.5225 32.0217 54.0141 32.0764 53.2325C32.1083 51.8229 32.647 50.4717 33.5942 49.4263L33.6568 49.3716L34.1731 48.676L34.8929 47.66L38.1788 43.0565C38.2327 42.9742 38.2957 42.8982 38.3666 42.8299C38.4381 42.764 38.5168 42.7063 38.6013 42.6579C36.4107 41.47 34.2435 40.2585 32.0217 39.1565C29.6746 37.9294 27.2728 36.7337 24.8475 35.616C23.6348 35.0611 22.4222 34.4984 21.2017 33.9591C19.9812 33.4198 18.7529 32.8883 17.5168 32.396C15.0446 31.3877 12.541 30.4342 10.0062 29.5979C12.5802 30.3795 15.0681 31.3096 17.5638 32.2709C20.0595 33.2322 22.5317 34.2952 24.9648 35.3972C27.3979 36.4992 29.8311 37.6246 32.1781 38.8908C34.3844 40.0579 36.5437 41.3084 38.656 42.6423C39.2601 42.3274 39.9239 42.1436 40.6041 42.103L41.1048 42.0483C41.6277 41.4005 42.2841 40.8727 43.0294 40.5008V40.4852ZM42.8651 50.1532H42.7086H42.8025C42.0685 50.1762 41.3403 50.0178 40.6823 49.692C40.4675 49.5678 40.2724 49.4124 40.1034 49.2309L39.9 49.0199C39.4914 48.3763 39.3173 47.6117 39.4071 46.8549H38.3353C37.991 46.8549 37.6468 46.8549 37.3025 46.769H37.1774H37.2947C37.639 46.8002 37.9832 46.8159 38.3274 46.8159H39.4227V45.8624C39.5469 44.9097 39.8382 43.9863 40.2833 43.1347C39.9359 43.1512 39.5965 43.2446 39.2897 43.4082C39.1847 43.4577 39.085 43.5179 38.9924 43.588V43.6271L36.8331 46.6205L35.2684 48.7542L34.6817 49.5357C34.8694 49.6373 35.198 49.7936 35.7065 50.0437L36.5515 50.3876C37.3128 50.6099 38.1067 50.6997 38.8986 50.6534C38.9187 50.6612 38.941 50.6612 38.9611 50.6534C39.171 50.648 39.3802 50.6271 39.587 50.5908H40.1894C40.9718 50.4423 41.8793 50.3095 42.8807 50.1532H42.8651ZM35.8239 64.1041C36.13 62.5947 36.269 61.0562 36.2385 59.5163C35.9334 59.3366 35.5892 59.149 35.2371 58.9536L34.8773 58.7504C34.6817 58.6566 34.4861 58.5628 34.2983 58.4534C34.1105 58.344 33.9071 58.2346 33.7194 58.1252C33.336 57.8907 32.937 57.6406 32.6084 57.3436C32.3698 57.375 32.1293 57.3907 31.8887 57.3905C31.6269 57.4056 31.3643 57.3899 31.1063 57.3436C30.5043 57.2313 29.9428 56.9616 29.479 56.562C29.0539 56.128 28.6714 55.6543 28.3368 55.1474L28.0004 54.6784C28.7699 58.2563 28.8257 61.9506 28.1647 65.55C28.1647 65.6985 28.0942 65.8314 28.0629 65.9721C27.9655 66.3797 27.8454 66.7815 27.7031 67.1757C27.3666 68.2951 26.7563 69.3132 25.9271 70.1378C27.0903 70.0966 28.2488 69.9686 29.393 69.7549C29.7841 69.6845 30.1753 69.6064 30.5665 69.5126C31.3663 69.3078 32.1507 69.0466 32.9135 68.731L33.1952 68.6138H33.2421C33.3741 68.547 33.4998 68.4686 33.6177 68.3793C33.6994 68.3185 33.7777 68.2532 33.8524 68.1839C34.9108 67.0496 35.6008 65.6219 35.8317 64.0885L35.8239 64.1041ZM27.2649 64.745C27.7509 61.4512 27.6396 58.097 26.9364 54.8426C26.5706 53.0314 26.0471 51.2557 25.3717 49.5357C25.0665 48.7542 24.7145 48.0195 24.3468 47.191C24.1199 46.7612 23.893 46.3469 23.6661 45.9561C23.4392 45.5654 23.2749 45.3309 23.0794 45.0339L22.8681 44.7447C21.4755 42.8377 20.0047 41.7748 18.7138 41.7748H18.2835C18.1929 41.7899 18.1038 41.8134 18.0175 41.8451C17.8335 41.8938 17.6589 41.973 17.5012 42.0796C16.4137 42.7283 15.5453 44.2992 15.068 46.5267C15.0211 46.7455 14.9898 46.9722 14.9507 47.191C14.8568 47.7459 14.7786 48.3165 14.7316 48.9105C14.6182 50.362 14.6182 51.8201 14.7316 53.2716C14.7316 53.5217 14.7708 53.7718 14.802 54.0532C14.8333 54.3345 14.849 54.5534 14.8881 54.8348C14.982 55.5903 15.1072 56.3406 15.2636 57.0857C15.3575 57.5624 15.4671 58.0392 15.5766 58.5081C15.6861 58.9771 15.8426 59.5476 15.9912 60.0713C16.1399 60.5949 16.2338 60.8528 16.3668 61.2436C16.4998 61.6344 16.6641 62.1033 16.8283 62.5176C16.9848 62.9318 17.1569 63.2991 17.3291 63.7212C17.4229 63.9244 17.509 64.1198 17.6029 64.3073C17.8767 64.8779 18.1662 65.425 18.4713 65.933C18.6747 66.2691 18.8781 66.5973 19.0972 66.91C20.3959 68.7935 21.7885 69.9346 23.0089 70.13C23.1523 70.1381 23.2959 70.1381 23.4392 70.13C23.5783 70.1286 23.717 70.1156 23.8539 70.0909C24.9022 69.8877 25.8098 68.9186 26.4435 67.3476C26.6026 66.9627 26.7385 66.5686 26.8503 66.1675C26.8894 66.0346 26.9207 65.8939 26.952 65.7611C26.9833 65.6282 27.0224 65.4875 27.0537 65.339C27.085 65.1905 27.1241 64.9404 27.1632 64.7372L27.2649 64.745ZM20.7323 41.298L20.4115 40.9463C20.2248 40.7494 20.0263 40.5641 19.8169 40.3914C19.6189 40.2094 19.4099 40.0397 19.1911 39.8834L18.6512 39.5629C17.7482 39.0441 16.8003 38.6073 15.8191 38.2577C15.4279 38.117 15.0368 37.9842 14.6221 37.8747L14.3405 37.82C14.0442 37.7577 13.7352 37.8138 13.4799 37.9763C13.4425 38.0007 13.4084 38.0296 13.3782 38.0623C13.2937 38.1447 13.2225 38.2396 13.1669 38.3437C12.2359 39.985 13.472 44.2523 13.9884 44.7291L14.051 44.7994C14.1064 44.8694 14.1537 44.9454 14.1918 45.0261C14.1918 45.0964 14.27 45.1824 14.317 45.2918C15.0993 42.697 16.3824 41.1026 18.0723 40.7822C18.8908 40.6444 19.732 40.7703 20.4741 41.1417C20.4741 41.1417 20.4741 41.1417 20.5132 41.1417L20.7166 41.2589L20.7323 41.298ZM11.9934 59.1412C13.3179 60.7623 14.7531 62.29 16.2885 63.7134C15.4045 61.6392 14.7411 59.4781 14.3092 57.2654C14.2544 57.0075 14.2075 56.7574 14.1605 56.4839C13.6838 53.8231 13.5601 51.1111 13.7928 48.4181L10.2409 46.1359C10.1496 46.0802 10.0805 45.9946 10.0453 45.8936L9.89669 45.5341C8.82486 44.8698 6.3448 43.3223 3.80215 41.7122C4.17027 44.0197 4.82466 46.2723 5.75021 48.4181C6.06316 49.1371 6.39957 49.8405 6.76727 50.5283C7.01763 51.1458 7.29927 51.7554 7.54963 52.3494C8.76424 54.7766 10.2554 57.0557 11.9934 59.1412ZM10.9529 45.3778L13.9415 47.3083C13.863 47.0015 13.769 46.6989 13.6598 46.4016C13.5562 46.0983 13.4361 45.8009 13.2999 45.5107C13.0755 45.2618 12.9002 44.9728 12.7836 44.6587L12.3611 44.4165L11.3206 43.8068L9.8341 42.9471C10.2561 43.7339 10.6297 44.5456 10.9529 45.3778ZM9.68545 44.9948C9.36622 44.1094 8.92941 43.2709 8.38675 42.5016C8.30851 42.5016 8.18333 42.3922 8.00339 42.0952C7.92731 41.9721 7.85936 41.8442 7.79998 41.7122L4.13856 39.5238L3.47356 39.1096C3.5205 39.8208 3.59874 40.5321 3.70045 41.2511L4.4828 41.7201L6.04751 42.7126L8.28504 44.1195L9.65416 44.9636L9.68545 44.9948ZM4.3498 39.2816L7.55745 41.2511L7.42445 40.915C7.38533 40.79 7.33839 40.6649 7.28363 40.5243C7.18975 40.2351 7.08022 39.9146 6.97069 39.5395C6.50127 37.9763 4.71751 31.3174 6.00839 25.4713C5.82845 25.8699 5.64068 26.2528 5.49204 26.6749C5.42163 26.8312 5.35904 26.9953 5.29645 27.1516C5.10868 27.6362 4.96004 28.1286 4.78792 28.6132C4.67148 28.9565 4.57483 29.3061 4.49845 29.6605C4.39674 30.0122 4.30286 30.317 4.22462 30.6687C3.98453 31.6661 3.7991 32.6758 3.66915 33.6934C3.62221 34.0294 3.58309 34.3655 3.5518 34.7094C3.42019 36.0731 3.39403 37.4449 3.47356 38.8126L3.62221 38.8986L4.3498 39.2816Z" fill="white"/>
<path d="M107.965 32.5679L107.918 32.6226C107.588 32.9812 107.295 33.3713 107.042 33.7871C106.572 34.5675 106.236 35.4208 106.048 36.3116C106.048 36.4288 106.009 36.5226 105.978 36.6477C105.937 36.7747 105.911 36.9057 105.9 37.0385C105.867 37.4279 105.752 37.8061 105.563 38.1483C105.45 38.246 105.323 38.3275 105.188 38.3906C104.464 38.6951 103.679 38.8289 102.895 38.7814C103.672 38.8295 104.449 38.6957 105.164 38.3906C105.297 38.3292 105.42 38.2503 105.532 38.1561C105.72 37.8102 105.837 37.4302 105.876 37.0385C105.889 36.9084 105.915 36.78 105.954 36.6555C105.954 36.5226 106.001 36.4367 106.025 36.3194C106.048 36.2022 106.119 35.9365 106.173 35.7332C106.37 35.0484 106.654 34.3917 107.018 33.7793C107.279 33.3639 107.574 32.9716 107.902 32.607L107.965 32.5679ZM107.91 41.7044C107.914 41.733 107.914 41.7618 107.91 41.7904C106.543 42.3659 105.146 42.8669 103.725 43.291L102.895 43.5411L103.678 43.2207C105.117 42.7986 106.53 42.2923 107.91 41.7044ZM107.042 31.5597C105.79 30.5993 104.484 29.712 103.13 28.9023C104.489 29.7051 105.795 30.5927 107.042 31.5597ZM105.235 40.0709C106.11 40.106 106.953 40.4149 107.644 40.9541C106.95 40.4214 106.109 40.1156 105.235 40.0788L103.138 40.4461L102.105 40.6337L96.8242 41.5481L102.105 40.6024L103.138 40.4148L105.235 40.0709ZM106.486 31.6066C105.72 31.682 104.985 31.951 104.35 32.3881C104.194 32.4895 104.048 32.6046 103.912 32.732C103.741 32.889 103.579 33.056 103.427 33.2322C103.569 33.062 103.723 32.9026 103.889 32.7555C104.028 32.6298 104.174 32.5123 104.327 32.4038C104.969 31.9631 105.711 31.6891 106.486 31.6066ZM106.119 33.9044C106.144 33.9806 106.163 34.0591 106.173 34.1388C106.158 34.0607 106.142 33.9825 106.119 33.9044ZM106.017 33.6074C106.041 33.6456 106.057 33.6881 106.064 33.7324L106.017 33.6074Z" fill="white"/>
<path d="M105.789 33.9982C105.989 34.7222 105.942 35.4919 105.656 36.1866C105.631 36.248 105.602 36.308 105.57 36.3663C105.583 36.2903 105.607 36.2166 105.641 36.1475C105.937 35.4583 105.987 34.6884 105.782 33.9669C105.756 33.8729 105.722 33.7813 105.68 33.6934C105.623 33.5728 105.555 33.4577 105.476 33.3495C105.568 33.4611 105.645 33.5847 105.703 33.7168C105.727 33.8184 105.758 33.9122 105.789 33.9982ZM105.617 32.9665C105.782 33.1358 105.916 33.3312 106.016 33.5449C105.914 33.3323 105.78 33.1372 105.617 32.9665ZM105.539 32.8962C105.561 32.9132 105.58 32.9344 105.594 32.9587L105.531 32.8962H105.539ZM104.89 46.0734C104.608 46.3079 104.319 46.5345 104.013 46.7534C103.685 46.9632 103.339 47.1462 102.981 47.3005L102.613 47.4411L101.713 47.7459C100.242 48.293 97.8015 49.1215 96.9331 49.3091C96.6375 49.3659 96.347 49.4469 96.0647 49.5514C95.6689 49.6975 95.295 49.8974 94.9538 50.1454C94.7503 50.2939 94.5469 50.458 94.4061 50.5752C94.2653 50.6925 94.1401 50.8019 94.0149 50.8878C93.8943 50.9749 93.7628 51.0458 93.6238 51.0989L93.0605 51.3021C91.4253 51.9039 89.2895 52.7714 87.3962 53.5608L86.4261 53.9672C84.658 54.7488 83.2967 55.3115 82.9524 55.4522L78.7669 56.0696L82.929 55.4522L86.3948 53.975L87.3727 53.5686C89.266 52.7871 91.4019 51.9117 93.037 51.3099L93.6003 51.1067C93.7393 51.0536 93.8708 50.9827 93.9915 50.8957C94.1166 50.8097 94.2418 50.7003 94.3826 50.583C94.5235 50.4658 94.719 50.2939 94.9303 50.1454C95.2709 49.9029 95.6418 49.7058 96.0334 49.5592C96.3194 49.4558 96.6122 49.3722 96.9096 49.3091C97.7468 49.1371 100.219 48.3009 101.69 47.7459L102.59 47.4333L102.957 47.3005C103.312 47.1445 103.655 46.9616 103.982 46.7534C104.295 46.5267 104.6 46.2922 104.89 46.0734ZM103.27 33.0369C103.317 33.115 103.356 33.1932 103.395 33.2713L103.301 33.0916C103.294 33.072 103.283 33.0535 103.27 33.0369ZM102.895 38.1561C103.392 38.1885 103.889 38.0757 104.323 37.8315C104.758 37.5873 105.113 37.2222 105.343 36.7806C105.119 37.2305 104.765 37.6036 104.328 37.8527C103.89 38.1017 103.389 38.2155 102.887 38.1796C102.902 37.7417 102.949 37.3055 103.028 36.8743C103.031 36.8432 103.031 36.8117 103.028 36.7806V36.8509C102.96 37.2833 102.915 37.719 102.895 38.1561ZM102.081 48.7307L102.957 48.4181C102.957 48.7464 102.902 49.059 102.863 49.3716C102.902 49.0668 102.926 48.762 102.949 48.4415L102.081 48.7385L100.774 49.184L102.081 48.7307ZM102.488 32.0052L102.723 32.2709C102.644 32.1771 102.558 32.099 102.48 32.0052L102.237 31.7473L102.488 32.0052ZM102.636 34.4671C102.292 35.2735 102.058 36.1227 101.94 36.9916H101.901C102.026 36.1335 102.263 35.2953 102.605 34.4984L102.417 34.7797C102.488 34.6625 102.574 34.5609 102.636 34.4671ZM102.198 39.5551H102.144L102.034 39.4535C101.831 39.0005 101.76 38.4991 101.831 38.0076C101.825 37.8374 101.838 37.667 101.87 37.4996V37.0385V37.1479C101.849 37.2642 101.836 37.3817 101.831 37.4996V37.9685C101.76 38.4626 101.831 38.9665 102.034 39.4223C102.08 39.4769 102.135 39.5221 102.198 39.5551ZM102.104 33.4745C101.644 33.4601 101.183 33.4888 100.728 33.5605H100.665C100.401 33.5982 100.14 33.6504 99.8826 33.7168C100.163 33.6419 100.448 33.587 100.735 33.5527H100.798C101.168 33.4901 101.542 33.4588 101.917 33.4589L102.104 33.4745ZM101.604 36.4914C101.769 36.0094 101.984 35.5459 102.245 35.108C101.989 35.5537 101.774 36.022 101.604 36.507V36.4914ZM100.36 27.3627C101.306 27.8394 102.237 28.3553 103.137 28.9258C102.237 28.3631 101.306 27.8551 100.36 27.3627ZM101.549 36.6477V36.5695V36.6633V36.6477ZM101.447 36.9681V37.0619C101.444 37.0307 101.444 36.9993 101.447 36.9681ZM100.344 36.9369V36.8587C100.327 36.9301 100.306 37.0005 100.282 37.0697L100.344 36.9369ZM99.6948 29.7621C100.302 30.1353 100.879 30.5533 101.424 31.0126C100.872 30.5557 100.289 30.1378 99.6792 29.7621C98.0462 28.7394 96.3444 27.8306 94.5861 27.0422L93.2717 26.4561C93.7176 26.6436 94.1636 26.839 94.6017 27.0422C96.3586 27.8337 98.0601 28.7424 99.6948 29.7621ZM100.086 34.8814C100.186 35.2796 100.213 35.6928 100.164 36.1006C100.213 35.6902 100.186 35.2744 100.086 34.8735C100.05 34.7457 100.005 34.6204 99.953 34.4984C99.8585 34.2883 99.7258 34.0975 99.5618 33.9357L99.4523 33.8341C99.3193 33.8888 99.2019 33.9513 99.0768 34.0138C99.1979 33.9435 99.3233 33.8809 99.4523 33.8262L99.5696 33.9357C99.7288 34.0999 99.8585 34.2902 99.953 34.4984C100.011 34.621 100.055 34.7494 100.086 34.8814ZM99.953 38.6485C99.9496 38.6304 99.9496 38.6119 99.953 38.5938C99.9151 38.8338 99.8628 39.0713 99.7965 39.305C99.8607 39.0892 99.9129 38.87 99.953 38.6485ZM97.1756 50.3173C97.7937 50.1922 99.1237 49.7546 100.407 49.3169C99.1159 49.7624 97.7859 50.2079 97.16 50.3329C96.7355 50.4151 96.3264 50.5628 95.9473 50.7706C96.3294 50.5539 96.7443 50.4008 97.1756 50.3173ZM97.3086 39.5942C97.7728 39.5703 98.2254 39.441 98.6321 39.2162C99.0388 38.9914 99.3889 38.677 99.6557 38.2968C99.3913 38.6813 99.0424 39.0003 98.6356 39.2292C98.2287 39.4582 97.7748 39.591 97.3086 39.6176C97.0792 39.6188 96.8513 39.5791 96.6358 39.5004C96.5848 39.4802 96.5352 39.4567 96.4872 39.4301C96.5419 39.4301 96.5889 39.516 96.6515 39.516C96.8657 39.573 97.087 39.5993 97.3086 39.5942ZM99.0533 34.0373L98.7091 34.2639C98.8189 34.1812 98.9339 34.1055 99.0533 34.0373ZM98.1458 45.9562C98.3101 46.1281 98.2866 46.4485 97.6607 47.5193C97.568 47.6687 97.4661 47.8123 97.3556 47.9492C97.015 48.3528 96.6041 48.6917 96.1429 48.9496C95.8538 49.1233 95.5532 49.2774 95.2432 49.4107L95.0633 49.4967L94.8599 49.5904L93.7333 50.0516L92.771 50.4424C90.9716 51.1614 88.7653 52.0055 86.9268 52.7089L85.9019 53.1075L83.1872 54.1157C83.0463 54.1157 68.7684 56.3276 64.0117 56.8746H63.9256C63.3365 56.9529 62.7437 56.9998 62.1497 57.0153C61.9136 57.0471 61.6734 57.0265 61.4462 56.9549C61.219 56.8833 61.0104 56.7625 60.8353 56.6011C60.5224 56.2338 60.5145 55.632 60.8353 54.6628C60.8964 54.4809 60.9805 54.3076 61.0857 54.147C61.868 52.9903 63.6987 52.8808 63.8317 52.8808C65.8189 52.6776 82.9759 50.9347 83.1559 50.9347L84.7206 50.4267L85.7063 50.0985C87.4353 49.5045 89.7824 48.7385 91.9652 47.9882L92.9509 47.66L95.2119 46.8784L96.2368 46.5189L97.0192 46.2297C97.1272 46.1946 97.2319 46.1501 97.3321 46.0968C97.6216 45.9249 97.9815 45.7842 98.1458 45.9562ZM97.8719 46.2219C97.7859 46.2423 97.702 46.2711 97.6216 46.3079L97.3869 46.4173H97.3321L97.1365 46.5111H97.0739L96.229 46.855L95.1963 47.2145L94.2183 47.5662L93.0526 47.957L92.0747 48.293L90.51 48.8401L88.8592 49.4029L86.5982 50.1844L85.9019 50.4189L84.9083 50.7472L83.9773 51.0442L83.5705 51.1692C83.4731 51.2014 83.3739 51.2275 83.2732 51.2474C82.9759 51.2474 64.1603 53.1778 63.9725 53.1857C63.6489 53.2064 63.3286 53.2641 63.0181 53.3576C62.8612 53.4003 62.707 53.4525 62.5565 53.5139C62.2555 53.6136 61.9809 53.78 61.7533 54.0006C61.5257 54.2212 61.351 54.4903 61.2421 54.7879C60.9761 55.6241 60.9605 56.1556 61.1874 56.4292C61.5472 56.8434 62.5643 56.734 63.9725 56.5698H64.0664L66.0614 56.3197L66.7968 56.2338L67.9078 56.0853C71.1702 55.6398 75.2697 55.0302 78.3835 54.5221L78.9468 54.4362L79.7292 54.3189L80.4254 54.2173L81.1061 54.1157L81.7163 54.0219L82.4204 53.9203L82.9994 53.8344H83.1011L83.3123 53.7562L84.8145 53.1857L85.5968 52.8965L85.7142 52.8496L86.6921 52.4744C88.5385 51.771 90.7682 50.9113 92.5754 50.1923L93.5455 49.8015C94.1636 49.5592 94.6878 49.3403 95.1102 49.1684L95.6657 48.9027C95.8378 48.8011 96.0178 48.6995 96.1821 48.59C96.2977 48.5209 96.4076 48.4425 96.5106 48.3556C96.6205 48.2681 96.725 48.1742 96.8236 48.0742C96.9255 47.9775 97.0197 47.873 97.1052 47.7616C97.1931 47.6494 97.2741 47.5319 97.3478 47.4099C97.605 47.0556 97.7837 46.6506 97.8719 46.2219Z" fill="white"/>
<path d="M97.8721 46.2141L97.6217 46.2922C97.7024 46.2581 97.7863 46.232 97.8721 46.2141ZM83.9775 21.7041C89.6471 22.9131 95.1465 24.8135 100.352 27.3627C95.1457 24.824 89.6498 22.9266 83.9853 21.7119L83.9775 21.7041ZM96.8315 48.0273C96.9316 47.9288 97.0257 47.8244 97.1132 47.7147C97.0277 47.8261 96.9335 47.9307 96.8315 48.0273ZM96.5186 48.3087C96.4156 48.3956 96.3057 48.474 96.19 48.5431C96.3043 48.4719 96.414 48.3936 96.5186 48.3087ZM96.3699 35.4832L95.8849 35.5613H95.8301L95.4311 35.6629L93.3109 36.1631L92.9511 36.2491L92.2391 36.421L91.7697 36.5305L84.6346 38.2577L83.5315 38.5156L83.2421 38.586H83.1638L61.2579 40.4148L83.1638 38.5782H83.2499L83.5315 38.5078L84.6346 38.2421L91.7619 36.5461L92.2313 36.4289L92.9432 36.2569L93.2953 36.1709L95.4233 35.6707L95.8145 35.5769H95.8771L96.3699 35.4832ZM96.1665 48.551C96.0022 48.6604 95.8223 48.762 95.6502 48.8636C95.8301 48.762 96.0022 48.6604 96.1665 48.551ZM96.0648 45.0495L95.0556 45.3309L92.5286 46.0656L91.535 46.3548C89.1879 47.0504 86.7157 47.7616 85.0806 48.2618L84.087 48.5588L83.1091 48.8636L82.0529 48.9808L83.0856 48.8558L84.0635 48.5588L85.0493 48.2618C86.6922 47.7616 89.141 47.0504 91.5194 46.3469L92.5051 46.0656L95.0321 45.3309L96.0648 45.0495ZM95.2277 40.8134L94.4454 40.9541H94.3593L94.2028 41.0088L92.067 41.7904L91.0656 42.1656L84.3765 44.5103L83.3829 44.862L83.0152 44.9948L58.238 47.4255H58.1911L56.7515 47.6912L58.1441 47.4255H58.1911L82.9682 45.0261L83.3438 44.8932L84.3295 44.5415L91.0421 42.1656L92.0748 41.7982L94.2028 41.0167L94.3671 40.9541H94.4454L95.2277 40.8134ZM95.5015 38.2577V38.4531C95.3463 39.1592 95.4231 39.8965 95.7206 40.5555C95.4116 39.8944 95.3292 39.1501 95.4859 38.4375V38.2577H95.5015ZM95.3294 38.0467L94.3906 38.3437L93.3892 38.6485L94.3749 38.3359L95.3294 38.0467ZM94.8209 49.6139L93.6708 50.1297L92.7085 50.5205C90.9091 51.2396 88.7029 52.0836 86.8643 52.7871L85.8786 53.1622L83.1638 54.1704C83.0152 54.1704 68.7294 56.3901 63.9805 56.9294H63.8944C63.3054 57.0076 62.7126 57.0546 62.1185 57.07C61.8824 57.1018 61.6422 57.0812 61.415 57.0096C61.1878 56.938 60.9792 56.8172 60.8041 56.6558C60.5068 56.2885 60.499 55.6867 60.8041 54.7175V54.6628C60.4834 55.632 60.4912 56.226 60.8041 56.6011C60.9792 56.7625 61.1878 56.8833 61.415 56.9549C61.6422 57.0265 61.8824 57.0471 62.1185 57.0153C62.7126 56.9998 63.3054 56.9529 63.8944 56.8747H63.9805C68.7372 56.3276 83.0152 54.1157 83.156 54.1157L85.9021 53.1075L86.8878 52.7323C88.7263 52.0289 90.9326 51.1692 92.732 50.4658L93.6943 50.075L94.8209 49.6139ZM94.1246 47.6365L95.1025 47.2848C94.8052 47.3708 94.4767 47.488 94.1246 47.6365ZM93.0371 35.2096L92.7164 35.2878L92.3252 35.3737L92.7242 35.2799L93.0371 35.2096ZM90.5805 25.3697C91.4881 25.7136 92.3799 26.0731 93.264 26.4561C92.3799 26.0731 91.4802 25.7526 90.5805 25.3697ZM91.1751 39.3207L84.2513 41.4543L83.2186 41.7748L83.0934 41.806L75.9662 42.4235L83.0934 41.7904L83.2186 41.7513L84.2513 41.4309L91.1751 39.3207ZM88.2804 54.6706C88.3665 54.7644 88.4525 54.8582 88.5464 54.9442C88.45 54.8608 88.361 54.7693 88.2804 54.6706ZM84.1496 22.1105V22.1496C84.0244 21.9855 83.8914 21.8292 83.7662 21.6416C83.9149 21.8448 84.0401 21.962 84.1496 22.1105ZM83.688 23.0093H83.6958V23.0406H83.688V23.0093ZM83.1325 51.2474L73.4235 52.2321C68.6511 52.7167 63.9023 53.2013 63.8084 53.2013C63.4934 53.2202 63.1813 53.2726 62.8774 53.3576C63.1879 53.2641 63.5082 53.2064 63.8318 53.1857C64.0196 53.1778 82.8352 51.2474 83.1325 51.2474ZM82.0763 35.5691C81.6867 35.033 81.2551 34.5286 80.7855 34.0607C81.2591 34.5248 81.6911 35.0296 82.0763 35.5691ZM78.7435 56.0462C78.1646 56.14 77.57 56.2181 76.9754 56.3041L78.7435 56.0462ZM76.9519 56.3041C76.3495 56.3979 75.7471 56.4839 75.1369 56.562L76.9519 56.3041ZM75.1056 56.562C74.5032 56.6558 73.8929 56.734 73.2827 56.8199L75.1056 56.562ZM70.4975 57.1873C69.9029 57.2733 69.3005 57.3514 68.7137 57.4218L70.4975 57.1873ZM67.0082 19.1171C71.2381 19.4819 75.4394 20.0472 79.6119 20.8131C75.4446 20.0576 71.2434 19.4923 67.0082 19.1171ZM67.6576 20.5709C67.6646 20.6017 67.6646 20.6338 67.6576 20.6646C67.6438 20.6957 67.6223 20.7226 67.595 20.7428C67.1334 21.1883 62.4471 21.2196 61.0076 21.2196H60.5851C60.4834 21.2196 51.0951 19.3985 49.726 18.7498C49.6651 18.724 49.6114 18.6838 49.5695 18.6326C49.5574 18.5977 49.5553 18.5601 49.5636 18.5242C49.5719 18.4882 49.5902 18.4553 49.6165 18.4294C50.0311 18.0698 54.1385 17.9135 55.9692 17.9839H56.6264C57.0723 18.0542 59.8731 18.57 62.4001 19.0781C63.3233 19.2578 64.0744 19.422 64.7472 19.5548L65.3027 19.6799C66.0851 19.818 66.8509 20.038 67.5871 20.3364H67.6889V20.3755C67.7 20.4081 67.703 20.443 67.6976 20.4771C67.6921 20.5111 67.6784 20.5433 67.6576 20.5709ZM60.5694 20.8835C62.7699 20.937 64.9714 20.8326 67.1569 20.5709C65.7408 20.0707 57.6121 18.5075 56.556 18.359C54.4151 18.2351 52.2674 18.3109 50.1407 18.5857C51.2203 18.9296 54.7409 19.7346 57.4087 20.2895L58.5431 20.524L59.748 20.7584L59.9827 20.7975L60.3504 20.86L60.5694 20.8835Z" fill="white"/>
<path d="M67.6421 20.3989H67.5403C66.804 20.1005 66.0383 19.8805 65.2559 19.7424C66.0368 19.8795 66.8021 20.0942 67.5403 20.3833L67.6421 20.3989ZM67.6342 20.4067V20.4145L67.6264 20.4067H67.6342ZM66.0304 25.5807C67.2978 26.1044 68.5574 26.6358 69.8013 27.2142C68.5548 26.6514 67.2978 26.1096 66.0304 25.5885C62.635 24.1973 59.2031 22.9494 55.7346 21.8448L55.5782 21.7901L55.7346 21.837C59.2005 22.9312 62.635 24.1895 66.0304 25.5807ZM66.9379 57.6406C66.3746 57.7188 65.8192 57.7813 65.2793 57.8438L66.9379 57.6406ZM68.0645 50.5518C65.8974 50.7941 63.9337 51.0051 62.5411 51.1458L61.6492 51.2474C61.9465 51.2005 62.236 51.1692 62.5098 51.138L68.0645 50.5518ZM62.588 51.4897L65.7957 51.1536C64.5518 51.2943 63.4486 51.4115 62.5646 51.4975C62.0091 51.5522 61.3989 51.6382 60.7495 51.7319C61.3832 51.6303 62.0013 51.5444 62.588 51.4897ZM62.3768 19.1171L64.7239 19.6017C64.0902 19.4688 63.3391 19.3047 62.3768 19.125C59.8498 18.6169 57.049 18.1011 56.603 18.0308C57.0412 18.0855 59.8498 18.6013 62.3768 19.1171ZM61.1407 39.4144H61.0859C60.9619 38.7775 60.7346 38.165 60.4131 37.6012C60.0127 36.9034 59.5379 36.2509 58.997 35.6551C57.902 34.4794 56.694 33.4139 55.3904 32.4741C52.7513 30.6299 49.9675 29.0016 47.0661 27.605C44.1819 26.1721 41.2454 24.8538 38.2568 23.6502C35.2917 22.4388 32.3031 21.3055 29.2598 20.2895C30.0421 20.5552 30.8714 20.8366 31.6772 21.118C33.9069 21.8995 36.1132 22.7749 38.3116 23.658C41.3002 24.8695 44.2418 26.1825 47.1209 27.6206C50.0241 29.0169 52.8081 30.648 55.4452 32.4976C56.7488 33.4344 57.9569 34.4972 59.0518 35.6707C59.5927 36.2665 60.0675 36.919 60.4679 37.6168C60.7866 38.1764 61.0137 38.7833 61.1407 39.4144Z" fill="white"/>
<path d="M60.9292 38.9689C60.7721 38.5286 60.5675 38.1067 60.3189 37.7106C59.899 37.0403 59.4086 36.4167 58.856 35.8505C57.7415 34.7151 56.5207 33.6892 55.2102 32.7867C53.9106 31.8523 52.5631 30.9862 51.1732 30.1919C50.3909 29.723 49.6085 29.2619 48.8262 28.8164C49.6085 29.2462 50.3909 29.6995 51.1732 30.1685C52.5606 30.9657 53.9036 31.828 55.2024 32.7555C56.5153 33.6579 57.7388 34.6838 58.856 35.8192C59.4039 36.3895 59.894 37.0126 60.3189 37.6793C60.5723 38.0838 60.7771 38.5166 60.9292 38.9689ZM60.0373 40.5633L59.6383 40.618V40.6102L60.0373 40.5633ZM61.203 51.3099C60.0842 51.474 58.8559 51.7007 57.4947 51.9586C58.8325 51.6929 60.0842 51.4662 61.203 51.3099ZM55.7578 14.4512L57.6668 16.6005H57.6589L55.7578 14.4512ZM57.4947 17.64H56.8218C57.1113 17.64 57.2912 17.6322 57.4947 17.64ZM56.4932 44.3227C56.4385 44.4165 56.3837 44.5102 56.3211 44.604C55.2962 46.261 53.4812 47.0816 52.2059 46.4329C51.8469 46.2617 51.5453 45.9902 51.3375 45.6513C51.5449 45.9877 51.8432 46.2587 52.1981 46.4329C53.4812 47.0738 55.3275 46.261 56.3211 44.5962L56.4854 44.3149L56.4932 44.3227ZM55.9456 17.9839C54.1149 17.9135 50.0075 18.0698 49.5929 18.4293C49.8511 18.1949 51.5957 18.0464 53.3091 17.9839H53.6533C54.4169 17.9448 55.182 17.9448 55.9456 17.9839Z" fill="white"/>
<path d="M53.8881 47.3395C54.3027 47.3395 54.7252 47.2535 55.132 47.1754C54.7184 47.2567 54.3005 47.3141 53.8803 47.3473C52.6363 47.4724 51.6584 47.5349 51.2359 47.1207C50.8944 46.608 50.7577 45.9862 50.8526 45.3778C50.7678 45.9926 50.9157 46.6168 51.2672 47.1285C51.6349 47.5193 52.652 47.4646 53.8881 47.3395ZM50.6413 20.2035C52.2738 20.6985 53.9011 21.2195 55.5232 21.7666C53.9063 21.23 52.279 20.7089 50.6413 20.2035ZM53.0666 52.8574C52.5111 52.9824 51.9557 53.0919 51.4002 53.2091L53.0666 52.8574ZM51.7053 41.6184L51.5645 41.8764C51.4969 41.9922 51.4368 42.1123 51.3846 42.2359C51.434 42.1124 51.4915 41.9923 51.5567 41.8764L51.7053 41.6184ZM51.6349 22.4466C51.6332 22.5083 51.608 22.567 51.5645 22.6107C51.5215 22.6434 51.4741 22.6697 51.4237 22.6889C50.2423 23.1344 44.2025 23.4704 43.3967 23.4704H43.342C43.0055 23.4704 39.8605 22.6107 37.1614 21.8292C31.3485 20.1644 31.2624 19.9456 31.2233 19.8127C31.2108 19.7792 31.2085 19.7427 31.2169 19.7079C31.2252 19.673 31.2438 19.6415 31.2702 19.6173H31.3328C32.3108 19.2578 39.8448 19.2656 40.8854 19.4376C41.3078 19.5001 44.0148 20.1332 46.5105 20.7897C51.6349 22.0636 51.6349 22.2668 51.6349 22.4466ZM51.189 22.4466C49.8746 21.8604 41.7303 19.8362 40.8619 19.7189C37.8378 19.5639 34.8072 19.5926 31.7866 19.8049C32.4203 20.055 33.9302 20.5318 35.6514 21.0398C37.842 21.6885 40.3455 22.3997 41.9102 22.7983C42.4657 22.9468 42.8882 23.0484 43.1307 23.0953C43.1957 23.1022 43.2613 23.1022 43.3263 23.0953C45.9571 23.0541 48.5817 22.8295 51.1811 22.4231L51.189 22.4466ZM51.0951 45.1042C51.0951 45.1589 51.0951 45.2136 51.1498 45.2684C51.1321 45.2125 51.1112 45.1577 51.0873 45.1042C51.0377 44.9437 51.0036 44.7788 50.9856 44.6118C51.0168 44.776 51.0481 44.9401 51.0951 45.1042ZM51.142 42.8924L51.0951 43.0643C51.1023 43.0051 51.1181 42.9471 51.142 42.8924ZM51.0951 43.0643V43.2441C50.9862 43.689 50.9624 44.1503 51.0247 44.604C50.9632 44.1507 50.9844 43.6899 51.0873 43.2441L51.0951 43.0643ZM51.0716 40.5086V40.6727C51.0638 40.6024 51.0716 40.6024 51.0716 40.5086ZM51.0716 40.3289V40.5086V40.3367C51.0431 40.2025 51.0222 40.0668 51.009 39.9303L51.0716 40.3289ZM50.9464 57.8438C50.6804 57.8438 50.4066 57.9376 50.1171 57.9923C50.4066 57.9297 50.6804 57.8829 50.9464 57.8438ZM50.4536 41.7826C50.1485 42.4788 49.9482 43.2162 49.859 43.971C49.9374 43.2202 50.1272 42.4853 50.4223 41.7904L50.4536 41.7826ZM50.2893 37.9763C50.4009 38.1893 50.5002 38.4085 50.5866 38.6329C50.4848 38.414 50.3988 38.1874 50.2814 37.9763C50.0129 37.4906 49.7124 37.0232 49.3817 36.5773C49.7166 37.0219 50.0199 37.4894 50.2893 37.9763ZM49.8198 46.0734C49.8419 46.3544 49.8944 46.6321 49.9763 46.9018C49.8914 46.6329 49.8389 46.3548 49.8198 46.0734ZM49.6634 39.8599C49.5758 39.8137 49.4802 39.7845 49.3817 39.7739C49.48 39.7854 49.5754 39.8145 49.6634 39.8599ZM42.7552 17.1554C46.9486 16.9209 51.0481 16.7333 54.2793 16.6552C51.0481 16.7724 46.9408 16.96 42.7552 17.1554ZM49.593 18.4293C49.5667 18.4553 49.5484 18.4882 49.5401 18.5242C49.5318 18.5601 49.5338 18.5977 49.546 18.6325C49.5347 18.5976 49.5331 18.5602 49.5414 18.5245C49.5497 18.4887 49.5675 18.4558 49.593 18.4293ZM49.0375 40.7275H48.5055C48.0987 40.7275 47.551 40.7275 46.8938 40.7743C47.551 40.7196 48.1065 40.7196 48.5055 40.7196L49.0375 40.7275ZM49.0218 40.7822C49.0288 40.8077 49.0288 40.8347 49.0218 40.8603C49.0258 40.8344 49.0258 40.8081 49.0218 40.7822ZM48.9984 40.8603C49.002 40.8862 49.002 40.9126 48.9984 40.9385C48.9514 41.1026 48.8967 41.2745 48.8419 41.4465L48.748 41.7122L48.8341 41.423C48.8967 41.2511 48.9514 41.0792 48.9984 40.915C48.9974 40.8968 48.9974 40.8785 48.9984 40.8603ZM48.3021 35.3034C48.6891 35.7043 49.0497 36.1298 49.3817 36.5773C49.0471 36.1297 48.6838 35.7042 48.2943 35.3034H48.3021Z" fill="white"/>
<path d="M43.3889 23.4079C44.1713 23.4079 50.2345 23.1031 51.4159 22.6264C50.3049 23.0953 44.1791 23.4079 43.3654 23.4079H43.3107C42.9977 23.4079 39.8527 22.5404 37.1301 21.7666C34.2275 20.9225 32.7489 20.4458 31.9978 20.2035C31.2468 19.9612 31.2155 19.8362 31.2155 19.7815C31.2039 19.7478 31.2022 19.7115 31.2106 19.6769C31.2189 19.6424 31.2369 19.6108 31.2624 19.5861C31.236 19.6103 31.2174 19.6418 31.2091 19.6766C31.2007 19.7114 31.2029 19.7479 31.2155 19.7815C31.2546 19.9143 31.3407 20.1332 37.1535 21.7979C39.8527 22.5795 42.9977 23.4392 43.3341 23.4392L43.3889 23.4079ZM46.3306 49.5513L50.1172 48.9026C48.8732 49.1215 47.5823 49.3481 46.3306 49.5513ZM46.9408 42.5954C47.0724 43.1056 47.1043 43.6363 47.0347 44.1585C47.0965 43.6361 47.0647 43.1067 46.9408 42.5954ZM46.8547 45.0104C46.9391 44.7561 46.9993 44.4944 47.0347 44.2289C47.0031 44.4951 46.9428 44.7572 46.8547 45.0104ZM46.8313 45.9014L46.933 45.706C46.933 45.7764 46.8704 45.8389 46.8391 45.9014L46.7765 46.0187L46.8313 45.9014ZM46.6904 48.0429C46.8499 47.8709 46.9939 47.6852 47.1207 47.488C46.9989 47.6888 46.8546 47.8749 46.6904 48.0429ZM46.8469 42.2359C46.6965 41.8789 46.46 41.5648 46.1584 41.3214C46.0398 41.2146 45.9084 41.1227 45.7673 41.0479C45.6442 40.987 45.5159 40.9373 45.3839 40.8994C45.5173 40.9407 45.6479 40.9903 45.7751 41.0479C45.9108 41.1274 46.0391 41.219 46.1584 41.3214C46.4637 41.5612 46.701 41.8764 46.8469 42.2359ZM46.4401 45.878L46.5105 45.792L46.4714 45.878L46.4088 45.964C46.1196 46.5457 45.7064 47.057 45.1982 47.4621C44.69 47.8672 44.0991 48.1561 43.4671 48.3087C44.094 48.1511 44.6794 47.86 45.1831 47.4553C45.6868 47.0506 46.0969 46.5418 46.3853 45.964L46.4401 45.878Z" fill="white"/>
<path d="M43.8118 49.0902C44.7671 49.1441 45.7118 48.8681 46.4875 48.3087C45.7209 48.8971 44.7696 49.1936 43.804 49.1449C42.6461 49.1449 41.457 49.2153 40.8858 48.59C40.5116 48.0618 40.3599 47.4078 40.4634 46.769C40.3713 47.4036 40.5252 48.0493 40.8937 48.5744C41.41 49.1449 42.6148 49.1215 43.8118 49.0902ZM49.8986 58.0314C48.6311 58.2893 47.1447 58.6566 45.3609 59.1334C44.3322 59.422 43.2872 59.6491 42.2315 59.8133C43.2867 59.6427 44.3315 59.4131 45.3609 59.1256C47.1369 58.6488 48.6233 58.2815 49.8986 58.0314ZM45.7912 47.3473C46.0884 47.0354 46.3507 46.6921 46.5736 46.3235C46.3552 46.6951 46.0925 47.0389 45.7912 47.3473ZM45.3296 33.0994C45.4939 33.2244 45.666 33.3651 45.8303 33.5058L45.3296 33.0994Z" fill="white"/>
<path d="M45.7914 47.3473C45.0769 48.124 44.0844 48.5875 43.0297 48.6369C42.7441 48.6456 42.4596 48.5978 42.1926 48.4962C42.4587 48.59 42.7397 48.635 43.0219 48.6291C44.0772 48.5796 45.0712 48.1195 45.7914 47.3473ZM43.3426 40.3601L43.0453 40.4852L43.3191 40.3601C41.1207 31.4424 12.2988 22.3841 8.84863 21.2821C12.2832 22.3294 41.1442 31.4346 43.3426 40.3601ZM42.7246 50.1532H42.881C41.8796 50.3095 40.9721 50.4424 40.221 50.5361L42.7246 50.1532ZM41.7544 54.9051C41.4939 54.9214 41.2326 54.9214 40.9721 54.9051C41.2459 54.8973 41.465 54.9051 41.7544 54.9051ZM43.0297 40.5008C42.3102 40.8408 41.6684 41.325 41.1442 41.9233C41.6659 41.3223 42.3083 40.8377 43.0297 40.5008ZM40.1976 54.7879C40.4557 54.7879 40.7217 54.8582 40.9799 54.8738C40.7174 54.8646 40.4559 54.8358 40.1976 54.7879ZM40.4323 46.5892C40.4245 46.4956 40.4245 46.4015 40.4323 46.3079C40.4446 46.4012 40.4446 46.4958 40.4323 46.5892ZM39.4074 46.855C39.3176 47.6118 39.4917 48.3763 39.9003 49.0199C39.4882 48.3773 39.3062 47.6142 39.3839 46.855H39.4074ZM39.3839 46.7534H38.3356C37.9913 46.7534 37.6471 46.7377 37.3028 46.7065H37.1855L36.8491 46.6361L39.0318 43.5724V43.5333L36.8413 46.6049C37.0113 46.645 37.1838 46.6737 37.3576 46.6908C37.7 46.735 38.0451 46.7559 38.3903 46.7534H39.3839ZM38.1713 33.0525C38.5233 33.2948 38.8676 33.5449 39.1961 33.795C38.8676 33.5683 38.5233 33.3026 38.1713 33.0525ZM38.6016 42.5954C38.5171 42.6438 38.4384 42.7014 38.3668 42.7674C38.4364 42.699 38.5154 42.6411 38.6016 42.5954ZM38.3356 42.7674C38.2647 42.8356 38.2017 42.9117 38.1478 42.994L34.8932 47.6365L38.1713 43.0331C38.2131 42.9372 38.2684 42.8477 38.3356 42.7674ZM36.5909 53.4436C37.4671 53.8344 38.359 54.1861 39.2744 54.4987C38.3547 54.1932 37.4512 53.841 36.5674 53.4436C36.1763 53.2873 35.7851 53.1153 35.4174 52.9434C34.5724 52.576 33.8057 52.2165 33.2972 51.943C33.8057 52.2087 34.5724 52.5682 35.433 52.9512L36.5909 53.4436ZM36.5205 31.9505C37.0916 32.31 37.6471 32.6773 38.1713 33.0525C37.6471 32.6773 37.0916 32.3178 36.5205 31.9505Z" fill="white"/>
<path d="M36.8645 46.6283L37.2009 46.6986C37.0874 46.6827 36.975 46.6592 36.8645 46.6283ZM36.2152 51.3255L36.6768 51.474L36.1917 51.3255H36.0822C35.5658 51.1301 35.1903 50.9582 34.8695 50.8175C34.5997 50.7002 34.3383 50.5644 34.0872 50.4111C34.3384 50.5664 34.5998 50.7048 34.8695 50.8253C35.1903 50.966 35.5658 51.1379 36.0822 51.3333L36.2152 51.3255ZM36.2465 59.5007C35.9492 59.3209 35.5971 59.1334 35.2451 58.9302C35.5971 59.1334 35.9414 59.36 36.2465 59.5007ZM35.2059 58.9302L34.8539 58.7426L34.2671 58.43C34.4549 58.5394 34.6505 58.6332 34.8461 58.7269L35.2059 58.9302ZM27.9848 54.7644C28.7467 58.3137 28.8078 61.9774 28.1648 65.55C28.1648 65.6907 28.1022 65.8314 28.063 65.9721C27.9733 66.3792 27.861 66.781 27.7266 67.1757C27.3902 68.2951 26.7798 69.3132 25.9507 70.1378C26.7713 69.3106 27.3735 68.2928 27.7032 67.1757C27.8431 66.7788 27.9606 66.3743 28.0552 65.9643C28.0552 65.8236 28.1256 65.6907 28.1569 65.5422C28.7999 61.9529 28.7308 58.2724 27.9535 54.7097L27.9848 54.7644ZM27.9066 53.1466C28.37 53.6066 28.7795 54.118 29.127 54.6706C28.7681 54.136 28.3566 53.6386 27.8988 53.1856C27.8283 53.045 27.6875 52.6542 27.531 52.2399C27.2494 51.4584 26.8504 50.4345 26.334 49.2153C26.2871 49.0902 26.2402 48.9652 26.1854 48.8479C26.2455 48.9668 26.2978 49.0895 26.3419 49.2153C26.8582 50.4267 27.2572 51.4974 27.5389 52.2399C27.6953 52.6151 27.8362 53.0059 27.9066 53.1466Z" fill="white"/>
<path d="M27.0456 65.7689C27.0456 65.9017 26.9831 66.0424 26.9439 66.1753C26.8321 66.5765 26.6962 66.9706 26.5371 67.3555C26.6935 66.9704 26.8268 66.5763 26.9361 66.1753C26.9752 66.0424 27.0143 65.9096 27.0456 65.7689ZM25.6218 47.5115C25.7533 47.7654 25.8709 48.0263 25.9738 48.293C25.8565 48.0273 25.7391 47.7694 25.6218 47.5115ZM25.7235 58.1173C25.7808 59.2074 25.7442 60.3005 25.6139 61.3843C25.5357 61.9611 25.4021 62.5291 25.2149 63.0803C25.0109 63.7491 24.6548 64.3616 24.1744 64.8701C24.0388 65.0052 23.8894 65.1258 23.7285 65.2296C23.6257 65.292 23.5185 65.3469 23.4077 65.3937C23.2941 65.4394 23.1761 65.4734 23.0556 65.4953C22.9273 65.5238 22.7959 65.5369 22.6645 65.5344C22.1112 65.5241 21.574 65.347 21.1232 65.0264C20.9824 64.9248 20.8494 64.8232 20.7086 64.7059L20.4895 64.5184C18.9718 63.0725 17.6105 60.2276 16.8985 56.7652C16.1866 53.3029 16.4291 50.3017 17.2115 48.4181C17.4115 47.9224 17.7035 47.469 18.072 47.0816C18.3848 46.7623 18.7848 46.5421 19.2221 46.4485C19.5782 46.3839 19.945 46.4136 20.2861 46.5345C20.6708 46.6608 21.0288 46.8569 21.3423 47.1129C21.595 47.3 21.8283 47.5121 22.0386 47.7459L22.375 48.1367C22.4611 48.2383 22.5393 48.3399 22.6175 48.4493C22.6511 48.4799 22.6777 48.5172 22.6958 48.5588C22.8492 48.7638 22.9902 48.9778 23.1182 49.1996C23.1525 49.2356 23.1791 49.2782 23.1965 49.3247L23.3686 49.6217C23.7193 50.2729 24.0328 50.9436 24.3074 51.6303C24.4795 52.0914 24.6438 52.5526 24.7925 53.0137C25.0084 53.7227 25.1859 54.4428 25.3245 55.1708C25.3975 55.4991 25.4601 55.8273 25.5122 56.1556C25.516 56.1867 25.516 56.2182 25.5122 56.2494C25.6218 56.8512 25.6843 57.4843 25.7235 58.1173ZM25.3714 60.6887C25.5188 58.858 25.4029 57.0156 25.0272 55.2177C24.6901 53.5276 24.1352 51.8883 23.3764 50.3407C23.0811 49.7421 22.7356 49.1696 22.3437 48.6291C21.4675 47.4333 20.5052 46.7299 19.5976 46.7299H19.4177C19.3711 46.7222 19.3235 46.7222 19.2769 46.7299C19.0761 46.768 18.8847 46.845 18.7136 46.9566C18.3399 47.1832 18.0323 47.5039 17.8217 47.8866C16.7733 49.5904 16.4839 52.9824 17.2271 56.6949C18.2363 61.7751 20.8025 65.5657 22.9383 65.1593C23.1743 65.1078 23.3994 65.0152 23.6033 64.8857C23.6607 64.8573 23.7134 64.8204 23.7598 64.7763C24.0163 64.5539 24.2332 64.2896 24.4013 63.9947C24.6669 63.5552 24.8721 63.082 25.0115 62.5879C25.1893 61.9671 25.3097 61.3314 25.3714 60.6887Z" fill="white"/>
<path d="M25.5283 56.2337C25.6287 56.8601 25.694 57.4915 25.7239 58.1251C25.6848 57.4842 25.6222 56.8512 25.5283 56.2337ZM25.5987 61.3843C25.5141 61.9606 25.378 62.5282 25.1919 63.0803C24.9902 63.7518 24.6307 64.3654 24.1436 64.8701C24.6239 64.3616 24.98 63.749 25.1841 63.0803C25.3766 62.5296 25.5155 61.9616 25.5987 61.3843ZM25.3327 55.1474C25.4031 55.4756 25.4657 55.8039 25.5127 56.1321C25.4553 55.8039 25.3927 55.4756 25.3249 55.1474C25.1864 54.4193 25.0088 53.6992 24.7929 52.9902C24.9416 53.4592 25.0746 53.9437 25.1841 54.4205C25.2388 54.6706 25.2858 54.9051 25.3327 55.1474Z" fill="white"/>
<path d="M25.0356 55.2099C25.4113 57.0078 25.5272 58.8501 25.3798 60.6809C25.3247 61.331 25.2095 61.9746 25.0356 62.6035C24.8962 63.0977 24.6909 63.5708 24.4254 64.0103C24.6897 63.5757 24.8949 63.1079 25.0356 62.6192C25.2134 61.9912 25.3287 61.3471 25.3798 60.6965C25.5232 58.865 25.402 57.0225 25.0199 55.2255C24.6898 53.5342 24.1429 51.8924 23.3926 50.3407C23.0994 49.7426 22.7566 49.1701 22.3678 48.6291C21.4915 47.4333 20.5214 46.7299 19.6217 46.7299C20.5292 46.7299 21.4915 47.4333 22.3678 48.6291C22.7597 49.1696 23.1051 49.7421 23.4005 50.3407C24.1533 51.8866 24.7029 53.5232 25.0356 55.2099ZM24.308 51.6069C24.4879 52.0602 24.6522 52.5213 24.7931 52.9902C24.6444 52.5291 24.4801 52.068 24.308 51.6069ZM24.042 44.3852C24.1437 44.5728 24.2454 44.7603 24.3393 44.9479C24.2454 44.7603 24.1359 44.5728 24.0342 44.3852C23.8542 44.0648 23.6665 43.7443 23.4787 43.4317C23.6743 43.7287 23.8542 44.0648 24.042 44.3852ZM24.1594 64.8701C24.0313 65.0133 23.8806 65.1348 23.7134 65.2296C23.8743 65.1258 24.0238 65.0052 24.1594 64.8701ZM23.3692 49.5904C23.7221 50.2394 24.0331 50.9104 24.3002 51.5991C24.0255 50.9123 23.7121 50.2417 23.3614 49.5904L23.1892 49.2934C23.2549 49.3889 23.315 49.4881 23.3692 49.5904ZM23.7056 65.2296C23.6045 65.295 23.497 65.35 23.3848 65.3937C23.4956 65.3469 23.6028 65.292 23.7056 65.2296ZM22.6885 48.5275C22.8473 48.7288 22.9886 48.9432 23.111 49.1684C22.983 48.9466 22.8419 48.7326 22.6885 48.5275ZM22.3834 48.1054C22.4659 48.2045 22.5417 48.3089 22.6103 48.4181C22.5321 48.3087 22.4538 48.2071 22.3678 48.1054L22.0313 47.7147C22.1487 47.8319 22.2661 47.9648 22.3834 48.1054ZM21.3194 40.5008C21.6323 40.8291 21.9296 41.173 22.2113 41.5247C21.9062 41.173 21.6323 40.8291 21.3194 40.5008ZM18.5968 19.0859C20.9439 18.8514 23.2049 18.6326 25.4189 18.445C23.2049 18.6404 20.9204 18.8514 18.5968 19.0859ZM20.7483 41.3293L20.5449 41.212L20.7326 41.3136L20.7483 41.3293ZM21.3351 47.0816C21.0216 46.8256 20.6635 46.6295 20.2789 46.5032C20.6656 46.6248 21.0245 46.8213 21.3351 47.0816ZM19.4183 46.7377C19.3662 46.7339 19.3139 46.7339 19.2618 46.7377C19.0686 46.7764 18.8833 46.8477 18.7142 46.9487C18.8853 46.8372 19.0767 46.7602 19.2775 46.7221C19.3249 46.7195 19.3725 46.7248 19.4183 46.7377ZM20.5058 41.1964C19.7636 40.825 18.9224 40.6991 18.1039 40.8369C16.414 41.1573 15.0997 42.7517 14.3486 45.3465C15.131 42.7517 16.4062 41.1651 18.1039 40.8056C18.9257 40.6839 19.7651 40.8205 20.5058 41.1964Z" fill="white"/>
<path d="M18.0487 41.892C17.8671 41.9475 17.6935 42.0263 17.5323 42.1265C17.6901 42.0199 17.8646 41.9407 18.0487 41.892ZM17.5245 42.1656C16.4449 42.8299 15.5921 44.393 15.1149 46.6127C15.0679 46.8237 15.0366 47.0504 14.9975 47.277C14.9036 47.8319 14.8176 48.4025 14.7706 48.9965C14.665 50.4483 14.665 51.9058 14.7706 53.3576C14.6572 51.9061 14.6572 50.448 14.7706 48.9965C14.8176 48.4025 14.8958 47.8319 14.9897 47.277C15.0288 47.0582 15.0601 46.8315 15.107 46.6127C15.5686 44.3461 16.4292 42.7752 17.5245 42.1656ZM20.56 9.83994C18.7439 10.9184 17.0125 12.1333 15.3809 13.4742C14.5672 14.1464 13.7848 14.8498 13.0338 15.5845C13.777 14.842 14.5516 14.1464 15.3809 13.4742C17.0098 12.1298 18.7414 10.9146 20.56 9.83994ZM14.8645 54.0766C14.8645 54.3267 14.9193 54.5768 14.9506 54.8582C14.9036 54.5768 14.8645 54.3267 14.8645 54.0766ZM12.2984 44.3852L11.25 43.7912L9.83396 42.9315L11.2578 43.7756L12.2984 44.3852ZM7.5886 52.3259C8.79461 54.7541 10.2723 57.0378 11.9933 59.1334C10.2679 57.041 8.7899 54.7567 7.5886 52.3259ZM13.0338 15.5923C11.7889 16.8128 10.6309 18.1186 9.56796 19.5001C10.6263 18.1148 11.7847 16.8088 13.0338 15.5923ZM9.99826 29.4964H10.0061V29.5276H9.99826V29.4964ZM9.60708 42.5251L9.95131 42.7517L9.60708 42.5329V42.5251ZM9.6462 44.987L9.65402 44.9948H9.6462V44.987ZM7.28349 40.5243C7.33825 40.6649 7.38519 40.79 7.42431 40.915C7.37737 40.79 7.33043 40.6649 7.28349 40.5243ZM3.71595 41.2589L4.49831 41.7435L3.71595 41.2746V41.2589ZM4.33401 39.2659L4.34966 39.2816L3.62207 38.8595L4.33401 39.2659ZM3.80201 41.7201C4.17076 44.0248 4.82514 46.2748 5.75007 48.4181C4.82039 46.278 4.16076 44.0307 3.78636 41.7279L3.80201 41.7201Z" fill="white"/>
<path d="M135.777 56.3197L138.124 45.1511C138.158 45.0119 138.184 44.871 138.203 44.7291C138.213 44.6199 138.213 44.51 138.203 44.4008C138.203 43.8615 137.718 43.6193 136.755 43.6193H125.521L122.829 56.3197H115.006L120.42 31.3096H128.243L126.741 37.9294H137.459C137.991 37.9883 138.526 37.8642 138.977 37.5777C139.317 37.1741 139.539 36.6846 139.619 36.1631L140.855 30.6062C140.89 30.4567 140.916 30.3053 140.933 30.1529C140.939 30.0357 140.939 29.9183 140.933 29.8011C140.946 29.6509 140.92 29.4997 140.857 29.3627C140.794 29.2256 140.696 29.1073 140.573 29.0196C140.181 28.8613 139.759 28.7945 139.337 28.8242H120.889L122.329 22.1496H144.477C146.261 22.1496 147.549 22.4622 148.342 23.0875C148.751 23.4361 149.071 23.8762 149.278 24.3718C149.485 24.8675 149.571 25.4048 149.531 25.9402C149.527 26.2621 149.501 26.5833 149.453 26.9015C149.398 27.2376 149.336 27.5893 149.273 27.9645L147.708 35.3894C147.476 36.8199 146.731 38.1171 145.612 39.0393C144.645 39.7479 143.509 40.1899 142.318 40.321C143.287 40.3552 144.236 40.6062 145.095 41.0557C145.479 41.2841 145.79 41.6172 145.991 42.016C146.192 42.4147 146.275 42.8625 146.23 43.3066V43.8381C146.228 44.0352 146.194 44.2306 146.128 44.4165L143.601 56.2885L135.777 56.3197ZM164.521 45.2918L162.174 56.3041H154.35L159.757 31.2939H167.58L165.882 39.1096H176.648C176.89 39.1368 177.136 39.1148 177.37 39.045C177.604 38.9752 177.821 38.8589 178.009 38.7032C178.353 38.245 178.577 37.7074 178.658 37.1401L180.152 30.4186C180.207 30.1876 180.241 29.9522 180.254 29.7152C180.27 29.5737 180.248 29.4305 180.188 29.301C180.129 29.1716 180.036 29.0607 179.918 28.9805C179.584 28.8427 179.222 28.7839 178.862 28.8086H160.242L161.681 22.134H183.524C185.277 22.134 186.529 22.4388 187.288 23.0484C187.684 23.3989 187.994 23.8373 188.191 24.3286C188.388 24.8199 188.467 25.3504 188.422 25.8777C188.423 26.2231 188.396 26.568 188.344 26.9093C188.289 27.2611 188.234 27.6909 188.164 28.0973L185.738 39.3597C185.464 41.0539 184.674 42.6227 183.477 43.8537C182.434 44.8333 180.786 45.3231 178.533 45.3231L164.521 45.2918ZM191.974 56.3197L193.421 49.653H212.018C212.499 49.6935 212.98 49.5665 213.379 49.2934C213.734 48.9395 213.959 48.4773 214.021 47.9804L215.053 43.2363C215.092 43.054 215.111 42.8678 215.108 42.6814C215.108 42.0718 214.654 41.7669 213.762 41.7669H200.009C198.914 41.867 197.822 41.5517 196.95 40.8838C196.62 40.5597 196.365 40.1686 196.2 39.737C196.035 39.3055 195.965 38.8436 195.995 38.3828C196.003 37.8922 196.052 37.4032 196.144 36.9212L198.053 28.0973C198.33 26.4023 199.122 24.8333 200.322 23.6033C201.365 22.629 203.031 22.1392 205.321 22.134H227.008L225.615 28.6522H207.12C206.696 28.6119 206.272 28.738 205.939 29.0039C205.638 29.3669 205.441 29.8044 205.368 30.2701L204.39 34.7641C204.39 34.897 204.327 35.0142 204.312 35.1158C204.304 35.2173 204.304 35.3192 204.312 35.4206C204.312 35.9286 204.687 36.2022 205.446 36.2022H219.403C220.524 36.0969 221.642 36.421 222.533 37.1088C222.861 37.4403 223.115 37.8372 223.28 38.2734C223.444 38.7097 223.515 39.1757 223.487 39.6411C223.486 40.1143 223.433 40.586 223.331 41.0479L221.328 50.4267C221.051 52.1218 220.259 53.6907 219.059 54.9207C218.016 55.9003 216.368 56.3901 214.114 56.3901L191.974 56.3197Z" fill="white"/>
<path d="M58.6762 73.9988L59.3412 70.8725V70.7553C59.3445 70.7241 59.3445 70.6927 59.3412 70.6615C59.3412 70.513 59.2082 70.4348 58.9344 70.4348H55.805L55.0226 73.9988H52.832L54.342 66.9647H56.5326L56.1336 68.817H59.13C59.2797 68.8319 59.4304 68.7991 59.5603 68.7232C59.6536 68.608 59.7156 68.4707 59.7402 68.3246L60.0845 66.7615V66.5348C60.0896 66.4914 60.0828 66.4474 60.0649 66.4075C60.047 66.3676 60.0186 66.3332 59.9827 66.3082C59.8712 66.2631 59.7507 66.2444 59.6307 66.2534H54.5297L54.9287 64.3855H61.1328C61.5111 64.3535 61.8896 64.4439 62.2125 64.6434C62.3248 64.7392 62.4136 64.8595 62.4719 64.995C62.5303 65.1305 62.5566 65.2777 62.5489 65.425C62.5559 65.5134 62.5559 65.6023 62.5489 65.6907C62.5489 65.7845 62.5489 65.8861 62.4941 65.9877L62.0482 68.0667C61.9927 68.4717 61.7893 68.8419 61.477 69.1062C61.206 69.3044 60.8877 69.4284 60.5539 69.4657C60.8269 69.4722 61.0946 69.5417 61.3362 69.6689C61.4441 69.7333 61.5315 69.827 61.5883 69.9391C61.6451 70.0511 61.6689 70.1769 61.657 70.302V70.4505C61.6627 70.505 61.6627 70.56 61.657 70.6146L60.9529 73.9363L58.6762 73.9988ZM63.6598 73.9988C63.3489 74.0213 63.0383 73.9505 62.7679 73.7956C62.6761 73.7156 62.6042 73.6153 62.558 73.5027C62.5119 73.3901 62.4926 73.2682 62.5019 73.1469C62.5083 72.9627 62.5319 72.7796 62.5723 72.5998L63.5112 68.2386C63.5763 67.8402 63.7588 67.4701 64.0353 67.1757C64.3678 66.9206 64.7832 66.798 65.201 66.8318H70.1299C70.4061 66.8094 70.6819 66.881 70.9122 67.035C70.9941 67.1146 71.0575 67.2111 71.0981 67.3177C71.1386 67.4244 71.1553 67.5387 71.1469 67.6525C71.1477 67.8285 71.1294 68.0041 71.0922 68.1761L70.4819 70.9897H65.6313L65.8817 69.8018H68.8468L69.0581 68.8404C69.0668 68.7808 69.0668 68.7203 69.0581 68.6607C69.0619 68.6314 69.0582 68.6017 69.0472 68.5743C69.0363 68.547 69.0184 68.5229 68.9955 68.5044C68.9205 68.4666 68.8366 68.4504 68.7529 68.4575H65.8582C65.7407 68.4482 65.6232 68.4755 65.5218 68.5356C65.4494 68.6294 65.4011 68.7394 65.381 68.8561L64.7003 71.9354C64.6979 71.9771 64.6979 72.0188 64.7003 72.0605C64.6965 72.0916 64.6965 72.1231 64.7003 72.1543C64.6959 72.1855 64.7001 72.2172 64.7125 72.2462C64.725 72.2751 64.7451 72.3001 64.7708 72.3184C64.8511 72.3567 64.9402 72.3729 65.0289 72.3653H69.9499L69.6057 73.991L63.6598 73.9988ZM71.3034 73.9988L71.6476 72.3575H76.6704C76.7771 72.3696 76.8848 72.3448 76.9755 72.2871C77.0417 72.2123 77.0852 72.1201 77.1007 72.0214L77.2571 71.3102C77.2658 71.2742 77.2658 71.2367 77.2571 71.2008C77.2571 71.0757 77.1632 71.0132 76.9677 71.0132H73.0559C72.8016 71.0345 72.5476 70.9683 72.3361 70.8256C72.2638 70.7611 72.2066 70.6814 72.1687 70.5922C72.1309 70.503 72.1132 70.4066 72.1171 70.3098C72.1066 70.2058 72.1066 70.1011 72.1171 69.9972L72.5239 68.0823C72.5739 67.7219 72.7482 67.3902 73.0168 67.1444C73.3444 66.913 73.7436 66.805 74.1434 66.8396H80.1675L79.8232 68.4418H74.8944C74.7756 68.4288 74.656 68.4593 74.558 68.5278C74.4821 68.6103 74.433 68.7139 74.4172 68.8248L74.2842 69.4188C74.2792 69.4603 74.2792 69.5023 74.2842 69.5438C74.2842 69.6923 74.3781 69.7705 74.5815 69.7705H78.5324C78.7928 69.7478 79.053 69.8169 79.2678 69.9659C79.3407 70.0316 79.3982 70.1126 79.4361 70.2032C79.474 70.2937 79.4913 70.3915 79.4868 70.4895C79.4907 70.5364 79.4907 70.5834 79.4868 70.6302C79.4943 70.6768 79.4943 70.7243 79.4868 70.7709L79.0174 72.7561C78.956 73.1144 78.7804 73.4434 78.5167 73.694C78.1879 73.923 77.7897 74.0307 77.3901 73.9988H71.3034ZM81.6148 73.9988C81.3088 74.0231 81.0027 73.9521 80.7386 73.7956C80.6468 73.7156 80.5749 73.6153 80.5287 73.5027C80.4825 73.3901 80.4633 73.2682 80.4726 73.1469C80.4784 72.9622 80.5047 72.7787 80.5508 72.5998L82.2172 64.831H84.2435L83.8054 66.824H85.5657L85.2371 68.3871H83.4768L82.6945 72.0527C82.691 72.1125 82.691 72.1726 82.6945 72.2324C82.6945 72.3653 82.7962 72.4356 83.0074 72.4356H84.3374L84.001 73.9988H81.6148ZM86.5202 73.9988C86.2141 74.0231 85.908 73.9521 85.644 73.7956C85.5521 73.7156 85.4803 73.6153 85.4341 73.5027C85.3879 73.3901 85.3687 73.2682 85.378 73.1469C85.3843 72.9627 85.4079 72.7796 85.4484 72.5998L86.3872 68.2386C86.4512 67.8382 86.637 67.4671 86.9192 67.1757C87.243 66.9214 87.6509 66.7986 88.0614 66.8318H93.0216C93.3351 66.8077 93.6486 66.8785 93.9213 67.035C94.0117 67.1158 94.0821 67.2164 94.1269 67.329C94.1717 67.4416 94.1897 67.563 94.1794 67.6837C94.1731 67.8679 94.1495 68.051 94.109 68.2308L93.1702 72.592C93.1042 72.9918 92.9188 73.3623 92.6382 73.6549C92.3067 73.9053 91.8945 74.025 91.4803 73.991L86.5202 73.9988ZM91.9263 68.9499C91.9319 68.8927 91.9319 68.8351 91.9263 68.7779C91.9263 68.6294 91.7933 68.5513 91.5351 68.5513H88.6795C88.567 68.5427 88.4546 68.57 88.3587 68.6294C88.2784 68.7183 88.229 68.8307 88.2179 68.9499L87.6233 71.8651V71.9589C87.6198 71.9874 87.6198 72.0163 87.6233 72.0449C87.6233 72.1777 87.7328 72.2403 87.9441 72.2403H90.7527C90.8828 72.2512 91.0133 72.224 91.1283 72.1621C91.2107 72.0822 91.2655 71.9782 91.2847 71.8651L91.9263 68.9499Z" fill="white"/>
<path d="M94.3047 73.9988L95.8694 66.8396H97.794L97.6219 67.6212C97.7712 67.3743 97.9812 67.1699 98.2321 67.0272C98.4736 66.9018 98.7422 66.8373 99.0145 66.8396H101.135L100.767 68.5512H97.8487C97.7365 68.5461 97.6252 68.5732 97.528 68.6294C97.4336 68.7118 97.3724 68.8257 97.3559 68.9498L96.2762 73.9988H94.3047Z" fill="white"/>
<path d="M101.831 73.9988C101.555 74.0188 101.28 73.9473 101.049 73.7956C100.966 73.7167 100.901 73.6205 100.859 73.5138C100.817 73.4071 100.799 73.2925 100.806 73.1781C100.812 73.0017 100.836 72.8262 100.877 72.6545L101.237 70.9585C101.281 70.7306 101.349 70.508 101.44 70.2942C101.506 70.1324 101.604 69.986 101.729 69.8643C101.848 69.7596 101.991 69.6846 102.144 69.6455C102.339 69.6015 102.539 69.5806 102.739 69.5829H106.447L106.181 70.8022H103.529C103.427 70.7942 103.326 70.8188 103.239 70.8725C103.166 70.955 103.122 71.0594 103.114 71.1695L102.95 71.9511C102.948 71.9875 102.948 72.0241 102.95 72.0605C102.946 72.089 102.946 72.1179 102.95 72.1465C102.95 72.2715 103.036 72.334 103.224 72.334H106.596L107.378 68.8248C107.383 68.7728 107.383 68.7205 107.378 68.6685C107.38 68.6345 107.374 68.6006 107.36 68.5694C107.347 68.5382 107.326 68.5106 107.3 68.4887C107.218 68.4384 107.122 68.4165 107.026 68.4262H102.082L102.41 66.8631H108.387C108.699 66.836 109.01 66.9071 109.279 67.0663C109.37 67.147 109.44 67.2477 109.485 67.3602C109.53 67.4728 109.548 67.5943 109.537 67.715C109.531 67.8991 109.507 68.0823 109.467 68.2621L108.223 74.0222L101.831 73.9988ZM111.039 73.9988C110.733 74.0231 110.427 73.9521 110.163 73.7956C110.071 73.7156 110 73.6153 109.953 73.5027C109.907 73.3901 109.888 73.2682 109.897 73.1469C109.904 72.9627 109.927 72.7796 109.968 72.5998L111.642 64.831H113.66L113.23 66.824H115.006L114.67 68.3871H112.894L112.111 72.0527V72.2324C112.111 72.2559 112.221 72.4356 112.432 72.4356H113.762L113.426 73.9988H111.039ZM114.67 73.9988L116.234 66.8396H118.253L116.688 73.9988H114.67ZM116.399 65.9955L116.86 63.8462H118.918L118.456 65.9955H116.399ZM119.591 73.9988C119.285 74.0231 118.978 73.9521 118.714 73.7956C118.623 73.7156 118.551 73.6153 118.504 73.5027C118.458 73.3901 118.439 73.2682 118.448 73.1469C118.454 72.9622 118.48 72.7787 118.527 72.5998L119.458 68.2386C119.523 67.841 119.709 67.4728 119.99 67.1835C120.313 66.9293 120.721 66.8065 121.132 66.8396H126.092C126.406 66.8155 126.719 66.8863 126.992 67.0428C127.082 67.1236 127.153 67.2242 127.197 67.3368C127.242 67.4494 127.26 67.5708 127.25 67.6915C127.243 67.8757 127.22 68.0588 127.179 68.2386L126.241 72.5998C126.174 72.9978 125.992 73.3675 125.716 73.6627C125.381 73.9117 124.967 74.0311 124.551 73.9988H119.591ZM124.997 68.9499C125.002 68.8927 125.002 68.8351 124.997 68.7779C124.997 68.6294 124.864 68.5513 124.606 68.5513H121.75C121.637 68.5427 121.525 68.57 121.429 68.6294C121.349 68.7183 121.299 68.8307 121.288 68.9499L120.702 71.8651C120.703 71.8963 120.703 71.9277 120.702 71.9589V72.0449C120.702 72.0683 120.811 72.2403 121.022 72.2403H123.878C124.008 72.2512 124.139 72.224 124.253 72.1621C124.333 72.0821 124.383 71.9773 124.394 71.8651L124.997 68.9499ZM133.219 73.9988L134.299 68.9499C134.305 68.8927 134.305 68.8351 134.299 68.7779C134.299 68.6294 134.182 68.5513 133.939 68.5513H130.927C130.815 68.5447 130.703 68.5719 130.606 68.6294C130.523 68.7183 130.469 68.8299 130.45 68.9499L129.37 73.9988H127.344L128.908 66.8396H130.857L130.677 67.6212C130.826 67.3771 131.037 67.1764 131.288 67.0393C131.539 66.9021 131.822 66.8333 132.108 66.8396H135.386C135.685 66.8171 135.983 66.8882 136.239 67.0428C136.333 67.1244 136.406 67.2273 136.453 67.3428C136.499 67.4584 136.517 67.5833 136.505 67.7072C136.507 67.8858 136.488 68.0641 136.45 68.2386L135.206 73.9988H133.219ZM143.648 70.9116L142.983 74.0379H140.824L142.341 67.0038H144.532L144.055 69.1843H147.067C147.135 69.1922 147.205 69.1859 147.271 69.1657C147.337 69.1455 147.398 69.112 147.45 69.0671C147.547 68.9391 147.609 68.7884 147.63 68.6294L148.053 66.7537C148.057 66.686 148.057 66.6181 148.053 66.5504C148.058 66.5112 148.051 66.4713 148.035 66.4354C148.018 66.3995 147.992 66.3689 147.959 66.3472C147.867 66.3105 147.768 66.2945 147.669 66.3003H142.459L142.866 64.4324H148.976C149.346 64.4015 149.716 64.4891 150.032 64.6825C150.14 64.7809 150.224 64.9023 150.278 65.0376C150.332 65.1729 150.355 65.3187 150.345 65.4641C150.353 65.5603 150.353 65.657 150.345 65.7532C150.345 65.847 150.345 65.9643 150.29 66.0815L149.617 69.2078C149.54 69.6822 149.319 70.1215 148.984 70.4661C148.586 70.7686 148.09 70.9134 147.591 70.8725L143.648 70.9116ZM151.135 73.9988C150.859 74.0182 150.584 73.9468 150.353 73.7956C150.269 73.7167 150.205 73.6205 150.163 73.5138C150.121 73.4071 150.103 73.2925 150.11 73.1781C150.116 73.0017 150.14 72.8262 150.181 72.6545L150.548 70.9585C150.591 70.731 150.656 70.5084 150.744 70.2942C150.81 70.1324 150.908 69.986 151.033 69.8643C151.156 69.7611 151.301 69.6863 151.456 69.6455C151.648 69.6019 151.845 69.5809 152.043 69.5829H155.751L155.493 70.8022H152.841C152.739 70.7918 152.637 70.8166 152.551 70.8725C152.475 70.9539 152.428 71.0585 152.418 71.1695L152.262 71.9511C152.264 71.9875 152.264 72.0241 152.262 72.0605C152.258 72.089 152.258 72.1179 152.262 72.1465C152.262 72.2715 152.356 72.334 152.536 72.334H155.915L156.698 68.8248C156.707 68.7731 156.707 68.7202 156.698 68.6685C156.699 68.6353 156.694 68.602 156.682 68.571C156.67 68.54 156.651 68.512 156.627 68.4887C156.545 68.4395 156.449 68.4176 156.353 68.4262H151.409L151.738 66.8631H157.707C158.02 66.839 158.334 66.9098 158.607 67.0663C158.697 67.147 158.767 67.2477 158.812 67.3602C158.857 67.4728 158.875 67.5943 158.865 67.715C158.858 67.8991 158.835 68.0823 158.794 68.2621L157.55 74.0222L151.135 73.9988ZM158.966 73.9988L160.531 66.8396H162.495L162.323 67.6212C162.472 67.3744 162.682 67.1699 162.933 67.0272C163.175 66.9018 163.443 66.8374 163.715 66.8396H165.859L165.484 68.5513H162.573C162.461 68.5461 162.35 68.5732 162.252 68.6294C162.158 68.7118 162.097 68.8257 162.08 68.9499L161.001 73.9988H158.966ZM166.845 73.9988C166.539 74.0231 166.233 73.9521 165.969 73.7956C165.877 73.7156 165.805 73.6153 165.759 73.5027C165.712 73.3901 165.693 73.2682 165.703 73.1469C165.709 72.9627 165.733 72.7796 165.773 72.5998L167.424 64.831H169.442L169.012 66.824H170.772L170.436 68.3871H168.676L167.893 72.0527V72.2324C167.893 72.2559 168.003 72.4356 168.214 72.4356H169.544L169.208 73.9988H166.845ZM174.402 73.9988L174.801 72.1308H180.012C180.148 72.1424 180.283 72.1065 180.395 72.0292C180.494 71.9297 180.557 71.8007 180.575 71.6619L180.865 70.3332C180.869 70.2812 180.869 70.2289 180.865 70.1769C180.865 70.0128 180.739 69.9268 180.489 69.9268H176.64C176.334 69.9535 176.03 69.8642 175.787 69.6767C175.694 69.5872 175.622 69.4787 175.574 69.3587C175.527 69.2387 175.506 69.1099 175.513 68.9811C175.516 68.8419 175.532 68.7032 175.56 68.5669L176.092 66.0893C176.172 65.614 176.396 65.1746 176.734 64.831C177.134 64.5266 177.633 64.3817 178.134 64.4246H184.205L183.814 66.2456H178.643C178.583 66.2394 178.522 66.2451 178.464 66.2626C178.406 66.28 178.353 66.3088 178.306 66.3472C178.226 66.4496 178.172 66.5705 178.15 66.6989L177.876 67.9573V68.1448C177.876 68.1761 177.986 68.3559 178.197 68.3559H182.109C182.421 68.3286 182.733 68.4176 182.985 68.606C183.077 68.6992 183.148 68.8107 183.194 68.9332C183.24 69.0558 183.259 69.1866 183.251 69.3172C183.248 69.4509 183.235 69.5842 183.212 69.7158L182.648 72.3262C182.571 72.8006 182.35 73.2399 182.015 73.5846C181.62 73.8887 181.127 74.0362 180.63 73.9988H174.402ZM189.502 73.9988L189.658 73.2172C189.509 73.4618 189.299 73.6637 189.048 73.8034C188.805 73.9244 188.537 73.986 188.266 73.9832H185.089C184.79 74.0019 184.491 73.934 184.229 73.7878C184.132 73.7078 184.056 73.6056 184.007 73.49C183.958 73.3744 183.937 73.2486 183.947 73.1234C183.951 72.9411 183.977 72.76 184.025 72.5841L185.261 66.824H187.28L186.2 71.8651V72.0527C186.2 72.2012 186.318 72.2793 186.552 72.2793H189.447C189.566 72.2885 189.684 72.2583 189.783 72.1934C189.866 72.1013 189.921 71.9873 189.94 71.8651L191.035 66.8162H193.054L191.489 73.9753L189.502 73.9988ZM195.69 73.9988L196.05 72.3028H198.475C198.583 72.3096 198.69 72.2823 198.78 72.2246C198.863 72.1358 198.918 72.0242 198.937 71.9042L199.571 69.0046C199.576 68.9448 199.576 68.8846 199.571 68.8248C199.575 68.7914 199.57 68.7574 199.558 68.726C199.546 68.6947 199.526 68.6668 199.5 68.645C199.428 68.6063 199.347 68.5899 199.266 68.5982H196.136L194.305 77H192.287L194.493 66.8396H200.666C200.978 66.8104 201.292 66.8846 201.558 67.0507C201.649 67.1322 201.72 67.2341 201.765 67.3482C201.81 67.4622 201.827 67.5852 201.816 67.7072C201.818 67.8858 201.799 68.0641 201.761 68.2386L200.822 72.5998C200.781 73.0093 200.579 73.3859 200.261 73.6478C199.944 73.9098 199.535 74.0359 199.125 73.9988H195.69ZM204.687 73.9988L205.047 72.3028H207.472C207.582 72.3092 207.691 72.2819 207.785 72.2246C207.865 72.1348 207.917 72.0233 207.934 71.9042L208.568 69.0046C208.573 68.9448 208.573 68.8846 208.568 68.8248C208.571 68.7921 208.567 68.7591 208.556 68.728C208.545 68.697 208.528 68.6687 208.505 68.645C208.43 68.6073 208.346 68.5911 208.263 68.5982H205.133L203.302 77H201.284L203.49 66.8396H209.671C209.986 66.8121 210.301 66.8861 210.571 67.0507C210.662 67.1322 210.733 67.2341 210.778 67.3482C210.823 67.4622 210.84 67.5852 210.829 67.7072C210.828 67.8861 210.807 68.0643 210.766 68.2386L209.835 72.5998C209.769 73.0113 209.561 73.3871 209.248 73.6627C208.925 73.9004 208.53 74.0192 208.13 73.9988H204.687ZM210.977 73.9988L213.168 63.8384H215.186L212.996 73.9988H210.977ZM213.989 77L214.365 75.2884H219.216C219.334 75.3 219.453 75.2696 219.552 75.2024C219.633 75.1094 219.687 74.9958 219.708 74.8741L219.904 73.9988H215.75C215.446 74.022 215.143 73.951 214.881 73.7956C214.789 73.7156 214.718 73.6153 214.671 73.5027C214.625 73.3901 214.606 73.2682 214.615 73.1469C214.622 72.9627 214.645 72.7796 214.686 72.5998L215.93 66.8396H217.948L216.837 71.9745C216.831 72.0081 216.831 72.0426 216.837 72.0761C216.833 72.1046 216.833 72.1336 216.837 72.1621C216.837 72.3106 216.955 72.3888 217.181 72.3888H220.311L221.508 66.8396H223.542L221.633 75.5932C221.573 75.9947 221.386 76.3668 221.101 76.6561C220.768 76.9105 220.353 77.033 219.935 77H213.989Z" fill="white"/>
</svg>
