<svg width="36" height="36" viewBox="0 0 36 36" fill="none" xmlns="http://www.w3.org/2000/svg">
<path fill-rule="evenodd" clip-rule="evenodd" d="M18 0.5C8.33594 0.5 0.5 8.53125 0.5 18.4453C0.5 26.375 5.51562 33.0938 12.4687 35.4688C13.3437 35.6328 13.6641 35.0781 13.6641 34.6016C13.6641 34.1719 13.6484 33.0469 13.6406 31.5469C8.77344 32.6328 7.74219 29.1406 7.74219 29.1406C6.94531 27.0703 5.79688 26.5156 5.79688 26.5156C4.21094 25.3984 5.91406 25.4219 5.91406 25.4219C7.67187 25.5469 8.59375 27.2734 8.59375 27.2734C10.1562 30.0156 12.6875 29.2266 13.6875 28.7656C13.8437 27.6094 14.2969 26.8125 14.7969 26.3672C10.9141 25.9141 6.82812 24.375 6.82812 17.5C6.82812 15.5391 7.50781 13.9375 8.625 12.6875C8.44531 12.2344 7.84375 10.4062 8.79687 7.9375C8.79687 7.9375 10.2656 7.45312 13.6094 9.77344C15.0078 9.375 16.5 9.17969 17.9922 9.17188C19.4766 9.17969 20.9766 9.375 22.375 9.77344C25.7187 7.45312 27.1797 7.9375 27.1797 7.9375C28.1328 10.4062 27.5312 12.2344 27.3516 12.6875C28.4688 13.9453 29.1484 15.5469 29.1484 17.5C29.1484 24.3906 25.0547 25.9062 21.1562 26.3516C21.7812 26.9062 22.3438 28 22.3438 29.6719C22.3438 32.0703 22.3203 34.0078 22.3203 34.5938C22.3203 35.0703 22.6328 35.6328 23.5234 35.4531C30.4922 33.0859 35.5 26.3672 35.5 18.4453C35.5 8.53125 27.6641 0.5 18 0.5Z" fill="white"/>
</svg>
