<svg width="36" height="36" viewBox="0 0 36 36" fill="none" xmlns="http://www.w3.org/2000/svg">
<path d="M19.2167 16.1213V16.067C19.2054 16.0853 19.1935 16.1036 19.1815 16.1213H19.2167Z" fill="black"/>
<path d="M32.7591 0.292847H3.04119C1.61879 0.292847 0.46521 1.41891 0.46521 2.80674V32.8725C0.46521 34.2597 1.61879 35.3857 3.04119 35.3857H32.7591C34.1837 35.3857 35.3372 34.2589 35.3372 32.8725V2.80674C35.3372 1.41821 34.1829 0.292847 32.7591 0.292847ZM11.0351 29.67H5.76816V13.824H11.0351V29.67ZM8.40199 11.6593H8.36671C6.60001 11.6593 5.45701 10.4422 5.45701 8.92178C5.45701 7.36744 6.63528 6.18423 8.43656 6.18423C10.2386 6.18423 11.347 7.36744 11.3823 8.92178C11.3823 10.4422 10.2378 11.6593 8.40199 11.6593ZM30.0279 29.67H24.761V21.1907C24.761 19.0613 23.999 17.6079 22.0933 17.6079C20.6384 17.6079 19.772 18.5879 19.3903 19.5347C19.2513 19.8727 19.2174 20.3454 19.2174 20.8195V29.6693H13.9505C13.9505 29.6693 14.0196 15.3085 13.9505 13.8233H19.2174V16.0662C19.9173 14.9867 21.169 13.4493 23.9651 13.4493C27.4301 13.4493 30.0286 15.7149 30.0286 20.5825L30.0279 29.67Z" fill="white"/>
</svg>
