<svg width="44" height="44" viewBox="0 0 44 44" fill="none" xmlns="http://www.w3.org/2000/svg">
<path fill-rule="evenodd" clip-rule="evenodd" d="M43.3222 21.6611C43.3222 33.6242 33.6242 43.3222 21.6611 43.3222C9.69799 43.3222 0 33.6242 0 21.6611C0 9.698 9.69799 0 21.6611 0C33.6242 0 43.3222 9.698 43.3222 21.6611ZM10.4112 9.41108H32.9112C34.4575 9.41108 35.7237 10.6772 35.7237 12.2236V29.0986C35.7237 30.6449 34.4575 31.9111 32.9112 31.9111H10.4112C8.86412 31.9111 7.59867 30.6449 7.59867 29.0986V12.2236C7.59867 10.6772 8.86412 9.41108 10.4112 9.41108ZM30.0987 29.0986H32.9112V12.2236H31.2234L21.6612 18.1301L12.0989 12.2236H10.4112V29.0986H13.2237V16.7238L21.6612 22.0673L30.0987 16.7238V29.0986Z" fill="#686868"/>
</svg>
