<svg width="211" height="915" viewBox="0 0 211 915" fill="none" xmlns="http://www.w3.org/2000/svg">
<path d="M14.9704 243.191L86.4469 269.495M14.9704 243.191L42.5066 281.346M14.9704 243.191L44.8984 202.831M86.4469 269.495L80.9308 330.033M86.4469 269.495L42.5066 281.346M86.4469 269.495L128.484 286.819M86.4469 269.495L74.8264 162.472M86.4469 269.495L44.8984 202.831M86.4469 269.495L113.924 142.257M80.9308 330.033L128.484 286.819M80.9308 330.033L42.5066 281.346M80.9308 330.033L53.4454 359.201M80.9308 330.033L95.8547 361.921M128.484 286.819L113.924 142.257M42.5066 281.346L53.4454 359.201M53.4454 359.201L95.8547 361.921M53.4454 359.201L69.4213 381.137M53.4454 359.201L63.3431 395.899M95.8547 361.921L69.4213 381.137M95.8547 361.921L95.7542 425.488M69.4213 381.137L63.3431 395.899M69.4213 381.137L95.7542 425.488M63.3431 395.899L95.7542 425.488M63.3431 395.899L105.044 459.932L95.7542 425.488M74.8264 162.472L44.8984 202.831M74.8264 162.472L40.788 123.652M74.8264 162.472L84.2081 72.5747M74.8264 162.472L113.924 142.257M44.8984 202.831L40.788 123.652M44.8984 202.831L0.713455 106.145M113.924 142.257L165.995 103.005M113.924 142.257L110.567 65.4653M113.924 142.257L99.0662 107.416M40.788 123.652L0.713455 106.145M40.788 123.652L84.2081 72.5747M0.713455 106.145L84.2081 72.5747M0.713455 106.145L16.6931 68.4176M84.2081 72.5747L36.7116 21.1552M84.2081 72.5747L16.6931 68.4176M84.2081 72.5747L108.643 21.4379M84.2081 72.5747L99.0662 107.416M84.2081 72.5747L110.567 65.4653M36.7116 21.1552L16.6931 68.4176M36.7116 21.1552L108.643 21.4379M108.643 21.4379L110.567 65.4653M108.643 21.4379L183.127 1.3486M165.995 103.005L110.567 65.4653M165.995 103.005L183.127 1.3486M110.567 65.4653L99.0662 107.416M110.567 65.4653L183.127 1.3486M195.111 676.672L123.635 650.368M195.111 676.672L167.575 638.517M195.111 676.672L165.183 717.032M123.635 650.368L129.151 589.83M123.635 650.368L167.575 638.517M123.635 650.368L81.5977 633.044M123.635 650.368L135.255 757.391M123.635 650.368L165.183 717.032M123.635 650.368L96.1572 777.606M129.151 589.83L81.5977 633.044M129.151 589.83L167.575 638.517M129.151 589.83L156.636 560.662M129.151 589.83L114.227 557.942M81.5977 633.044L96.1572 777.606M167.575 638.517L156.636 560.662M156.636 560.662L114.227 557.942M156.636 560.662L140.66 538.726M156.636 560.662L146.738 523.964M114.227 557.942L140.66 538.726M114.227 557.942L114.327 494.375M140.66 538.726L146.738 523.964M140.66 538.726L114.327 494.375M146.738 523.964L114.327 494.375M146.738 523.964L105.037 459.931L114.327 494.375M135.255 757.391L165.183 717.032M135.255 757.391L169.293 796.211M135.255 757.391L125.873 847.288M135.255 757.391L96.1572 777.606M165.183 717.032L169.293 796.211M165.183 717.032L209.368 813.718M96.1572 777.606L44.0868 816.858M96.1572 777.606L99.5142 854.398M96.1572 777.606L111.015 812.447M169.293 796.211L209.368 813.718M169.293 796.211L125.873 847.288M209.368 813.718L125.873 847.288M209.368 813.718L193.388 851.445M125.873 847.288L173.37 898.708M125.873 847.288L193.388 851.445M125.873 847.288L101.439 898.425M125.873 847.288L111.015 812.447M125.873 847.288L99.5142 854.398M173.37 898.708L193.388 851.445M173.37 898.708L101.439 898.425M101.439 898.425L99.5142 854.398M101.439 898.425L25.7393 914.008M44.0868 816.858L99.5142 854.398M44.0868 816.858L25.7393 914.008M99.5142 854.398L111.015 812.447M99.5142 854.398L25.7393 914.008" stroke="url(#paint0_linear_42_4)" stroke-width="1.2"/>
<defs>
<linearGradient id="paint0_linear_42_4" x1="123.151" y1="933.579" x2="87.4873" y2="-13.5852" gradientUnits="userSpaceOnUse">
<stop offset="0.0619861" stop-color="#686868" stop-opacity="0"/>
<stop offset="0.375" stop-color="#686868"/>
<stop offset="0.500388" stop-color="white"/>
<stop offset="0.619792" stop-color="#686868"/>
<stop offset="0.937406" stop-color="#686868" stop-opacity="0"/>
</linearGradient>
</defs>
</svg>
