<?xml version="1.0" encoding="utf-8"?>
<!-- Generator: Adobe Illustrator 25.2.1, SVG Export Plug-In . SVG Version: 6.00 Build 0)  -->
<svg version="1.1" id="Layer_1" xmlns="http://www.w3.org/2000/svg" xmlns:xlink="http://www.w3.org/1999/xlink" x="0px" y="0px"
	 viewBox="0 0 60 60" style="enable-background:new 0 0 60 60;" xml:space="preserve">
<style type="text/css">
	.st0{fill:#686868;}
</style>
<path class="st0" d="M51.3,56.8c-1.4,0-2.6-0.8-3.1-2.1L35.1,22.3c-0.6-1.5-1.9-2-3-2c-1,0-2.4,0.5-3,2l-3.4,8.5
	c-0.4,1-0.3,2.1,0.3,3c0.6,0.9,1.6,1.4,2.7,1.4h7.7c0.4,0,0.8,0.4,0.8,0.8s-0.4,0.8-0.8,0.8h-7.7c-1.6,0-3.1-0.8-4-2.1
	c-0.9-1.3-1.1-3-0.5-4.5l3.4-8.5c0.7-1.9,2.5-3,4.5-3c2,0,3.7,1.2,4.5,3l13.1,32.4c0.3,0.7,0.9,1.1,1.6,1.1c0.6,0,1.1-0.3,1.4-0.8
	c0.3-0.5,0.4-1.1,0.2-1.6l-17.1-42c-0.5-1.2-1.7-2-3-2h-1.1c-1.3,0-2.5,0.8-3,2L11.5,52.8c-0.2,0.5-0.2,1.1,0.2,1.6
	c0.3,0.5,0.8,0.8,1.4,0.8c0.7,0,1.3-0.4,1.6-1.1l4.6-11.4c0.7-1.8,2.5-3,4.5-3h8.8c0.4,0,0.8,0.4,0.8,0.8s-0.4,0.8-0.8,0.8h-8.8
	c-1.3,0-2.5,0.8-3,2l-4.6,11.4c-0.5,1.3-1.7,2.1-3.1,2.1c-1.1,0-2.1-0.5-2.8-1.5c-0.6-0.9-0.7-2.1-0.3-3.1l17.2-42
	c0.7-1.8,2.5-3,4.4-3h1.1c2,0,3.7,1.2,4.4,3l17.1,42c0.4,1,0.3,2.2-0.3,3.1C53.4,56.3,52.4,56.8,51.3,56.8z M5,52.8
	c-0.1,0-0.2,0-0.3-0.1c-0.4-0.2-0.6-0.6-0.4-1L22.9,6.2c0.7-1.8,2.5-3,4.4-3h3c0.4,0,0.8,0.4,0.8,0.8s-0.4,0.8-0.8,0.8h-3
	c-1.3,0-2.5,0.8-3,2L5.7,52.3C5.6,52.6,5.3,52.8,5,52.8z"/>
</svg>
