<svg width="35" height="35" viewBox="0 0 35 35" fill="none" xmlns="http://www.w3.org/2000/svg">
<path fill-rule="evenodd" clip-rule="evenodd" d="M2 0C0.895431 0 0 0.89543 0 2V33C0 34.1046 0.89543 35 2 35H33C34.1046 35 35 34.1046 35 33V2C35 0.895431 34.1046 0 33 0H2ZM11.25 17.5C11.25 20.9375 14.0625 23.75 17.5 23.75C20.9375 23.75 23.75 20.9375 23.75 17.5C23.75 14.0625 20.9375 11.25 17.5 11.25C14.0625 11.25 11.25 14.0625 11.25 17.5ZM13.3333 17.5C13.3333 15.2083 15.2083 13.3333 17.5 13.3333C19.7917 13.3333 21.6667 15.2083 21.6667 17.5C21.6667 19.7917 19.7917 21.6667 17.5 21.6667C15.2083 21.6667 13.3333 19.7917 13.3333 17.5ZM17.5 9.16667C16.875 9.16667 16.4583 8.75 16.4583 8.125V6.04167C16.4583 5.41667 16.875 5 17.5 5C18.125 5 18.5417 5.41667 18.5417 6.04167V8.125C18.5417 8.75 18.125 9.16667 17.5 9.16667ZM16.4583 28.9583C16.4583 29.5833 16.875 30 17.5 30C18.125 30 18.5417 29.5833 18.5417 28.9583V26.875C18.5417 26.25 18.125 25.8333 17.5 25.8333C16.875 25.8333 16.4583 26.25 16.4583 26.875V28.9583ZM10.8333 11.875C10.5208 11.875 10.3125 11.7708 10.1042 11.5625L8.64584 10.1041C8.22918 9.68747 8.22918 9.06247 8.64584 8.6458C9.06251 8.22913 9.68751 8.22913 10.1042 8.6458L11.5625 10.1041C11.9792 10.5208 11.9792 11.1458 11.5625 11.5625C11.4583 11.7708 11.1458 11.875 10.8333 11.875ZM24.8958 26.3542C25.1042 26.5625 25.3125 26.6667 25.625 26.6667C25.8333 26.6667 26.1458 26.5625 26.3542 26.3542C26.7708 25.9375 26.7708 25.3125 26.3542 24.8958L24.8958 23.4375C24.4792 23.0208 23.8542 23.0208 23.4375 23.4375C23.0208 23.8542 23.0208 24.4792 23.4375 24.8958L24.8958 26.3542ZM8.125 18.5417H6.04167C5.41667 18.5417 5 18.125 5 17.5C5 16.875 5.41667 16.4583 6.04167 16.4583H8.125C8.75 16.4583 9.16667 16.875 9.16667 17.5C9.16667 18.125 8.75 18.5417 8.125 18.5417ZM26.875 18.5417H28.9583C29.5833 18.5417 30 18.125 30 17.5C30 16.875 29.5833 16.4583 28.9583 16.4583H26.875C26.25 16.4583 25.8333 16.875 25.8333 17.5C25.8333 18.125 26.25 18.5417 26.875 18.5417ZM9.37501 26.6667C9.06251 26.6667 8.85418 26.5625 8.64584 26.3542C8.22918 25.9375 8.22918 25.3125 8.64584 24.8958L10.1042 23.4375C10.5208 23.0208 11.1458 23.0208 11.5625 23.4375C11.9792 23.8542 11.9792 24.4792 11.5625 24.8958L10.1042 26.3542C9.89584 26.5625 9.68751 26.6667 9.37501 26.6667ZM23.4375 11.5625C23.6458 11.7708 23.8542 11.875 24.1667 11.875C24.375 11.875 24.6875 11.7708 24.8958 11.5625L26.3542 10.1041C26.7708 9.68747 26.7708 9.06247 26.3542 8.6458C25.9375 8.22913 25.3125 8.22913 24.8958 8.6458L23.4375 10.1041C23.0208 10.5208 23.0208 11.1458 23.4375 11.5625Z" fill="white"/>
</svg>
