<svg xmlns="http://www.w3.org/2000/svg" viewBox="0 0 239 362"><defs><style>.cls-1{fill:#848484;}.cls-1,.cls-2,.cls-3,.cls-4,.cls-5,.cls-6{stroke:#000;stroke-miterlimit:10;}.cls-1,.cls-3,.cls-4,.cls-5{stroke-width:6px;}.cls-2{fill:none;stroke-width:4px;}.cls-3{fill:#7f7f7f;stroke-linecap:round;}.cls-4{fill:#fff;}.cls-5{fill:lime;}.cls-6{stroke-width:3px;}</style></defs><g id="Layer_2" data-name="Layer 2"><g id="Layer_1-2" data-name="Layer 1"><rect class="cls-1" x="3" y="3" width="233" height="356" rx="4"/><rect class="cls-2" x="22" y="24" width="193" height="316" rx="4"/><line class="cls-3" x1="155.88" y1="180.5" x2="172.9" y2="180.5"/><polyline class="cls-4" points="97.2 135.25 97.2 146.25 141.02 146.25 141.02 135.25"/><line class="cls-3" x1="118.92" y1="146.25" x2="118.92" y2="164.75"/><path class="cls-3" d="M111.16,147.25a31.25,31.25,0,0,1-8.14,16"/><path class="cls-3" d="M126.77,147a31.25,31.25,0,0,0,8.14,16"/><line class="cls-3" x1="151.02" y1="187.75" x2="164.98" y2="198.75"/><line class="cls-3" x1="164.98" y1="162.25" x2="151.02" y2="173.25"/><polyline class="cls-4" points="97.2 228.75 97.2 217.75 141.02 217.75 141.02 228.75"/><line class="cls-3" x1="118.92" y1="217.75" x2="118.92" y2="199.25"/><path class="cls-3" d="M111.16,216.75a31.25,31.25,0,0,0-8.14-16"/><path class="cls-3" d="M126.77,217a31.25,31.25,0,0,1,8.14-16"/><polyline class="cls-5" points="150.82 24.25 150.82 135.25 87.02 135.25 87.02 24.25"/><polyline class="cls-5" points="87.02 339.75 87.02 228.75 150.82 228.75 150.82 339.75"/><line class="cls-3" x1="82.21" y1="181.49" x2="65.19" y2="181.49"/><line class="cls-3" x1="87.07" y1="188.74" x2="73.11" y2="199.74"/><line class="cls-3" x1="73.11" y1="163.24" x2="87.07" y2="174.24"/><circle class="cls-6" cx="223.5" cy="15.5" r="3.5"/><circle class="cls-6" cx="14" cy="15" r="3.5"/><circle class="cls-6" cx="224" cy="347" r="3.5"/><circle class="cls-6" cx="14" cy="347" r="3.5"/></g></g></svg>