<svg xmlns="http://www.w3.org/2000/svg" viewBox="0 0 241.66 241.66"><defs><style>.cls-1{fill:#fff;stroke:#000;stroke-miterlimit:10;stroke-width:12px;}</style></defs><g id="Layer_2" data-name="Layer 2"><g id="Layer_1-2" data-name="Layer 1"><line class="cls-1" x1="30.44" y1="5.95" x2="30.48" y2="6.06"/><path class="cls-1" d="M30.48,6.06,46.19,46.18l.42.17a38.4,38.4,0,0,1,32.7-10.87,65.51,65.51,0,0,0-9.62-12.2C57.78,11.38,43,5.32,30.48,6.06Z"/><line class="cls-1" x1="6.06" y1="30.48" x2="5.95" y2="30.44"/><path class="cls-1" d="M79.77,35.54l-.46-.06a38.4,38.4,0,0,0-32.7,10.87l-.42-.17L6.06,30.48C5.32,43,11.38,57.78,23.28,69.69a65.51,65.51,0,0,0,12.2,9.62c0,.15,0,.31.06.46A38.49,38.49,0,0,0,97.87,103.7h0c.83-.67,1.62-1.39,2.41-2.15.26-.24.52-.5.77-.75s.34-.34.49-.51c.76-.79,1.48-1.58,2.15-2.41h0A38.49,38.49,0,0,0,79.77,35.54ZM78.43,78.17a.74.74,0,0,1-.13.12l-.13.14A6.5,6.5,0,1,1,69,69.24l.14-.13.12-.13a6.5,6.5,0,1,1,9.19,9.19Z"/><path class="cls-1" d="M234,131.39A15,15,0,1,1,207.27,145c-1.18-2.26-29.73-55-104.48-42.19C90,177.54,142.71,206.09,145,207.27A15,15,0,1,1,131.39,234c-.85-.43-21.07-10.87-37.83-34.42-12.74-17.93-25.66-46.67-22.23-87.34a38.38,38.38,0,0,0,26.54-8.57h0c.83-.67,1.62-1.39,2.41-2.15.26-.24.52-.5.77-.75s.34-.34.49-.51c.76-.79,1.48-1.58,2.15-2.41h0a38.38,38.38,0,0,0,8.57-26.54c40.67-3.43,69.41,9.49,87.34,22.23C223.16,110.32,233.6,130.54,234,131.39Z"/></g></g></svg>