<svg xmlns="http://www.w3.org/2000/svg" viewBox="0 0 942.42 608.92"><defs><style>.cls-1{fill:#fff;stroke-width:8px;}.cls-1,.cls-2,.cls-3{stroke:#000;stroke-miterlimit:10;}.cls-2{fill:none;stroke-linecap:round;stroke-width:57px;}.cls-3{fill:#f70b0b;stroke-width:6px;}.cls-4{font-size:112.35px;font-family:Impact;}</style></defs><g id="Layer_2" data-name="Layer 2"><g id="Layer_6" data-name="Layer 6"><rect class="cls-1" x="467.5" y="50.5" width="446.42" height="554.42"/><line class="cls-2" x1="913.92" y1="28.5" x2="28.5" y2="28.5"/><polygon class="cls-3" points="752.13 194.43 832.27 200.28 776.85 262.86 854.74 278.65 817.29 362.86 870.81 362.86 806.06 420.18 852.5 476.9 744.59 476.9 744.59 535.76 664.49 511.41 617.3 553.52 582.1 494.45 527.42 482.75 593.34 436.55 513.94 415.5 588.84 366.96 501.95 342.39 584.35 275.14 524.43 243.56 609.81 214.9 585.85 148.23 678.72 183.91 760.37 116.07 752.13 194.43"/><text class="cls-4" transform="matrix(0, 0.78, -1, 0, 644.65, 198.33)">BOOM!!!</text></g></g></svg>