<svg xmlns="http://www.w3.org/2000/svg" viewBox="0 0 942.42 608.92"><defs><style>.cls-1{fill:#fff;stroke-width:8px;}.cls-1,.cls-2,.cls-3{stroke:#000;stroke-miterlimit:10;}.cls-2{fill:none;stroke-linecap:round;stroke-width:57px;}.cls-3{fill:#f70b0b;stroke-width:6px;}</style></defs><g id="Layer_2" data-name="Layer 2"><g id="Layer_6" data-name="Layer 6"><rect class="cls-1" x="467.5" y="50.5" width="446.42" height="554.42"/><line class="cls-2" x1="913.92" y1="28.5" x2="28.5" y2="28.5"/><polygon class="cls-3" points="752 206 839.37 188.19 782 269 868 295 794 355 871 402 799 426 833 510 745 486 749 582 673 515 604 575 618 488 536 503 593.34 436.55 514 405 588.84 366.96 505 308 602 275 532 206 609.81 214.9 610 118 703 182 774 110 752 206"/><path d="M719.53,225.23H644.65V205.05a3.5,3.5,0,0,1,.74-2.38,2.69,2.69,0,0,1,2.11-.83,2.89,2.89,0,0,1,3,1.71c.4.95.64,1.49.74,1.65a1.5,1.5,0,0,0,.63.49,5.62,5.62,0,0,0,2.79.52h54.92a5.69,5.69,0,0,0,2.8-.52,1.5,1.5,0,0,0,.63-.49c.09-.16.34-.7.74-1.65a2.86,2.86,0,0,1,3-1.71,2.69,2.69,0,0,1,2.11.83,3.45,3.45,0,0,1,.74,2.38v20.18Zm-36.09,13.32a38.74,38.74,0,0,1-1.92,5.93,15.66,15.66,0,0,1-2.36,3.75,15,15,0,0,1-6.23,4.39,23.53,23.53,0,0,1-8.64,1.52q-9.37,0-14.65-5.4a15.71,15.71,0,0,1-3.86-6.14,28.45,28.45,0,0,1-1.13-8.81V228.7h5.76a8.25,8.25,0,0,0,.63,2.69,4.47,4.47,0,0,0,1.57,1.76q2,1.41,6.3,1.41h12.46a19.77,19.77,0,0,0,4.28-.36,7.1,7.1,0,0,0,2.79-1.35,4.57,4.57,0,0,0,1.43-1.58,8.88,8.88,0,0,0,.71-2.44h5.71a8.5,8.5,0,0,0,.55,2.46,4.25,4.25,0,0,0,1.26,1.6,6.85,6.85,0,0,0,2.14,1.16,8,8,0,0,0,2.41.51h12.51a13.19,13.19,0,0,0,3.1-.38,9.33,9.33,0,0,0,2.55-.94,5.93,5.93,0,0,0,1.87-1.82,7.17,7.17,0,0,0,.82-2.72h6v4.92q0,9.76-5.15,14.91a15.79,15.79,0,0,1-5.71,3.6,21.59,21.59,0,0,1-14.48,0,15.47,15.47,0,0,1-5.65-3.54,13.86,13.86,0,0,1-2.85-3.85A36.43,36.43,0,0,1,683.44,238.55Z"/><path d="M715.09,283.1A6.19,6.19,0,0,0,712.4,280a11,11,0,0,0-5-.9h-49q-4.83,0-6.81,1a4.81,4.81,0,0,0-2.36,3h-6q1-9.51,9.16-15.94Q663,258.8,682,258.81a62.69,62.69,0,0,1,17.25,2.2,36.84,36.84,0,0,1,13.09,6.54,24.89,24.89,0,0,1,6.25,7.11A19.37,19.37,0,0,1,721,283.1Zm0,3.51H721a19.58,19.58,0,0,1-2.42,8.46,24.82,24.82,0,0,1-6.25,7.13q-10.92,8.74-30.34,8.74-19,0-29.68-8.36-8.24-6.42-9.16-16h6a4.9,4.9,0,0,0,.85,1.73,4.78,4.78,0,0,0,1.51,1.14,15.5,15.5,0,0,0,6.81,1.15h49a11.27,11.27,0,0,0,4.61-.77,5.46,5.46,0,0,0,1.81-1.22A7.57,7.57,0,0,0,715.09,286.61Z"/><path d="M715.09,338.74a6.19,6.19,0,0,0-2.69-3.09,11,11,0,0,0-5-.9h-49c-3.22,0-5.49.35-6.81,1a4.81,4.81,0,0,0-2.36,3h-6q1-9.51,9.16-15.94Q663,314.45,682,314.45a62.68,62.68,0,0,1,17.25,2.21,36.66,36.66,0,0,1,13.09,6.53,24.89,24.89,0,0,1,6.25,7.11,19.37,19.37,0,0,1,2.42,8.44Zm0,3.51H721a19.58,19.58,0,0,1-2.42,8.46,24.82,24.82,0,0,1-6.25,7.13q-10.92,8.75-30.34,8.74-19,0-29.68-8.35-8.24-6.44-9.16-16h6a4.9,4.9,0,0,0,.85,1.73,4.78,4.78,0,0,0,1.51,1.14,15.48,15.48,0,0,0,6.81,1.16h49a11.26,11.26,0,0,0,4.61-.78,5.32,5.32,0,0,0,1.81-1.22A7.57,7.57,0,0,0,715.09,342.25Z"/><path d="M719.53,394.38l-30.77,8.44,16.62,3.72H687.17l-42.52-9.89v-2.27l63.14-16.62a11.72,11.72,0,0,0,4.28-1.8,3.32,3.32,0,0,0,1-1.93,3.31,3.31,0,0,1,3.4-2.78,3,3,0,0,1,2.22.79,3.09,3.09,0,0,1,.79,2.29ZM694.3,377.76l-16.57,4.54H661.22a30.25,30.25,0,0,0-3.62.15,10.91,10.91,0,0,0-2.42.66,7.85,7.85,0,0,0-3.62,2.49l-1.31,1.58a3.57,3.57,0,0,1-2.8,1.63q-2.81,0-2.8-3.21V374.85c0-2.15.91-3.22,2.74-3.22a2.72,2.72,0,0,1,1.35.28,4.4,4.4,0,0,1,1.07,1.09q3.29,4.75,11.41,4.76Zm25.23,32.38v20.18q0,3.21-2.85,3.21a2.86,2.86,0,0,1-3-1.71c-.4-.95-.65-1.5-.74-1.65a1.5,1.5,0,0,0-.63-.5,5.83,5.83,0,0,0-2.8-.51H654.63a5.76,5.76,0,0,0-2.79.51,1.5,1.5,0,0,0-.63.5,17.79,17.79,0,0,0-.74,1.65,2.89,2.89,0,0,1-3,1.71q-2.85,0-2.85-3.21V408.68a4.63,4.63,0,0,1,.74-2.84,2.6,2.6,0,0,1,2.22-1,2.79,2.79,0,0,1,3,2.06c.37,1.11.59,1.77.69,2a1.52,1.52,0,0,0,.63.6,5.86,5.86,0,0,0,3.12.64Z"/><path d="M664.51,451.65a7.25,7.25,0,0,1-3.13,5.87,12.87,12.87,0,0,1-15.08,0,7.11,7.11,0,0,1,0-11.78,12.83,12.83,0,0,1,15.08,0A7.25,7.25,0,0,1,664.51,451.65Zm56.56.21q0,3.76-3.84,6.21a17.9,17.9,0,0,1-9.77,2.44,28.77,28.77,0,0,1-5.12-.47c-1.78-.31-4.48-.93-8.1-1.84q-7.68-2-12.26-2.76a68.8,68.8,0,0,0-9-1,6.74,6.74,0,0,1-3.18-.66,2,2,0,0,1-.93-1.86,1.84,1.84,0,0,1,.79-1.65,5.18,5.18,0,0,1,2.61-.62c2.45-.17,4.18-.32,5.18-.43s2.57-.39,4.69-.82q5.16-1,11.09-2.65c4.64-1.29,7.82-2.09,9.54-2.42a30,30,0,0,1,5.65-.49,15.91,15.91,0,0,1,8.67,2.35A7.49,7.49,0,0,1,721.07,451.86Z"/><path d="M664.51,481.25a7.22,7.22,0,0,1-3.13,5.86,12.83,12.83,0,0,1-15.08,0,7.11,7.11,0,0,1,0-11.78,12.87,12.87,0,0,1,15.08,0A7.28,7.28,0,0,1,664.51,481.25Zm56.56.21q0,3.77-3.84,6.21a17.9,17.9,0,0,1-9.77,2.44,29.73,29.73,0,0,1-5.12-.47c-1.78-.31-4.48-.93-8.1-1.84-5.12-1.31-9.2-2.24-12.26-2.76a68.8,68.8,0,0,0-9-1,6.87,6.87,0,0,1-3.18-.66,2,2,0,0,1-.93-1.86,1.83,1.83,0,0,1,.79-1.65,5.18,5.18,0,0,1,2.61-.62c2.45-.18,4.18-.32,5.18-.43s2.57-.39,4.69-.82q5.16-1,11.09-2.65c4.64-1.29,7.82-2.09,9.54-2.42a30,30,0,0,1,5.65-.5,15.91,15.91,0,0,1,8.67,2.36A7.49,7.49,0,0,1,721.07,481.46Z"/></g></g></svg>