<svg xmlns="http://www.w3.org/2000/svg" viewBox="0 0 417.5 432.5"><defs><style>.mush-cls-1{font-size:45px;fill:#fff;font-family:Stencil;}</style></defs><g id="Layer_2" data-name="Layer 2"><g id="Layer_7" data-name="Layer 7"><path d="M337.5,61.05h-.45a30.43,30.43,0,0,0,.2-3.45c0-19-17.91-34.39-40-34.39A44.34,44.34,0,0,0,274,29.63C259.56,11.73,235.51,0,208.25,0c-27.46,0-51.69,11.9-66.09,30a44.28,44.28,0,0,0-23.91-6.81c-22.09,0-40,15.39-40,34.39,0,1,.06,2,.16,3C35,61.38,0,91.87,0,129.41c0,38,35.82,68.78,80,68.78q4.11,0,8.11-.35c7.33,7.82,18.55,12.82,31.14,12.82,12.06,0,22.86-4.59,30.19-11.85a80.45,80.45,0,0,0,23.33,15c-.7,10-1.6,20.76-2.75,31.87-.05.43-.09.87-.14,1.31s-.09.85-.13,1.28c-.52,4.87-1.09,9.8-1.71,14.76,0,.43-.11.86-.17,1.29s-.1.88-.17,1.32q-.54,4.27-1.15,8.58c12,.79,26.55,1.33,43.7,1.33,16.66,0,30.83-.52,42.66-1.26-.4-2.87-.79-5.77-1.17-8.72-.06-.44-.11-.88-.17-1.32l-.15-1.29q-.34-2.67-.66-5.38-.56-4.71-1-9.37c-.05-.43-.1-.86-.14-1.29s-.09-.87-.14-1.3c-1.19-11.57-2.1-22.75-2.81-33.09a80.13,80.13,0,0,0,20.95-14.22c7.33,7.53,18.35,12.32,30.67,12.32s23.44-4.83,30.77-12.42q4.19.38,8.48.38c44.18,0,80-30.79,80-68.78S381.68,61.05,337.5,61.05Z"/><path d="M361.72,384.82c-2.26-12-11.76-21.93-24.52-26.35-4.12-15.23-20-26.57-38.95-26.57-12.26,0-23.22,4.75-30.56,12.21A382.38,382.38,0,0,1,256,293.94c-14.2.93-29.71,1.42-45.71,1.42-16.4,0-32.29-.52-46.77-1.5q-5.19,30-12.28,51.74c-7.3-8.32-18.89-13.7-31.95-13.7-19.5,0-35.73,12-39.27,27.88-11.07,4.89-19.14,14.1-21.2,25-18.06,4.82-28.53,10.56-28.53,16.73,0,17.09,80.59,30.95,180,30.95s180-13.86,180-30.95C390.25,395.38,379.78,389.64,361.72,384.82Z"/><path d="M164.93,263.26c.63-5,1.2-9.9,1.72-14.77-12.58.79-24.15,1.91-34.17,3.35-10.5,1.5-18.86,3.29-24.86,5.32-9.2,3.12-13.87,7.44-13.87,12.83s4.67,9.71,13.87,12.83c6,2,14.36,3.82,24.86,5.32,8.46,1.21,18,2.21,28.38,3l1.55.11,1.51.1c14.34,1,30.08,1.47,46.33,1.47,15.85,0,31.21-.49,45.27-1.41.51,0,1-.06,1.52-.09l1.58-.11c10.74-.76,20.66-1.77,29.39-3,10.51-1.5,18.87-3.29,24.87-5.32,9.2-3.12,13.87-7.44,13.87-12.83s-4.67-9.71-13.87-12.83c-6-2-14.36-3.82-24.86-5.32-10.29-1.48-22.21-2.62-35.19-3.41.52,4.87,1.09,9.81,1.7,14.76,25.37,1.68,39.83,4.45,44.79,5.55L305,270l-5.66,1.25c-4.85,1.07-18.72,3.74-43,5.43l-1.58.1-1.5.1c-11.94.77-26.23,1.29-43,1.29-17.29,0-31.93-.55-44.07-1.35l-1.5-.1-1.55-.12c-23.62-1.69-37.17-4.3-41.95-5.35L115.52,270l5.66-1.25C126.08,267.66,140.2,265,164.93,263.26Z"/><text class="mush-cls-1" transform="translate(51.68 148.78) rotate(-55.06) scale(1.09 1)">W</text><text class="mush-cls-1" transform="translate(74.1 119.46) rotate(-28.04) scale(1.09 1)">A</text><text class="mush-cls-1" transform="translate(99.68 105.83) rotate(-16.56) scale(1.09 1)">R</text><text class="mush-cls-1" transform="matrix(1.08, -0.17, 0.16, 0.99, 131.65, 96.33)">H</text><text class="mush-cls-1" transform="translate(167.59 90.85) rotate(-3.82) scale(1.09 1)">E</text><text class="mush-cls-1" transform="translate(195.79 88.92) rotate(0.31) scale(1.09 1)">A</text><text class="mush-cls-1" transform="matrix(1.09, 0.09, -0.08, 1, 225.61, 89.02)">D</text><text class="mush-cls-1" transform="translate(256.84 91.86) rotate(8.17) scale(1.09 1)"> </text><text class="mush-cls-1" transform="translate(268.47 92.84) rotate(13.17) scale(1.09 1)">W</text><text class="mush-cls-1" transform="matrix(0.99, 0.45, -0.42, 0.91, 306.48, 101.34)">H</text><text class="mush-cls-1" transform="matrix(0.83, 0.71, -0.65, 0.76, 338.1, 116.34)">I</text><text class="mush-cls-1" transform="translate(351.94 126.19) rotate(64.29) scale(1.09 1)">Z</text></g></g></svg>